<svg width="90" height="90" viewBox="0 0 90 90" fill="none" xmlns="http://www.w3.org/2000/svg">
<path d="M21.302 45.3299V48.4555H19.2182V45.3299M18.6973 50.5393H21.8229" stroke="white" stroke-width="0.812257" stroke-miterlimit="22.9256"/>
<path d="M25.4699 53.6648V56.7904H23.3862V53.6648M22.8652 58.8742H25.9909" stroke="white" stroke-width="0.812257" stroke-miterlimit="22.9256"/>
<path d="M17.134 53.6648V56.7904H15.0502V53.6648M14.5293 58.8742H17.6549" stroke="white" stroke-width="0.812257" stroke-miterlimit="22.9256"/>
<path d="M20.2617 61.9999V53.6648" stroke="#0db14b" stroke-width="0.812257" stroke-miterlimit="22.9256"/>
<path d="M24.4264 53.6649V45.3299H16.0913V53.6649M28.5939 62V53.665H11.9238V62" stroke="#0db14b" stroke-width="0.812257" stroke-miterlimit="22.9256"/>
<path d="M37.5209 59.3953V62H3V36.4883L6.19024 34.9194M7.12536 34.4595L20.2605 28L37.5209 36.4883V58.3534" stroke="white" stroke-width="0.812257" stroke-miterlimit="22.9256"/>
<path d="M33.5379 40.1348V62M6.98438 62V40.1348" stroke="white" stroke-width="0.812257" stroke-miterlimit="22.9256"/>
<path d="M34.5786 38.051H5.94141V40.1348H34.5786V38.051Z" stroke="white" stroke-width="0.812257" stroke-miterlimit="22.9256"/>
<path d="M25.5074 32.9159L24.5703 32.4606M27.3818 33.8263L26.4447 33.3711" stroke="white" stroke-width="0.812257" stroke-miterlimit="22.9256"/>
<path d="M6.98438 42.2186H33.5379" stroke="white" stroke-width="0.812257" stroke-miterlimit="22.9256"/>
<path d="M20.2601 34.9256C21.1232 34.9256 21.8229 34.2259 21.8229 33.3627C21.8229 32.4996 21.1232 31.7999 20.2601 31.7999C19.397 31.7999 18.6973 32.4996 18.6973 33.3627C18.6973 34.2259 19.397 34.9256 20.2601 34.9256Z" stroke="#f47920" stroke-width="0.812257" stroke-miterlimit="22.9256"/>
<path d="M49.502 61.6529V56.0995" stroke="#0db14b" stroke-width="0.541176" stroke-miterlimit="22.9256"/>
<path d="M47.4171 56.0995V58.182H46.0287V56.0995M45.6816 59.5703H47.7641" stroke="white" stroke-width="0.541176" stroke-miterlimit="22.9256"/>
<path d="M52.9717 56.0995V58.182H51.5834V56.0995M51.2363 59.5703H53.3188" stroke="white" stroke-width="0.541176" stroke-miterlimit="22.9256"/>
<path d="M50.1944 50.5463V52.6288H48.8061V50.5463M48.459 54.0171H50.5415" stroke="white" stroke-width="0.541176" stroke-miterlimit="22.9256"/>
<path d="M52.2753 56.0996V50.5463H46.722V56.0996M55.052 61.653V56.0996H43.9453V61.653" stroke="#0db14b" stroke-width="0.541176" stroke-miterlimit="22.9256"/>
<path d="M61 59.9175V61.6529H38V44.6554L40.1255 43.6101M40.7486 43.3037L49.5 39L61 44.6554V59.2233" stroke="white" stroke-width="0.541176" stroke-miterlimit="22.9256"/>
<path d="M58.3459 47.085V61.6529M40.6543 61.6529V47.085" stroke="white" stroke-width="0.541176" stroke-miterlimit="22.9256"/>
<path d="M59.0408 45.6966H39.9609V47.085H59.0408V45.6966Z" stroke="white" stroke-width="0.541176" stroke-miterlimit="22.9256"/>
<path d="M52.9955 42.2753L52.3711 41.972M54.2443 42.8819L53.6199 42.5786" stroke="white" stroke-width="0.541176" stroke-miterlimit="22.9256"/>
<path d="M40.6543 48.4733H58.3459" stroke="white" stroke-width="0.541176" stroke-miterlimit="22.9256"/>
<path d="M49.5002 43.6142C50.0753 43.6142 50.5415 43.1481 50.5415 42.573C50.5415 41.9979 50.0753 41.5317 49.5002 41.5317C48.9252 41.5317 48.459 41.9979 48.459 42.573C48.459 43.1481 48.9252 43.6142 49.5002 43.6142Z" stroke="#f47920" stroke-width="0.541176" stroke-miterlimit="22.9256"/>
<path d="M69.0749 53.6455V55.0245H68.1556V53.6455M67.9258 55.9438H69.3047" stroke="white" stroke-width="0.358349" stroke-miterlimit="22.9256"/>
<path d="M70.9128 57.3227V58.7017H69.9935V57.3227M69.7637 59.621H71.1426" stroke="white" stroke-width="0.358349" stroke-miterlimit="22.9256"/>
<path d="M67.2351 57.3227V58.7017H66.3158V57.3227M66.0859 59.621H67.4649" stroke="white" stroke-width="0.358349" stroke-miterlimit="22.9256"/>
<path d="M68.6172 61V57.3227" stroke="#0db14b" stroke-width="0.358349" stroke-miterlimit="22.9256"/>
<path d="M70.4533 57.3228V53.6455H66.7761V57.3228M72.2919 61V57.3228H64.9375V61" stroke="#0db14b" stroke-width="0.358349" stroke-miterlimit="22.9256"/>
<path d="M76.2298 59.8509V61H61V49.7448L62.4075 49.0527M62.82 48.8498L68.6149 46L76.2298 49.7448V59.3912" stroke="white" stroke-width="0.358349" stroke-miterlimit="22.9256"/>
<path d="M74.4726 51.3536V61M62.7578 61V51.3536" stroke="white" stroke-width="0.358349" stroke-miterlimit="22.9256"/>
<path d="M74.9329 50.4343H62.2988V51.3536H74.9329V50.4343Z" stroke="white" stroke-width="0.358349" stroke-miterlimit="22.9256"/>
<path d="M70.9291 48.1688L70.5156 47.9679M71.756 48.5704L71.3425 48.3696" stroke="white" stroke-width="0.358349" stroke-miterlimit="22.9256"/>
<path d="M62.7578 52.2729H74.4726" stroke="white" stroke-width="0.358349" stroke-miterlimit="22.9256"/>
<path d="M68.6153 49.0554C68.996 49.0554 69.3047 48.7467 69.3047 48.3659C69.3047 47.9851 68.996 47.6764 68.6153 47.6764C68.2345 47.6764 67.9258 47.9851 67.9258 48.3659C67.9258 48.7467 68.2345 49.0554 68.6153 49.0554Z" stroke="#f47920" stroke-width="0.358349" stroke-miterlimit="22.9256"/>
<path d="M81.83 55.5221V56.5181H81.166V55.5221M81 57.1821H81.996" stroke="white" stroke-width="0.258824" stroke-miterlimit="22.9256"/>
<path d="M83.162 58.178V59.174H82.498V58.178M82.332 59.838H83.328" stroke="white" stroke-width="0.258824" stroke-miterlimit="22.9256"/>
<path d="M80.5058 58.178V59.174H79.8418V58.178M79.6758 59.838H80.6717" stroke="white" stroke-width="0.258824" stroke-miterlimit="22.9256"/>
<path d="M82.8257 58.1781V55.5221H80.1698V58.1781M84.1537 60.834V58.1781H78.8418V60.834" stroke="#0db14b" stroke-width="0.258824" stroke-miterlimit="22.9256"/>
<path d="M81.502 60.834V58.178" stroke="#0db14b" stroke-width="0.258824" stroke-miterlimit="22.9256"/>
<path d="M87 60.004V60.834H76V52.7048L77.0166 52.2048M77.3145 52.0583L81.5 50L87 52.7048V59.672" stroke="white" stroke-width="0.258824" stroke-miterlimit="22.9256"/>
<path d="M85.7307 53.8667V60.834M77.2695 60.834V53.8667" stroke="white" stroke-width="0.258824" stroke-miterlimit="22.9256"/>
<path d="M86.0607 53.2027H76.9355V53.8667H86.0607V53.2027Z" stroke="white" stroke-width="0.258824" stroke-miterlimit="22.9256"/>
<path d="M83.1717 51.5664L82.873 51.4214M83.7689 51.8566L83.4703 51.7115" stroke="white" stroke-opacity="0.956863" stroke-width="0.258824" stroke-miterlimit="22.9256"/>
<path d="M77.2695 54.5307H85.7307" stroke="white" stroke-width="0.258824" stroke-miterlimit="22.9256"/>
<path d="M81.498 52.2068C81.773 52.2068 81.996 51.9839 81.996 51.7088C81.996 51.4338 81.773 51.2108 81.498 51.2108C81.223 51.2108 81 51.4338 81 51.7088C81 51.9839 81.223 52.2068 81.498 52.2068Z" stroke="#f47920" stroke-width="0.258824" stroke-miterlimit="22.9256"/>
</svg>
