<svg width="90" height="90" viewBox="0 0 90 90" fill="none" xmlns="http://www.w3.org/2000/svg">
<mask id="mask0_5070_9420" style="mask-type:luminance" maskUnits="userSpaceOnUse" x="0" y="0" width="90" height="90">
<path d="M0 7.62939e-06H90V90H0V7.62939e-06Z" fill="white"/>
</mask>
<g mask="url(#mask0_5070_9420)">
<path d="M7.24834 71.2587H1.75781V64.118H7.24834C8.15977 64.118 8.89857 64.8568 8.89857 65.7682V69.6085C8.89857 70.5199 8.15977 71.2587 7.24834 71.2587Z" fill="white"/>
<path d="M21.2305 80.8596C21.2305 79.6947 20.286 78.7502 19.1211 78.7502C17.956 78.7502 17.0117 79.6947 17.0117 80.8596C17.0117 82.0246 17.956 82.9689 19.1211 82.9689C20.286 82.9689 21.2305 82.0246 21.2305 80.8596Z" fill="white"/>
<path d="M73.4766 80.8596C73.4766 79.6947 72.5321 78.7502 71.3672 78.7502C70.2023 78.7502 69.2578 79.6947 69.2578 80.8596C69.2578 82.0246 70.2023 82.9689 71.3672 82.9689C72.5321 82.9689 73.4766 82.0246 73.4766 80.8596Z" fill="white"/>
<path d="M66.3085 52.95C66.3085 53.3877 65.9534 53.7428 65.5157 53.7428H62.9796V56.2789C62.9796 56.7168 62.6245 57.0715 62.1868 57.0715H59.7292C59.2915 57.0715 58.9366 56.7168 58.9366 56.2789V53.7428H56.4004C55.9627 53.7428 55.6076 53.3877 55.6076 52.95V50.4926C55.6076 50.0547 55.9627 49.6998 56.4004 49.6998H58.9366V47.1636C58.9366 46.7259 59.2915 46.3708 59.7292 46.3708H62.1868C62.6245 46.3708 62.9796 46.7259 62.9796 47.1636V49.6998H65.5157C65.9534 49.6998 66.3085 50.0547 66.3085 50.4926V52.95ZM70.9598 39.9698H51.0331C50.0795 41.4968 49.5645 43.2679 49.5645 45.0869V58.6541C49.5645 61.1737 51.607 63.2163 54.1269 63.2163H60.9964H67.8659C70.3857 63.2163 72.4283 61.1737 72.4283 58.6541V45.0869C72.4283 43.2679 71.9135 41.4968 70.9598 39.9698Z" fill="#22B148"/>
<path d="M11.8564 78.6719H1.75781V59.5476L9.46986 56.9741L16.3851 42.4233H33.7277L33.75 78.6719H26.5043" stroke="white" stroke-width="2" stroke-miterlimit="10" stroke-linecap="round" stroke-linejoin="round"/>
<path d="M52.5985 33.4323H33.75V78.6718H64.1953" stroke="white" stroke-width="2" stroke-miterlimit="10" stroke-linecap="round" stroke-linejoin="round"/>
<path d="M78.7495 78.6719H88.2416V33.4323H70.0996" stroke="white" stroke-width="2" stroke-miterlimit="10" stroke-linecap="round" stroke-linejoin="round"/>
<path d="M9.4707 56.9742H33.7508" stroke="white" stroke-width="2" stroke-miterlimit="10" stroke-linecap="round" stroke-linejoin="round"/>
<path d="M26.5039 80.8596C26.5039 76.7823 23.1985 73.4767 19.1211 73.4767C15.0437 73.4767 11.7383 76.7823 11.7383 80.8596C11.7383 84.937 15.0437 88.2424 19.1211 88.2424C23.1985 88.2424 26.5039 84.937 26.5039 80.8596Z" stroke="white" stroke-width="2" stroke-miterlimit="10" stroke-linecap="round" stroke-linejoin="round"/>
<path d="M78.75 80.8596C78.75 76.7823 75.4446 73.4767 71.3672 73.4767C67.2898 73.4767 63.9844 76.7823 63.9844 80.8596C63.9844 84.937 67.2898 88.2424 71.3672 88.2424C75.4446 88.2424 78.75 84.937 78.75 80.8596Z" stroke="white" stroke-width="2" stroke-miterlimit="10" stroke-linecap="round" stroke-linejoin="round"/>
<path d="M15.9844 12.3116V1.75768" stroke="white" stroke-width="2" stroke-miterlimit="10" stroke-linecap="round" stroke-linejoin="round"/>
<path d="M19.6608 4.83332L15.9847 8.50943L12.3086 4.83332" stroke="white" stroke-width="2" stroke-miterlimit="10" stroke-linecap="round" stroke-linejoin="round"/>
<path d="M15.9844 24.0573V34.6114" stroke="white" stroke-width="2" stroke-miterlimit="10" stroke-linecap="round" stroke-linejoin="round"/>
<path d="M19.6608 31.5356L15.9847 27.8595L12.3086 31.5356" stroke="white" stroke-width="2" stroke-miterlimit="10" stroke-linecap="round" stroke-linejoin="round"/>
<path d="M10.8979 21.1209L1.75781 26.398" stroke="white" stroke-width="2" stroke-miterlimit="10" stroke-linecap="round" stroke-linejoin="round"/>
<path d="M2.58398 21.6764L7.60553 23.022L6.2601 28.0437" stroke="white" stroke-width="2" stroke-miterlimit="10" stroke-linecap="round" stroke-linejoin="round"/>
<path d="M21.0703 15.248L30.2102 9.97086" stroke="white" stroke-width="2" stroke-miterlimit="10" stroke-linecap="round" stroke-linejoin="round"/>
<path d="M25.7089 8.32524L24.3633 13.347L29.385 14.6926" stroke="white" stroke-width="2" stroke-miterlimit="10" stroke-linecap="round" stroke-linejoin="round"/>
<path d="M21.0703 21.1209L30.2102 26.398" stroke="white" stroke-width="2" stroke-miterlimit="10" stroke-linecap="round" stroke-linejoin="round"/>
<path d="M25.7089 28.0436L24.3633 23.0221L29.385 21.6763" stroke="white" stroke-width="2" stroke-miterlimit="10" stroke-linecap="round" stroke-linejoin="round"/>
<path d="M10.8979 15.248L1.75781 9.97086" stroke="white" stroke-width="2" stroke-miterlimit="10" stroke-linecap="round" stroke-linejoin="round"/>
<path d="M2.58398 14.6925L7.60553 13.3471L6.2601 8.32518" stroke="white" stroke-width="2" stroke-miterlimit="10" stroke-linecap="round" stroke-linejoin="round"/>
<path d="M69.3942 33.4328H52.5989C52.2086 33.4328 51.8926 33.1165 51.8926 32.7263V27.0821C51.8926 26.6919 52.2086 26.3759 52.5989 26.3759H69.3942C69.7845 26.3759 70.1007 26.6919 70.1007 27.0821V32.7263C70.1007 33.1165 69.7845 33.4328 69.3942 33.4328Z" stroke="white" stroke-width="2" stroke-miterlimit="10" stroke-linecap="round" stroke-linejoin="round"/>
<path d="M53.8523 33.4328C53.8523 35.4084 53.1492 37.3197 51.8688 38.8242C50.3813 40.572 49.5645 42.7919 49.5645 45.0869V58.6541C49.5645 61.1737 51.6072 63.2165 54.1269 63.2165H60.9966" stroke="white" stroke-width="2" stroke-miterlimit="10" stroke-linecap="round" stroke-linejoin="round"/>
<path d="M68.1404 33.4328C68.1404 35.4084 68.8435 37.3197 70.1239 38.8242C71.6113 40.572 72.4282 42.7919 72.4282 45.0869V58.6541C72.4282 61.1737 70.3854 63.2165 67.8658 63.2165H60.9961" stroke="white" stroke-width="2" stroke-miterlimit="10" stroke-linecap="round" stroke-linejoin="round"/>
<path d="M21.0705 21.1209V15.248L15.9843 12.3116L10.8984 15.248V21.1209L15.9843 24.0573L21.0705 21.1209Z" stroke="#F47922" stroke-width="2" stroke-miterlimit="10" stroke-linecap="round" stroke-linejoin="round"/>
</g>
</svg>
