<svg width="90" height="90" viewBox="0 0 90 90" fill="none" xmlns="http://www.w3.org/2000/svg">
<g clip-path="url(#clip0_5070_9324)">
<path d="M48.6857 64.8019C48.705 64.8019 48.7226 64.8019 48.7419 64.8019C48.7947 64.8019 48.8456 64.8001 48.8966 64.7984C55.6818 64.6138 58.1023 55.1971 51.3716 52.8223C50.4787 52.5077 49.6542 52.2036 48.8966 51.8995C47.0808 51.17 45.6499 50.4493 44.5935 49.6248C41.9901 47.584 42.9429 42.3562 46.7732 41.2066C47.5325 40.9798 48.2427 40.8744 48.8966 40.8568C51.8111 40.7759 53.6146 42.4072 53.6498 42.4406" stroke="#F47922" stroke-width="2" stroke-miterlimit="10" stroke-linecap="round" stroke-linejoin="round"/>
<path d="M48.8965 37.5011V40.8568V51.8995V64.7984" stroke="#F47922" stroke-width="2" stroke-miterlimit="10" stroke-linecap="round" stroke-linejoin="round"/>
<path d="M34.459 33.8589C38.4651 30.8196 43.4714 29.0143 48.8978 29.0143C62.085 29.0143 72.7778 39.6755 72.7778 52.8276C72.7778 58.356 70.8882 63.4466 67.7188 67.4879" stroke="white" stroke-width="2" stroke-miterlimit="10" stroke-linecap="round" stroke-linejoin="round"/>
<path d="M25.2549 56.1902C25.0984 55.0915 25.0176 53.9683 25.0176 52.8275C25.0176 47.1919 26.9828 42.0081 30.2699 37.9283" stroke="white" stroke-width="2" stroke-miterlimit="10" stroke-linecap="round" stroke-linejoin="round"/>
<path d="M50.5581 74.1836C50.4034 74.5418 50.219 74.87 50.0046 75.1586C48.3338 77.3722 45.3912 77.3176 42.4535 75.4123L31.541 68.3235" stroke="white" stroke-width="2" stroke-miterlimit="10" stroke-linecap="round" stroke-linejoin="round"/>
<path d="M1.64648 84.3567H15.4568C16.6937 84.3567 17.7062 83.3517 17.7062 82.1181V56.3497C17.7062 55.1161 16.6937 54.1111 15.4568 54.1111H1.64648" stroke="white" stroke-width="2" stroke-miterlimit="10" stroke-linecap="round" stroke-linejoin="round"/>
<path d="M63.1433 80.1636L49.8208 86.3617C42.858 89.5996 39.4865 89.6787 31.9718 85.1277C24.61 80.6663 23.6415 80.044 17.707 80.044V58.9571L23.362 56.7774C23.9877 56.5366 24.6206 56.3415 25.2551 56.1903C31.3355 54.7225 37.7515 57.1132 42.575 60.2755L46.5635 62.8912C50.6839 65.5877 51.8757 71.0651 50.5591 74.1834L67.719 67.4879L72.3297 65.6879C79.6669 62.8261 82.4337 71.1881 75.7856 74.2836L68.4397 77.7008" stroke="white" stroke-width="2" stroke-miterlimit="10" stroke-linecap="round" stroke-linejoin="round"/>
<path d="M48.8984 29.0142V20.0999" stroke="#22B148" stroke-width="2" stroke-miterlimit="10" stroke-linecap="round" stroke-linejoin="round"/>
<path d="M48.8984 20.0998C52.255 15.5381 55.2724 11.7226 65.8408 10.0114" stroke="#22B148" stroke-width="2" stroke-miterlimit="10" stroke-linecap="round" stroke-linejoin="round"/>
<path d="M88.3545 14.4885C81.3022 -5.66355 49.6566 -0.171575 52.2702 14.1305C53.502 20.9308 59.4122 26.2733 71.1278 17.6872C75.2724 14.6478 79.8958 10.8124 88.3545 14.4885Z" stroke="#22B148" stroke-width="2" stroke-miterlimit="10" stroke-linecap="round" stroke-linejoin="round"/>
<path d="M48.8974 20.0998C45.5409 15.5381 42.5234 11.7226 31.9551 10.0114" stroke="#22B148" stroke-width="2" stroke-miterlimit="10" stroke-linecap="round" stroke-linejoin="round"/>
<path d="M9.44141 14.4885C16.4887 -5.66355 48.1343 -0.171575 45.5257 14.1305C44.2887 20.9308 38.3837 26.2733 26.6681 17.6872C22.5235 14.6478 17.8951 10.8124 9.44141 14.4885Z" stroke="#22B148" stroke-width="2" stroke-miterlimit="10" stroke-linecap="round" stroke-linejoin="round"/>
</g>
<defs>
<clipPath id="clip0_5070_9324">
<rect width="90" height="90" fill="white"/>
</clipPath>
</defs>
</svg>
