<svg width="90" height="90" viewBox="0 0 90 90" fill="none" xmlns="http://www.w3.org/2000/svg">
<path d="M42.1757 37.4961L34.6308 29.9512L26.6426 37.9394L42.1757 53.4727L64.7695 30.8788L56.7811 22.8906L42.1757 37.4961Z" stroke="#0db14b" stroke-width="2" stroke-miterlimit="10" stroke-linecap="round" stroke-linejoin="round"/>
<mask id="mask0_5070_9338" style="mask-type:luminance" maskUnits="userSpaceOnUse" x="0" y="0" width="90" height="90">
<path d="M0 7.62939e-06H90V90H0V7.62939e-06Z" fill="white"/>
</mask>
<g mask="url(#mask0_5070_9338)">
<path d="M45 87.3633L20.1822 62.5454C10.1449 52.5081 7.14273 37.4141 12.5753 24.2998C18.0062 11.187 30.8027 2.6367 44.9972 2.6367H45.0028C59.1974 2.6367 71.9939 11.187 77.4248 24.2998C82.8573 37.4141 79.8552 52.5081 69.8179 62.5454L45 87.3633Z" stroke="white" stroke-width="2" stroke-miterlimit="10" stroke-linecap="round" stroke-linejoin="round"/>
</g>
<line x1="29" y1="59.5" x2="64" y2="59.5" stroke="#f47920"/>
</svg>
