<svg width="70" height="70" viewBox="0 0 70 70" fill="none" xmlns="http://www.w3.org/2000/svg">
<g clip-path="url(#clip0_4445_8970)">
<path d="M44.1872 38.2275H25.8594" stroke="#DADADA" stroke-width="2" stroke-miterlimit="10" stroke-linecap="round" stroke-linejoin="round"/>
<path d="M17.5576 68.6232H68.6227V47.4631" stroke="#DADADA" stroke-width="2" stroke-miterlimit="10" stroke-linecap="round" stroke-linejoin="round"/>
<path d="M1.37598 46.7805V68.623H5.25618" stroke="#DADADA" stroke-width="2" stroke-miterlimit="10" stroke-linecap="round" stroke-linejoin="round"/>
<path d="M21.4727 68.6232L30.247 38.2275" stroke="#DADADA" stroke-width="2" stroke-miterlimit="10" stroke-linecap="round" stroke-linejoin="round"/>
<path d="M48.5272 68.6232L39.7529 38.2275" stroke="#DADADA" stroke-width="2" stroke-miterlimit="10" stroke-linecap="round" stroke-linejoin="round"/>
<path d="M35 65.6082V68.4601" stroke="#DADADA" stroke-width="2" stroke-miterlimit="10" stroke-linecap="round" stroke-linejoin="round"/>
<path d="M35 56.5354V59.3874" stroke="#DADADA" stroke-width="2" stroke-miterlimit="10" stroke-linecap="round" stroke-linejoin="round"/>
<path d="M35 47.4631V50.3152" stroke="#DADADA" stroke-width="2" stroke-miterlimit="10" stroke-linecap="round" stroke-linejoin="round"/>
<path d="M45.2953 38.5145C42.1973 37.7803 39.8926 34.9962 39.8926 31.6738C39.8926 27.7913 43.04 19.9485 46.9226 19.9485C49.1969 19.9485 51.219 22.6397 52.5039 25.6495" stroke="#DADADA" stroke-width="2" stroke-miterlimit="10" stroke-linecap="round" stroke-linejoin="round"/>
<path d="M35 38.3904V41.2425" stroke="#DADADA" stroke-width="2" stroke-miterlimit="10" stroke-linecap="round" stroke-linejoin="round"/>
<path d="M50.7406 46.3644C47.6504 45.281 45.4346 42.3383 45.4346 38.8781C45.4346 34.4978 48.9855 25.6497 53.3657 25.6497C55.8636 25.6497 58.0919 28.5273 59.5458 31.8128" stroke="#0db14b" stroke-width="2" stroke-miterlimit="10" stroke-linecap="round" stroke-linejoin="round"/>
<path d="M68.6335 46.7806C68.6335 51.6863 64.6567 55.6633 59.7508 55.6633C54.845 55.6633 50.8682 51.6864 50.8682 46.7806C50.8682 41.8748 54.845 31.9653 59.7508 31.9653C64.6567 31.9653 68.6335 41.8749 68.6335 46.7806Z" stroke="#DADADA" stroke-width="2" stroke-miterlimit="10" stroke-linecap="round" stroke-linejoin="round"/>
<path d="M59.751 44.4795V62.9611" stroke="#DADADA" stroke-width="2" stroke-miterlimit="10" stroke-linecap="round" stroke-linejoin="round"/>
<path d="M59.8193 50.1717L62.773 47.218" stroke="#DADADA" stroke-width="2" stroke-miterlimit="10" stroke-linecap="round" stroke-linejoin="round"/>
<path d="M24.6864 38.5189C27.7937 37.7913 30.1076 35.0028 30.1076 31.6738C30.1076 27.7913 26.9601 19.9485 23.0776 19.9485C20.7882 19.9485 18.7543 22.6755 17.4707 25.7095" stroke="#0db14b" stroke-width="2" stroke-miterlimit="10" stroke-linecap="round" stroke-linejoin="round"/>
<path d="M19.212 46.3812C22.3274 45.3116 24.5663 42.3563 24.5663 38.8781C24.5663 34.4978 21.0154 25.6497 16.6351 25.6497C14.114 25.6497 11.8678 28.5805 10.415 31.9037" stroke="#DADADA" stroke-width="2" stroke-miterlimit="10" stroke-linecap="round" stroke-linejoin="round"/>
<path d="M1.36719 46.7806C1.36719 51.6863 5.34402 55.6633 10.2499 55.6633C15.1557 55.6633 19.1326 51.6864 19.1326 46.7806C19.1326 41.8748 15.1556 31.9653 10.2499 31.9653C5.34416 31.9653 1.36719 41.8749 1.36719 46.7806Z" stroke="#0db14b" stroke-width="2" stroke-miterlimit="10" stroke-linecap="round" stroke-linejoin="round"/>
<path d="M10.249 44.4795V62.9611" stroke="#DADADA" stroke-width="2" stroke-miterlimit="10" stroke-linecap="round" stroke-linejoin="round"/>
<path d="M10.1813 50.1717L7.22754 47.218" stroke="#DADADA" stroke-width="2" stroke-miterlimit="10" stroke-linecap="round" stroke-linejoin="round"/>
<path d="M52.4948 10.8801C55.1191 10.8801 57.2465 8.75266 57.2465 6.12838C57.2465 3.50411 55.1191 1.37671 52.4948 1.37671C49.8706 1.37671 47.7432 3.50411 47.7432 6.12838C47.7432 8.75266 49.8706 10.8801 52.4948 10.8801Z" stroke="#f47920" stroke-width="2" stroke-miterlimit="10" stroke-linecap="round" stroke-linejoin="round"/>
<path d="M19.6616 6.8399H16.2405C16.2405 4.38923 14.2538 2.40259 11.8032 2.40259C9.84825 2.40259 8.18991 3.66729 7.59836 5.4228C7.23971 5.3233 6.86234 5.2689 6.47198 5.2689C4.14993 5.2689 2.26758 7.15125 2.26758 9.4733C2.26758 11.7954 4.14993 13.6777 6.47198 13.6777C6.52871 13.6777 19.6616 13.6735 19.6616 13.6735C21.5486 13.6735 23.0784 12.1436 23.0784 10.2566C23.0784 8.36962 21.5486 6.8399 19.6616 6.8399Z" stroke="#DADADA" stroke-width="2" stroke-miterlimit="10" stroke-linecap="round" stroke-linejoin="round"/>
<circle cx="11.4078" cy="68.6231" r="1.3668" fill="#DADADA"/>
</g>
<defs>
<clipPath id="clip0_4445_8970">
<rect width="70" height="70" fill="white"/>
</clipPath>
</defs>
</svg>
