<svg width="138" height="138" viewBox="0 0 138 138" fill="none" xmlns="http://www.w3.org/2000/svg">
<g clip-path="url(#clip0_4714_9319)">
<path d="M66.5542 23.7178C61.8577 23.7044 59.4858 26.1885 59.4139 38.4028C59.3892 48.8449 50.333 57.4946 43.1994 62.6718C42.4801 63.1938 41.8932 63.8772 41.486 64.6671C41.0787 65.457 40.8624 66.3315 40.8544 67.2202C40.7302 85.2039 40.8956 103.188 41.3508 121.174C41.3805 122.198 41.6996 123.192 42.2712 124.043C42.8428 124.893 43.6436 125.564 44.5807 125.978C53.0148 129.59 67.1899 134.082 87.7259 133.424C90.2371 133.34 92.7467 133.244 95.2548 133.136C104.387 132.721 112.698 125.5 114.796 116.358C117.127 106.001 119.288 95.7096 121.231 85.4944C123.416 74.0236 113.938 63.3681 101.865 63.1278C94.1909 63.0185 86.5168 62.9436 78.8426 62.9032C78.8426 62.9032 82.4633 55.6056 82.2634 43.4295C81.949 28.8075 71.2194 23.7111 66.5542 23.7178Z" fill="#F47922"/>
<path d="M9.02728 120.225C9.88529 125.376 14.6785 129.769 20.3094 130.488C22.1707 130.726 24.0319 130.945 25.8932 131.146C30.3697 131.638 39.9594 127.577 39.8134 123.368C39.1096 104.112 38.8528 84.8567 39.043 65.6032C39.0812 61.3873 29.2713 58.988 24.6601 59.3384C22.7464 59.4792 20.8305 59.6349 18.9123 59.8056C13.1107 60.3289 8.37367 64.5224 7.76723 69.6412C5.77269 86.5296 6.2309 103.267 9.02728 120.225Z" fill="#F47922"/>
</g>
<path d="M36.6562 37.7344H25.875" stroke="#F47922" stroke-width="7" stroke-miterlimit="10" stroke-linecap="round" stroke-linejoin="round"/>
<path d="M112.125 37.7344H101.344" stroke="#F47922" stroke-width="7" stroke-miterlimit="10" stroke-linecap="round" stroke-linejoin="round"/>
<path d="M90.5625 16.1719L101.344 5.39062" stroke="#F47922" stroke-width="7" stroke-miterlimit="10" stroke-linecap="round" stroke-linejoin="round"/>
<path d="M36.6562 5.39062L47.4375 16.1719" stroke="#F47922" stroke-width="7" stroke-miterlimit="10" stroke-linecap="round" stroke-linejoin="round"/>
<defs>
<clipPath id="clip0_4714_9319">
<rect width="115" height="115" fill="white" transform="translate(6.54297 21.1033)"/>
</clipPath>
</defs>
</svg>
