<svg width="24" height="25" viewBox="0 0 24 25" fill="none" xmlns="http://www.w3.org/2000/svg">
<path d="M5.6155 21.2515C5.15517 21.2515 4.77083 21.0973 4.4625 20.789C4.15417 20.4807 4 20.0963 4 19.636V6.867C4 6.40667 4.15417 6.02233 4.4625 5.714C4.77083 5.40567 5.15517 5.2515 5.6155 5.2515H7.3845V3.02075H8.4615V5.2515H15.6155V3.02075H16.6155V5.2515H18.3845C18.8448 5.2515 19.2292 5.40567 19.5375 5.714C19.8458 6.02233 20 6.40667 20 6.867V19.636C20 20.0963 19.8458 20.4807 19.5375 20.789C19.2292 21.0973 18.8448 21.2515 18.3845 21.2515H5.6155ZM5.6155 20.2515H18.3845C18.5385 20.2515 18.6796 20.1874 18.8078 20.0593C18.9359 19.9311 19 19.79 19 19.636V10.867H5V19.636C5 19.79 5.06408 19.9311 5.19225 20.0593C5.32042 20.1874 5.4615 20.2515 5.6155 20.2515ZM5 9.86675H19V6.867C19 6.713 18.9359 6.57192 18.8078 6.44375C18.6796 6.31558 18.5385 6.2515 18.3845 6.2515H5.6155C5.4615 6.2515 5.32042 6.31558 5.19225 6.44375C5.06408 6.57192 5 6.713 5 6.867V9.86675ZM12 14.4053C11.7937 14.4053 11.6138 14.3287 11.4605 14.1755C11.3073 14.0223 11.2308 13.8425 11.2308 13.636C11.2308 13.4297 11.3073 13.2499 11.4605 13.0968C11.6138 12.9436 11.7937 12.867 12 12.867C12.2063 12.867 12.3862 12.9436 12.5395 13.0968C12.6927 13.2499 12.7692 13.4297 12.7692 13.636C12.7692 13.8425 12.6927 14.0223 12.5395 14.1755C12.3862 14.3287 12.2063 14.4053 12 14.4053ZM8 14.4053C7.79367 14.4053 7.61383 14.3287 7.4605 14.1755C7.30733 14.0223 7.23075 13.8425 7.23075 13.636C7.23075 13.4297 7.30733 13.2499 7.4605 13.0968C7.61383 12.9436 7.79367 12.867 8 12.867C8.20633 12.867 8.38617 12.9436 8.5395 13.0968C8.69267 13.2499 8.76925 13.4297 8.76925 13.636C8.76925 13.8425 8.69267 14.0223 8.5395 14.1755C8.38617 14.3287 8.20633 14.4053 8 14.4053ZM16 14.4053C15.7937 14.4053 15.6138 14.3287 15.4605 14.1755C15.3073 14.0223 15.2307 13.8425 15.2307 13.636C15.2307 13.4297 15.3073 13.2499 15.4605 13.0968C15.6138 12.9436 15.7937 12.867 16 12.867C16.2063 12.867 16.3862 12.9436 16.5395 13.0968C16.6927 13.2499 16.7693 13.4297 16.7693 13.636C16.7693 13.8425 16.6927 14.0223 16.5395 14.1755C16.3862 14.3287 16.2063 14.4053 16 14.4053ZM12 18.2515C11.7937 18.2515 11.6138 18.1749 11.4605 18.0218C11.3073 17.8686 11.2308 17.6888 11.2308 17.4823C11.2308 17.2759 11.3073 17.0961 11.4605 16.9428C11.6138 16.7896 11.7937 16.713 12 16.713C12.2063 16.713 12.3862 16.7896 12.5395 16.9428C12.6927 17.0961 12.7692 17.2759 12.7692 17.4823C12.7692 17.6888 12.6927 17.8686 12.5395 18.0218C12.3862 18.1749 12.2063 18.2515 12 18.2515ZM8 18.2515C7.79367 18.2515 7.61383 18.1749 7.4605 18.0218C7.30733 17.8686 7.23075 17.6888 7.23075 17.4823C7.23075 17.2759 7.30733 17.0961 7.4605 16.9428C7.61383 16.7896 7.79367 16.713 8 16.713C8.20633 16.713 8.38617 16.7896 8.5395 16.9428C8.69267 17.0961 8.76925 17.2759 8.76925 17.4823C8.76925 17.6888 8.69267 17.8686 8.5395 18.0218C8.38617 18.1749 8.20633 18.2515 8 18.2515ZM16 18.2515C15.7937 18.2515 15.6138 18.1749 15.4605 18.0218C15.3073 17.8686 15.2307 17.6888 15.2307 17.4823C15.2307 17.2759 15.3073 17.0961 15.4605 16.9428C15.6138 16.7896 15.7937 16.713 16 16.713C16.2063 16.713 16.3862 16.7896 16.5395 16.9428C16.6927 17.0961 16.7693 17.2759 16.7693 17.4823C16.7693 17.6888 16.6927 17.8686 16.5395 18.0218C16.3862 18.1749 16.2063 18.2515 16 18.2515Z" fill="url(#paint0_linear_5282_34373)"/>
<path d="M5.6155 21.2515C5.15517 21.2515 4.77083 21.0973 4.4625 20.789C4.15417 20.4807 4 20.0963 4 19.636V6.867C4 6.40667 4.15417 6.02233 4.4625 5.714C4.77083 5.40567 5.15517 5.2515 5.6155 5.2515H7.3845V3.02075H8.4615V5.2515H15.6155V3.02075H16.6155V5.2515H18.3845C18.8448 5.2515 19.2292 5.40567 19.5375 5.714C19.8458 6.02233 20 6.40667 20 6.867V19.636C20 20.0963 19.8458 20.4807 19.5375 20.789C19.2292 21.0973 18.8448 21.2515 18.3845 21.2515H5.6155ZM5.6155 20.2515H18.3845C18.5385 20.2515 18.6796 20.1874 18.8078 20.0593C18.9359 19.9311 19 19.79 19 19.636V10.867H5V19.636C5 19.79 5.06408 19.9311 5.19225 20.0593C5.32042 20.1874 5.4615 20.2515 5.6155 20.2515ZM5 9.86675H19V6.867C19 6.713 18.9359 6.57192 18.8078 6.44375C18.6796 6.31558 18.5385 6.2515 18.3845 6.2515H5.6155C5.4615 6.2515 5.32042 6.31558 5.19225 6.44375C5.06408 6.57192 5 6.713 5 6.867V9.86675ZM12 14.4053C11.7937 14.4053 11.6138 14.3287 11.4605 14.1755C11.3073 14.0223 11.2308 13.8425 11.2308 13.636C11.2308 13.4297 11.3073 13.2499 11.4605 13.0968C11.6138 12.9436 11.7937 12.867 12 12.867C12.2063 12.867 12.3862 12.9436 12.5395 13.0968C12.6927 13.2499 12.7692 13.4297 12.7692 13.636C12.7692 13.8425 12.6927 14.0223 12.5395 14.1755C12.3862 14.3287 12.2063 14.4053 12 14.4053ZM8 14.4053C7.79367 14.4053 7.61383 14.3287 7.4605 14.1755C7.30733 14.0223 7.23075 13.8425 7.23075 13.636C7.23075 13.4297 7.30733 13.2499 7.4605 13.0968C7.61383 12.9436 7.79367 12.867 8 12.867C8.20633 12.867 8.38617 12.9436 8.5395 13.0968C8.69267 13.2499 8.76925 13.4297 8.76925 13.636C8.76925 13.8425 8.69267 14.0223 8.5395 14.1755C8.38617 14.3287 8.20633 14.4053 8 14.4053ZM16 14.4053C15.7937 14.4053 15.6138 14.3287 15.4605 14.1755C15.3073 14.0223 15.2307 13.8425 15.2307 13.636C15.2307 13.4297 15.3073 13.2499 15.4605 13.0968C15.6138 12.9436 15.7937 12.867 16 12.867C16.2063 12.867 16.3862 12.9436 16.5395 13.0968C16.6927 13.2499 16.7693 13.4297 16.7693 13.636C16.7693 13.8425 16.6927 14.0223 16.5395 14.1755C16.3862 14.3287 16.2063 14.4053 16 14.4053ZM12 18.2515C11.7937 18.2515 11.6138 18.1749 11.4605 18.0218C11.3073 17.8686 11.2308 17.6888 11.2308 17.4823C11.2308 17.2759 11.3073 17.0961 11.4605 16.9428C11.6138 16.7896 11.7937 16.713 12 16.713C12.2063 16.713 12.3862 16.7896 12.5395 16.9428C12.6927 17.0961 12.7692 17.2759 12.7692 17.4823C12.7692 17.6888 12.6927 17.8686 12.5395 18.0218C12.3862 18.1749 12.2063 18.2515 12 18.2515ZM8 18.2515C7.79367 18.2515 7.61383 18.1749 7.4605 18.0218C7.30733 17.8686 7.23075 17.6888 7.23075 17.4823C7.23075 17.2759 7.30733 17.0961 7.4605 16.9428C7.61383 16.7896 7.79367 16.713 8 16.713C8.20633 16.713 8.38617 16.7896 8.5395 16.9428C8.69267 17.0961 8.76925 17.2759 8.76925 17.4823C8.76925 17.6888 8.69267 17.8686 8.5395 18.0218C8.38617 18.1749 8.20633 18.2515 8 18.2515ZM16 18.2515C15.7937 18.2515 15.6138 18.1749 15.4605 18.0218C15.3073 17.8686 15.2307 17.6888 15.2307 17.4823C15.2307 17.2759 15.3073 17.0961 15.4605 16.9428C15.6138 16.7896 15.7937 16.713 16 16.713C16.2063 16.713 16.3862 16.7896 16.5395 16.9428C16.6927 17.0961 16.7693 17.2759 16.7693 17.4823C16.7693 17.6888 16.6927 17.8686 16.5395 18.0218C16.3862 18.1749 16.2063 18.2515 16 18.2515Z" fill="white"/>
<defs>
<linearGradient id="paint0_linear_5282_34373" x1="12" y1="5.84362" x2="15.912" y2="18.6568" gradientUnits="userSpaceOnUse">
<stop stop-color="#F47922"/>
<stop offset="1" stop-color="#A66EFF"/>
</linearGradient>
</defs>
</svg>
