<svg width="84" height="84" viewBox="0 0 84 84" fill="none" xmlns="http://www.w3.org/2000/svg">
<mask id="mask0_4553_10016" style="mask-type:luminance" maskUnits="userSpaceOnUse" x="4" y="4" width="76" height="76">
<path d="M4.19922 4.20006H79.7992V79.8H4.19922V4.20006Z" fill="white"/>
</mask>
<g mask="url(#mask0_4553_10016)">
<path d="M68.4006 16.0469V12.4671C68.4006 8.51936 65.189 5.30754 61.2411 5.30754H26.4875C22.5398 5.30754 19.3281 8.51936 19.3281 12.4671V16.0469" stroke="white" stroke-width="1.8" stroke-miterlimit="10" stroke-linecap="round" stroke-linejoin="round"/>
<path d="M56.3203 10.0813H61.2417C62.5573 10.0813 63.6278 11.1518 63.6278 12.4674V16.0466" stroke="white" stroke-width="1.8" stroke-miterlimit="10" stroke-linecap="round" stroke-linejoin="round"/>
<path d="M24.1055 16.0466V12.4674C24.1055 11.1518 25.176 10.0813 26.4916 10.0813H51.1561" stroke="white" stroke-width="1.8" stroke-miterlimit="10" stroke-linecap="round" stroke-linejoin="round"/>
<path d="M28.8777 25.5928V22.3113C28.8777 21.4875 28.2099 20.8198 27.3861 20.8198H16.0502C15.2264 20.8198 14.5586 21.4875 14.5586 22.3113V25.5928" stroke="white" stroke-width="1.8" stroke-miterlimit="10" stroke-linecap="round" stroke-linejoin="round"/>
<path d="M26.4913 20.8196V17.5381C26.4913 16.7143 25.8234 16.0466 24.9997 16.0466H18.4368C17.613 16.0466 16.9453 16.7143 16.9453 17.5381V20.8196" stroke="white" stroke-width="1.8" stroke-miterlimit="10" stroke-linecap="round" stroke-linejoin="round"/>
<path d="M38.1237 40.4498V55.4236C38.1237 57.0714 36.7874 58.4077 35.1396 58.4077H8.29125C6.64488 58.4077 5.30859 57.0714 5.30859 55.4236V28.5767C5.30859 26.9289 6.64488 25.5926 8.29125 25.5926H35.1396C36.7874 25.5926 38.1237 26.9289 38.1237 28.5767V35.2818" stroke="white" stroke-width="1.8" stroke-miterlimit="10" stroke-linecap="round" stroke-linejoin="round"/>
<path d="M15.4844 48.4666V35.5337C15.4844 34.3152 16.85 33.5954 17.8551 34.2842L27.2927 40.7507C28.1707 41.3522 28.1707 42.6481 27.2927 43.2496L17.8551 49.7161C16.85 50.4049 15.4844 49.6851 15.4844 48.4666Z" stroke="white" stroke-width="1.8" stroke-miterlimit="10" stroke-linecap="round" stroke-linejoin="round"/>
<path d="M56.3203 53.6343V64.9701C56.3203 66.6177 57.6559 67.9534 59.3034 67.9534H72.7276C74.3751 67.9534 75.7107 66.6177 75.7107 64.9701V53.6343" stroke="white" stroke-width="1.8" stroke-miterlimit="10" stroke-linecap="round" stroke-linejoin="round"/>
<path d="M68.4019 60.7939C68.4019 62.1118 67.3335 63.1804 66.0153 63.1804C64.6973 63.1804 63.6289 62.1118 63.6289 60.7939C63.6289 59.4759 64.6973 58.4073 66.0153 58.4073C67.3335 58.4073 68.4019 59.4759 68.4019 60.7939Z" stroke="white" stroke-width="1.8" stroke-miterlimit="10" stroke-linecap="round" stroke-linejoin="round"/>
<path d="M28.8777 58.4074V61.6889C28.8777 62.5127 28.2099 63.1804 27.3861 63.1804H16.0502C15.2264 63.1804 14.5586 62.5127 14.5586 61.6889V58.4074" stroke="white" stroke-width="1.8" stroke-miterlimit="10" stroke-linecap="round" stroke-linejoin="round"/>
<path d="M26.4913 63.1801V66.4616C26.4913 67.2854 25.8234 67.9531 24.9997 67.9531H18.4368C17.613 67.9531 16.9453 67.2854 16.9453 66.4616V63.1801" stroke="white" stroke-width="1.8" stroke-miterlimit="10" stroke-linecap="round" stroke-linejoin="round"/>
<path d="M19.332 67.9536V71.5328C19.332 75.4811 22.5436 78.6926 26.4904 78.6926H30.1907" stroke="white" stroke-width="1.8" stroke-miterlimit="10" stroke-linecap="round" stroke-linejoin="round"/>
<path d="M68.4048 67.9536V71.5328C68.4048 75.4811 65.1933 78.6926 61.245 78.6926H35.3594" stroke="white" stroke-width="1.8" stroke-miterlimit="10" stroke-linecap="round" stroke-linejoin="round"/>
<path d="M24.1055 67.9532V71.533C24.1055 72.8489 25.1761 73.9194 26.492 73.9194H61.2454C62.5614 73.9194 63.632 72.8489 63.632 71.533V67.9532" stroke="white" stroke-width="1.8" stroke-miterlimit="10" stroke-linecap="round" stroke-linejoin="round"/>
<path d="M76.31 53.6343H55.7264C54.4083 53.6343 53.3398 52.5658 53.3398 51.2477C53.3398 49.9297 54.4083 48.8613 55.7264 48.8613H76.31C77.628 48.8613 78.6966 49.9297 78.6966 51.2477C78.6966 52.5658 77.628 53.6343 76.31 53.6343Z" stroke="white" stroke-width="1.8" stroke-miterlimit="10" stroke-linecap="round" stroke-linejoin="round"/>
<path d="M56.3203 30.3657V19.0299C56.3203 17.3823 57.6559 16.0466 59.3034 16.0466H72.7276C74.3751 16.0466 75.7107 17.3823 75.7107 19.0299V30.3657" stroke="white" stroke-width="1.8" stroke-miterlimit="10" stroke-linecap="round" stroke-linejoin="round"/>
<path d="M68.4019 23.2062C68.4019 21.8882 67.3335 20.8196 66.0153 20.8196C64.6973 20.8196 63.6289 21.8882 63.6289 23.2062C63.6289 24.5242 64.6973 25.5928 66.0153 25.5928C67.3335 25.5928 68.4019 24.5242 68.4019 23.2062Z" stroke="white" stroke-width="1.8" stroke-miterlimit="10" stroke-linecap="round" stroke-linejoin="round"/>
<path d="M76.31 30.3659H55.7264C54.4083 30.3659 53.3398 31.4344 53.3398 32.7525C53.3398 34.0705 54.4083 35.1389 55.7264 35.1389H76.31C77.628 35.1389 78.6966 34.0705 78.6966 32.7525C78.6966 31.4344 77.628 30.3659 76.31 30.3659Z" stroke="white" stroke-width="1.8" stroke-miterlimit="10" stroke-linecap="round" stroke-linejoin="round"/>
<path d="M57.8125 48.8611V42.2982C57.8125 40.9801 58.8809 39.9116 60.1991 39.9116C61.517 39.9116 62.5855 40.9801 62.5855 42.2982V48.8611" stroke="white" stroke-width="1.8" stroke-miterlimit="10" stroke-linecap="round" stroke-linejoin="round"/>
<path d="M74.2183 48.8611V42.2982C74.2183 40.9801 73.1499 39.9116 71.8317 39.9116C70.5138 39.9116 69.4453 40.9801 69.4453 42.2982V48.8611" stroke="white" stroke-width="1.8" stroke-miterlimit="10" stroke-linecap="round" stroke-linejoin="round"/>
</g>
</svg>
