<svg width="100" height="100" viewBox="0 0 100 100" fill="none" xmlns="http://www.w3.org/2000/svg">
<g clip-path="url(#clip0_4553_9777)">
<mask id="mask0_4553_9777" style="mask-type:luminance" maskUnits="userSpaceOnUse" x="0" y="0" width="100" height="100">
<path d="M100 0H0V100H100V0Z" fill="white"/>
</mask>
<g mask="url(#mask0_4553_9777)">
<path d="M76.5625 75V62.5H64.0625V75" stroke="white" stroke-width="2" stroke-miterlimit="10"/>
<path d="M70.3125 62.5V68.75" stroke="white" stroke-width="2" stroke-miterlimit="10"/>
<path d="M76.5625 75V81.25" stroke="white" stroke-width="2" stroke-miterlimit="10"/>
<path d="M64.0625 75V81.25" stroke="white" stroke-width="2" stroke-miterlimit="10"/>
<path d="M82.8125 87.5V75H57.8125V87.5" stroke="white" stroke-width="2" stroke-miterlimit="10"/>
<path d="M70.3125 75V87.5" stroke="white" stroke-width="2" stroke-miterlimit="10"/>
<path d="M26.5625 46.875H89.0625V87.5" stroke="white" stroke-width="2" stroke-miterlimit="10"/>
<path d="M50 25H53.125" stroke="white" stroke-width="2" stroke-miterlimit="10"/>
<path d="M56.25 25H59.375" stroke="white" stroke-width="2" stroke-miterlimit="10"/>
<path d="M62.5 25H65.625" stroke="white" stroke-width="2" stroke-miterlimit="10"/>
<mask id="mask1_4553_9777" style="mask-type:luminance" maskUnits="userSpaceOnUse" x="0" y="0" width="100" height="100">
<path d="M0 7.62939e-06H100V100H0V7.62939e-06Z" fill="white"/>
</mask>
<g mask="url(#mask1_4553_9777)">
<path d="M17.1875 31.25H98.4375" stroke="white" stroke-width="2" stroke-miterlimit="10"/>
</g>
<path d="M39.0625 37.5H17.1875" stroke="white" stroke-width="2" stroke-miterlimit="10"/>
<mask id="mask2_4553_9777" style="mask-type:luminance" maskUnits="userSpaceOnUse" x="0" y="0" width="100" height="100">
<path d="M0 7.62939e-06H100V100H0V7.62939e-06Z" fill="white"/>
</mask>
<g mask="url(#mask2_4553_9777)">
<path d="M98.4375 37.5H42.1875" stroke="white" stroke-width="2" stroke-miterlimit="10"/>
</g>
<path d="M26.5625 59.375H39.0625L51.5625 71.875V87.5" stroke="white" stroke-width="2" stroke-miterlimit="10"/>
<path d="M51.5625 71.875H26.5625" stroke="white" stroke-width="2" stroke-miterlimit="10"/>
<mask id="mask3_4553_9777" style="mask-type:luminance" maskUnits="userSpaceOnUse" x="0" y="0" width="100" height="100">
<path d="M0 7.62939e-06H100V100H0V7.62939e-06Z" fill="white"/>
</mask>
<g mask="url(#mask3_4553_9777)">
<path d="M32.8125 87.5H0" stroke="white" stroke-width="2" stroke-miterlimit="10"/>
<path d="M0 43.75H26.5625V87.5" stroke="white" stroke-width="2" stroke-miterlimit="10"/>
<path d="M0 75H26.5625" stroke="white" stroke-width="2" stroke-miterlimit="10"/>
<path d="M45.3125 87.5C45.3125 90.9518 42.5143 93.75 39.0625 93.75C35.6107 93.75 32.8125 90.9518 32.8125 87.5C32.8125 84.0482 35.6107 81.25 39.0625 81.25C42.5143 81.25 45.3125 84.0482 45.3125 87.5Z" stroke="white" stroke-width="2" stroke-miterlimit="10"/>
<path d="M37.5 87.5H40.625" stroke="white" stroke-width="2" stroke-miterlimit="10"/>
<path d="M6.25 81.25H21.875" stroke="white" stroke-width="2" stroke-miterlimit="10"/>
<path d="M29.6875 76.5625H35.9375" stroke="white" stroke-width="2" stroke-miterlimit="10"/>
<path d="M98.4375 60.9375V87.5H45.3125" stroke="white" stroke-width="2" stroke-miterlimit="10"/>
<path d="M17.1875 43.75V31.25L57.8125 6.25L98.4375 31.25V57.8125" stroke="white" stroke-width="2" stroke-miterlimit="10"/>
<path d="M26.5625 53.125H89.0625" stroke="white" stroke-width="2" stroke-miterlimit="10"/>
</g>
</g>
</g>
<defs>
<clipPath id="clip0_4553_9777">
<rect width="100" height="100" fill="white"/>
</clipPath>
</defs>
</svg>
