<svg width="198" height="190" viewBox="0 0 198 190" fill="none" xmlns="http://www.w3.org/2000/svg">
<g clip-path="url(#clip0_4175_17804)">
<path d="M53.8644 0H0.0078125L18.3302 17.6976H36.0974V35.3952L53.8644 53.9223V0Z" fill="white" fill-opacity="0.12"/>
<path d="M125.923 0H72.0664L90.389 17.6976H108.156V35.3952L125.923 53.9223V0Z" fill="white" fill-opacity="0.12"/>
<path d="M197.982 0H144.125L162.448 17.6976H180.214V35.3952L197.982 53.9223V0Z" fill="white" fill-opacity="0.12"/>
<path d="M53.8644 68.0332H0.0078125L18.3302 85.7306H36.0974V103.429L53.8644 121.956V68.0332Z" fill="white" fill-opacity="0.12"/>
<path d="M125.923 68.0332H72.0664L90.389 85.7306H108.156V103.429L125.923 121.956V68.0332Z" fill="white" fill-opacity="0.12"/>
<path d="M197.982 68.0332H144.125L162.448 85.7306H180.214V103.429L197.982 121.956V68.0332Z" fill="white" fill-opacity="0.12"/>
<path d="M53.8644 136.068H0.0078125L18.3302 153.766H36.0974V171.464L53.8644 189.991V136.068Z" fill="white" fill-opacity="0.12"/>
<path d="M125.923 136.068H72.0664L90.389 153.766H108.156V171.464L125.923 189.991V136.068Z" fill="white" fill-opacity="0.12"/>
<path d="M197.982 136.068H144.125L162.448 153.766H180.214V171.464L197.982 189.991V136.068Z" fill="white" fill-opacity="0.12"/>
</g>
<defs>
<clipPath id="clip0_4175_17804">
<rect width="198" height="190" fill="white"/>
</clipPath>
</defs>
</svg>
