<svg width="84" height="84" viewBox="0 0 84 84" fill="none" xmlns="http://www.w3.org/2000/svg">
<path d="M10.6115 66.4011H6.23828C4.87919 66.4011 3.77734 67.503 3.77734 68.8621V73.2251C3.77734 73.6781 4.14468 74.0455 4.59766 74.0455H79.4C79.853 74.0455 80.2203 73.6781 80.2203 73.2251V68.8621C80.2203 67.503 79.1184 66.4011 77.7594 66.4011H16.5178" stroke="black" stroke-width="2" stroke-miterlimit="10" stroke-linecap="round" stroke-linejoin="round"/>
<path d="M42.0012 43.4682C43.4084 43.4682 44.5492 42.3274 44.5492 40.9201C44.5492 39.5129 43.4084 38.3721 42.0012 38.3721C40.5939 38.3721 39.4531 39.5129 39.4531 40.9201C39.4531 42.3274 40.5939 43.4682 42.0012 43.4682Z" stroke="black" stroke-width="2" stroke-miterlimit="10" stroke-linecap="round" stroke-linejoin="round"/>
<path d="M49.6435 40.9202V40.7543C49.6435 40.5318 49.7338 40.3189 49.8936 40.1643L51.4502 38.6592C51.8321 38.2899 51.9138 37.708 51.6481 37.2478L50.004 34.4003C49.7384 33.9401 49.1935 33.72 48.6828 33.866L46.6025 34.461C46.3885 34.5222 46.1588 34.4938 45.9661 34.3824L45.6763 34.2148C45.4841 34.1035 45.3451 33.9191 45.2913 33.7037L44.7666 31.6049C44.6378 31.0894 44.1745 30.7278 43.6433 30.7278H40.3553C39.8239 30.7278 39.3608 31.0894 39.232 31.6049L38.7073 33.7037C38.6535 33.9191 38.5145 34.1035 38.3222 34.2148L38.0325 34.3824C37.8399 34.4938 37.6102 34.5222 37.3961 34.461L35.3158 33.866C34.8049 33.7198 34.2602 33.9401 33.9946 34.4003L32.3505 37.2478C32.0849 37.708 32.1665 38.2899 32.5484 38.6592L34.105 40.1643C34.265 40.3189 34.3552 40.5318 34.355 40.7543V40.9202V41.086C34.355 41.3085 34.2648 41.5215 34.105 41.676L32.5484 43.1811C32.1665 43.5504 32.0847 44.1323 32.3505 44.5925L33.9946 47.44C34.2602 47.9002 34.8051 48.1204 35.3158 47.9744L37.3961 47.3793C37.61 47.3181 37.8397 47.3465 38.0325 47.4579L38.3222 47.6256C38.5145 47.7368 38.6535 47.9212 38.7073 48.1366L39.232 50.2355C39.3608 50.751 39.8241 51.1125 40.3553 51.1125H43.6433C44.1747 51.1125 44.6378 50.751 44.7666 50.2355L45.2913 48.1366C45.3451 47.9212 45.4841 47.7368 45.6763 47.6256L45.9661 47.4579C46.1587 47.3465 46.3884 47.3181 46.6025 47.3793L48.6828 47.9744C49.1937 48.1205 49.7384 47.9002 50.004 47.44L51.6481 44.5925C51.9137 44.1323 51.8321 43.5504 51.4502 43.1811L49.8936 41.676C49.7336 41.5215 49.6434 41.3085 49.6435 41.086V40.9202Z" stroke="black" stroke-width="2" stroke-miterlimit="10" stroke-linecap="round" stroke-linejoin="round"/>
<path d="M42 25.6317V20.5354" stroke="black" stroke-width="2" stroke-miterlimit="10" stroke-linecap="round" stroke-linejoin="round"/>
<path d="M39.4531 23.0836L42.0012 20.5354L44.5492 23.0836" stroke="black" stroke-width="2" stroke-miterlimit="10" stroke-linecap="round" stroke-linejoin="round"/>
<path d="M57.2891 40.9202H72.5777" stroke="black" stroke-width="2" stroke-miterlimit="10" stroke-linecap="round" stroke-linejoin="round"/>
<path d="M70.0273 38.3721L72.5754 40.9201L70.0273 43.4683" stroke="black" stroke-width="2" stroke-miterlimit="10" stroke-linecap="round" stroke-linejoin="round"/>
<path d="M26.7104 40.9202H11.4219" stroke="black" stroke-width="2" stroke-miterlimit="10" stroke-linecap="round" stroke-linejoin="round"/>
<path d="M13.9699 38.3721L11.4219 40.9201L13.9699 43.4683" stroke="black" stroke-width="2" stroke-miterlimit="10" stroke-linecap="round" stroke-linejoin="round"/>
<path d="M77.6719 56.2886V66.4011" stroke="black" stroke-width="2" stroke-miterlimit="10" stroke-linecap="round" stroke-linejoin="round"/>
<path d="M77.6719 24.8035V50.3824" stroke="black" stroke-width="2" stroke-miterlimit="10" stroke-linecap="round" stroke-linejoin="round"/>
<path d="M6.32812 66.4012V24.8035" stroke="black" stroke-width="2" stroke-miterlimit="10" stroke-linecap="round" stroke-linejoin="round"/>
<path d="M20.8167 15.5729L41.5743 10.0107C41.8537 9.93589 42.148 9.93589 42.4274 10.0107L82.1586 20.6575C82.5981 20.7753 82.8589 21.227 82.7413 21.6665L81.8439 25.0203C81.7263 25.46 81.2743 25.721 80.8346 25.6032L42.2141 15.2553C42.0743 15.2179 41.9273 15.2179 41.7875 15.2553L3.16542 25.6032C2.72574 25.721 2.27374 25.46 2.15611 25.0203L1.25869 21.6665C1.14106 21.227 1.40192 20.7753 1.84144 20.6575L15.206 17.0764" stroke="black" stroke-width="2" stroke-miterlimit="10" stroke-linecap="round" stroke-linejoin="round"/>
<path d="M42 56.2087V61.3049" stroke="black" stroke-width="2" stroke-miterlimit="10" stroke-linecap="round" stroke-linejoin="round"/>
<path d="M39.4531 58.7568L42.0012 61.3049L44.5492 58.7568" stroke="black" stroke-width="2" stroke-miterlimit="10" stroke-linecap="round" stroke-linejoin="round"/>
</svg>
