<svg width="80" height="80" viewBox="0 0 80 80" fill="none" xmlns="http://www.w3.org/2000/svg">
<path d="M27.1635 47.0992L23.6221 48.72C22.1265 49.4045 20.4571 48.1916 20.6459 46.5577L21.0931 42.6887L18.4573 39.8216C17.3441 38.6106 17.9816 36.6481 19.5941 36.3228L23.4118 35.5525L25.3241 32.1597C26.1318 30.7267 28.1952 30.7267 29.0029 32.1597L30.9152 35.5525L34.7329 36.3228C36.3452 36.6481 36.9829 38.6106 35.8698 39.8216L33.234 42.6887L33.6812 46.5577C33.8701 48.1916 32.2007 49.4045 30.7049 48.72L27.1635 47.0992Z" stroke="#0db14b" stroke-width="2" stroke-miterlimit="10" stroke-linecap="round" stroke-linejoin="round"/>
<path d="M72.6444 40.0001C72.6444 36.5268 75.1412 33.6386 78.4375 33.0275V21.4067C78.4375 18.5151 76.0934 16.1709 73.2017 16.1709H6.79828C3.90656 16.1709 1.5625 18.5151 1.5625 21.4067V33.0275C4.85875 33.6386 7.35563 36.5268 7.35563 40.0001C7.35563 43.4734 4.85875 46.3617 1.5625 46.9728V58.5936C1.5625 61.4851 3.90656 63.8293 6.79828 63.8293H73.2019C76.0934 63.8293 78.4377 61.4853 78.4377 58.5936V46.9728C75.1413 46.3617 72.6444 43.4734 72.6444 40.0001Z" stroke="#575757" stroke-width="2" stroke-miterlimit="10" stroke-linecap="round" stroke-linejoin="round"/>
<path d="M47.6426 23.3242V25.2391" stroke="#575757" stroke-width="2" stroke-miterlimit="10" stroke-linecap="round" stroke-linejoin="round"/>
<path d="M47.6426 33.8027V35.7177" stroke="#575757" stroke-width="2" stroke-miterlimit="10" stroke-linecap="round" stroke-linejoin="round"/>
<path d="M47.6426 44.2812V46.1963" stroke="#575757" stroke-width="2" stroke-miterlimit="10" stroke-linecap="round" stroke-linejoin="round"/>
<path d="M47.6426 54.7607V56.6756" stroke="#575757" stroke-width="2" stroke-miterlimit="10" stroke-linecap="round" stroke-linejoin="round"/>
<path d="M58.3086 32.5654H66.6052" stroke="#f47920" stroke-width="2" stroke-miterlimit="10" stroke-linecap="round" stroke-linejoin="round"/>
<path d="M58.3086 40.001H63.2541" stroke="#f47920" stroke-width="2" stroke-miterlimit="10" stroke-linecap="round" stroke-linejoin="round"/>
<path d="M58.3086 47.4355H66.6052" stroke="#f47920" stroke-width="2" stroke-miterlimit="10" stroke-linecap="round" stroke-linejoin="round"/>
</svg>
