<svg width="80" height="80" viewBox="0 0 80 80" fill="none" xmlns="http://www.w3.org/2000/svg">
<mask id="mask0_4311_22844" style="mask-type:luminance" maskUnits="userSpaceOnUse" x="0" y="0" width="80" height="80">
<path d="M79 79V1H1V79H79Z" fill="white" stroke="white" stroke-width="2"/>
</mask>
<g mask="url(#mask0_4311_22844)">
<path d="M16.4062 2.34375H3.90625" stroke="#575757" stroke-width="2" stroke-miterlimit="10" stroke-linecap="round" stroke-linejoin="round"/>
<path d="M69.5312 72.9688H77.6562" stroke="#575757" stroke-width="2" stroke-miterlimit="10" stroke-linecap="round" stroke-linejoin="round"/>
<path d="M25.7812 33.985V7.03113C25.7812 4.44238 23.6827 2.34363 21.0938 2.34363H16.4062V35.3682" stroke="#575757" stroke-width="2" stroke-miterlimit="10" stroke-linecap="round" stroke-linejoin="round"/>
<path d="M39.5137 40.1563H60.156C62.7449 40.1563 64.8435 42.255 64.8435 44.8438V51.0938H45.5774" stroke="#575757" stroke-width="2" stroke-miterlimit="10" stroke-linecap="round" stroke-linejoin="round"/>
<path d="M24.2187 68.2812C17.3264 68.2812 11.7188 62.6736 11.7188 55.7813C11.7188 48.8889 17.3264 43.2813 24.2187 43.2813C31.1111 43.2813 36.7187 48.8889 36.7187 55.7813C36.7187 62.6736 31.1111 68.2812 24.2187 68.2812Z" stroke="#575757" stroke-width="2" stroke-miterlimit="10" stroke-linecap="round" stroke-linejoin="round"/>
<path d="M69.5312 72.9688C69.5312 75.5575 67.4325 77.6562 64.8438 77.6562C62.255 77.6562 60.1562 75.5575 60.1562 72.9688C60.1562 70.38 62.255 68.2812 64.8438 68.2812C67.4325 68.2812 69.5312 70.38 69.5312 72.9688Z" stroke="#F47922" stroke-width="2" stroke-miterlimit="10" stroke-linecap="round" stroke-linejoin="round"/>
<path d="M64.8438 68.2812V51.0938" stroke="#575757" stroke-width="2" stroke-miterlimit="10" stroke-linecap="round" stroke-linejoin="round"/>
<path d="M25.7812 33.9852V24.5313H53.9062C56.4952 24.5313 58.5938 26.63 58.5938 29.2188V40.1562H39.5139" stroke="#575757" stroke-width="2" stroke-miterlimit="10" stroke-linecap="round" stroke-linejoin="round"/>
<path d="M46.0937 55.7813C46.0937 67.8625 36.3 77.6562 24.2187 77.6562C12.1375 77.6562 2.34375 67.8625 2.34375 55.7813C2.34375 43.7 12.1375 33.9063 24.2187 33.9063C36.3 33.9063 46.0937 43.7 46.0937 55.7813Z" stroke="#22B148" stroke-width="2" stroke-miterlimit="10" stroke-linecap="round" stroke-linejoin="round"/>
</g>
</svg>
