<svg width="90" height="90" viewBox="0 0 90 90" fill="none" xmlns="http://www.w3.org/2000/svg">
<g clip-path="url(#clip0_4311_24905)">
<path d="M84.377 80.0684C86.7554 80.0684 88.6836 81.9965 88.6836 84.375C88.6836 86.7535 86.7554 88.6816 84.377 88.6816H5.62695C3.24846 88.6816 1.32031 86.7535 1.32031 84.375C1.32031 81.9965 3.24846 80.0684 5.62695 80.0684H84.377Z" stroke="#3C3C3C" stroke-width="2" stroke-miterlimit="10" stroke-linecap="round" stroke-linejoin="round"/>
<path d="M84.375 20.4033V80.0684H5.625V20.4033" stroke="#3C3C3C" stroke-width="2" stroke-miterlimit="10" stroke-linecap="round" stroke-linejoin="round"/>
<path d="M78.2264 67.6174V45.5568C78.2264 43.049 76.1933 41.0159 73.6854 41.0159H62.7285C60.2206 41.0159 58.1875 43.049 58.1875 45.5568V80.0685H78.2266V73.8283" stroke="#3C3C3C" stroke-width="2" stroke-miterlimit="10" stroke-linecap="round" stroke-linejoin="round"/>
<path d="M29.6007 41.0156H46.8057C49.7586 41.0156 52.1524 43.4094 52.1524 46.3624V64.9658C52.1524 67.9188 49.7586 70.3126 46.8057 70.3126H17.128C14.175 70.3126 11.7812 67.9188 11.7812 64.9658V46.3624C11.7812 43.4094 14.175 41.0156 17.128 41.0156H23.6173" stroke="#f47920" stroke-width="2" stroke-miterlimit="10" stroke-linecap="round" stroke-linejoin="round"/>
<path d="M72.1172 68.6279V65.5518" stroke="#3C3C3C" stroke-width="2" stroke-miterlimit="10" stroke-linecap="round" stroke-linejoin="round"/>
<path d="M22.9922 52.9543V54.5961" stroke="#3C3C3C" stroke-width="2" stroke-miterlimit="10" stroke-linecap="round" stroke-linejoin="round"/>
<path d="M29.6016 54.5859C30.1769 55.2462 31.0233 55.6638 31.9676 55.6638C32.912 55.6638 33.7584 55.246 34.3336 54.5859" stroke="#3C3C3C" stroke-width="2" stroke-miterlimit="10" stroke-linecap="round" stroke-linejoin="round"/>
<path d="M39.3555 54.5504C39.3555 53.4995 40.2073 52.6477 41.2581 52.6477C42.3089 52.6477 43.1608 53.4995 43.1608 54.5504" stroke="#3C3C3C" stroke-width="2" stroke-miterlimit="10" stroke-linecap="round" stroke-linejoin="round"/>
<path d="M72.3075 20.7615H61.4258" stroke="#3C3C3C" stroke-width="2" stroke-miterlimit="10" stroke-linecap="round" stroke-linejoin="round"/>
<path d="M58.2734 7.91016H82.2579C85.8068 7.91016 88.6836 10.787 88.6836 14.3358C88.6836 17.8847 85.8068 20.7615 82.2579 20.7615H78.4004" stroke="#3C3C3C" stroke-width="2" stroke-miterlimit="10" stroke-linecap="round" stroke-linejoin="round"/>
<path d="M28.5794 20.7615H7.746C4.19715 20.7615 1.32031 17.8847 1.32031 14.3358C1.32031 10.787 4.19715 7.91016 7.746 7.91016H31.7305" stroke="#3C3C3C" stroke-width="2" stroke-miterlimit="10" stroke-linecap="round" stroke-linejoin="round"/>
<path d="M44.999 34.6289C54.1975 34.6289 61.6543 27.1721 61.6543 17.9736C61.6543 8.77518 54.1975 1.31836 44.999 1.31836C35.8006 1.31836 28.3438 8.77518 28.3438 17.9736C28.3438 27.1721 35.8006 34.6289 44.999 34.6289Z" stroke="#0db14b" stroke-width="2" stroke-miterlimit="10" stroke-linecap="round" stroke-linejoin="round"/>
<path d="M48.9845 26.5284H41.0156L39.2578 12.9346H50.7423L48.9845 26.5284Z" stroke="#3C3C3C" stroke-width="2" stroke-miterlimit="10" stroke-linecap="round" stroke-linejoin="round"/>
<path d="M36.9727 12.9346H53.0275" stroke="#3C3C3C" stroke-width="2" stroke-miterlimit="10" stroke-linecap="round" stroke-linejoin="round"/>
<path d="M45 12.9345V8.78906" stroke="#3C3C3C" stroke-width="2" stroke-miterlimit="10" stroke-linecap="round" stroke-linejoin="round"/>
</g>
<defs>
<clipPath id="clip0_4311_24905">
<rect width="90" height="90" fill="white"/>
</clipPath>
</defs>
</svg>
