<svg width="90" height="90" viewBox="0 0 90 90" fill="none" xmlns="http://www.w3.org/2000/svg">
<g clip-path="url(#clip0_4311_24927)">
<mask id="mask0_4311_24927" style="mask-type:luminance" maskUnits="userSpaceOnUse" x="0" y="0" width="90" height="90">
<path d="M0 7.62939e-06H90V90H0V7.62939e-06Z" fill="white"/>
</mask>
<g mask="url(#mask0_4311_24927)">
<path d="M3.51562 35.5081H7.03143C7.99822 35.5081 8.78906 36.2991 8.78906 37.2659V86.4846C8.78906 87.4512 7.99805 88.2424 7.03143 88.2424H3.51562C2.54883 88.2424 1.75781 87.4514 1.75781 86.4846V37.2659C1.75781 36.2991 2.54883 35.5081 3.51562 35.5081Z" stroke="#3C3C3C" stroke-width="2" stroke-miterlimit="22.926" stroke-linecap="round" stroke-linejoin="round"/>
<path d="M82.9686 49.5699H86.4844C87.4512 49.5699 88.242 50.3609 88.242 51.3277V86.4846C88.242 87.4514 87.4512 88.2424 86.4844 88.2424H82.9686C82.0018 88.2424 81.2109 87.4514 81.2109 86.4846V51.3277C81.2109 50.3609 82.0018 49.5699 82.9686 49.5699Z" stroke="#3C3C3C" stroke-width="2" stroke-miterlimit="22.926" stroke-linecap="round" stroke-linejoin="round"/>
<path d="M10.5469 77.6951H79.4531" stroke="#3C3C3C" stroke-width="2" stroke-miterlimit="22.926" stroke-linecap="round" stroke-linejoin="round"/>
<path d="M28.125 70.6638H79.4529M10.5469 70.6638H12.3047" stroke="#3C3C3C" stroke-width="2" stroke-miterlimit="22.926" stroke-linecap="round" stroke-linejoin="round"/>
<path d="M75.9375 60.1165H79.4531M10.5469 60.1165H36.2106" stroke="#3C3C3C" stroke-width="2" stroke-miterlimit="22.926" stroke-linecap="round" stroke-linejoin="round"/>
<path d="M74.1797 68.9058V56.6011C74.1797 54.6675 72.5977 53.0854 70.6641 53.0854H41.4844C39.5508 53.0854 37.9688 54.6677 37.9688 56.6011V68.9058" stroke="#3C3C3C" stroke-width="2" stroke-miterlimit="22.926" stroke-linecap="round" stroke-linejoin="round"/>
<path d="M26.5627 60.1165C28.4963 60.1165 30.0781 58.5344 30.0781 56.601C30.0781 54.6674 28.4963 53.0856 26.5627 53.0856H12.4998C10.5664 53.0856 8.98438 54.6674 8.98438 56.601C8.98437 58.5344 10.5664 60.1165 12.4998 60.1165" stroke="#3C3C3C" stroke-width="2" stroke-miterlimit="22.926" stroke-linecap="round" stroke-linejoin="round"/>
<path d="M34.4531 23.2908V18.8962C34.4531 17.9293 35.2441 17.1384 36.2109 17.1384H41.0449V12.3044C41.0449 11.3376 41.8359 10.5466 42.8027 10.5466H47.1973C48.1641 10.5466 48.9551 11.3376 48.9551 12.3044V17.1384H53.7891C54.7559 17.1384 55.5469 17.9293 55.5469 18.8962V23.2908C55.5469 24.2576 54.7559 25.0486 53.7891 25.0486H48.9551V29.8826C48.9551 30.8494 48.1641 31.6404 47.1973 31.6404H42.8027C41.8359 31.6404 41.0449 30.8494 41.0449 29.8826V25.0486H36.2109C35.2441 25.0486 34.4531 24.2576 34.4531 23.2908Z" stroke="#22B148" stroke-width="2" stroke-miterlimit="22.926" stroke-linecap="round" stroke-linejoin="round"/>
<path d="M45 40.4294C55.6497 40.4294 64.3359 31.7434 64.3359 21.0935C64.3359 10.4436 55.6497 1.75757 45 1.75757C34.3503 1.75757 25.6641 10.4436 25.6641 21.0935C25.6641 31.7434 34.3503 40.4294 45 40.4294Z" stroke="#F47922" stroke-width="2" stroke-miterlimit="22.926" stroke-linecap="round" stroke-linejoin="round"/>
<path d="M20.2148 70.6638H20.2156" stroke="#3C3C3C" stroke-width="2" stroke-miterlimit="2.613" stroke-linecap="round" stroke-linejoin="round"/>
</g>
</g>
<defs>
<clipPath id="clip0_4311_24927">
<rect width="90" height="90" fill="white"/>
</clipPath>
</defs>
</svg>
