<svg width="90" height="90" viewBox="0 0 90 90" fill="none" xmlns="http://www.w3.org/2000/svg">
<mask id="mask0_4311_24878" style="mask-type:luminance" maskUnits="userSpaceOnUse" x="0" y="0" width="90" height="90">
<path d="M0 7.62939e-06H90V90H0V7.62939e-06Z" fill="white"/>
</mask>
<g mask="url(#mask0_4311_24878)">
<path d="M39.6274 11.1467C37.5107 10.0148 35.1285 9.39222 32.5603 9.39222C24.2292 9.39222 17.4755 16.1459 17.4755 24.4771C17.4755 25.3198 17.5479 26.145 17.6808 26.9501C13.1599 29.2516 10.061 33.9457 10.061 39.3663C10.061 41.493 10.5397 43.5075 11.392 45.3107C6.55719 47.2836 3.14844 52.0294 3.14844 57.5739C3.14844 64.8874 9.07736 70.8162 16.3909 70.8162H36.2619" stroke="#3C3C3C" stroke-width="2" stroke-miterlimit="10"/>
<path d="M77.7046 42.5059C78.6506 40.5044 79.1818 38.2685 79.1818 35.9079C79.1818 29.8911 75.7423 24.6811 70.7243 22.1265C70.8718 21.2328 70.9521 20.3167 70.9521 19.3813C70.9521 10.1342 63.4557 2.63783 54.2086 2.63783C44.9613 2.63783 37.4651 10.1342 37.4651 19.3813C37.4651 20.3167 37.5454 21.2328 37.6927 22.1265C32.6749 24.6811 29.2352 29.8911 29.2352 35.9079C29.2352 38.2685 29.7664 40.5044 30.7124 42.5059C25.346 44.6958 21.5625 49.9634 21.5625 56.1175C21.5625 64.2353 28.1434 70.8162 36.2612 70.8162H72.1559C80.2738 70.8162 86.8545 64.2353 86.8545 56.1175C86.8545 49.9634 83.071 44.6958 77.7046 42.5059Z" stroke="#22B148" stroke-width="2" stroke-miterlimit="10"/>
<path d="M54.207 27.3115V87.3621" stroke="#F47922" stroke-width="2" stroke-miterlimit="10"/>
<path d="M32.5586 70.8163V87.3621" stroke="#3C3C3C" stroke-width="2" stroke-miterlimit="10"/>
<path d="M43.9375 32.8914L54.1548 43.1086" stroke="#3C3C3C" stroke-width="2" stroke-miterlimit="10"/>
<path d="M64.3735 32.8914L54.1562 43.1086" stroke="#3C3C3C" stroke-width="2" stroke-miterlimit="10"/>
<path d="M41.0312 47.4592L54.1577 60.5857" stroke="#3C3C3C" stroke-width="2" stroke-miterlimit="10"/>
<path d="M67.2827 47.4592L54.1562 60.5857" stroke="#3C3C3C" stroke-width="2" stroke-miterlimit="10"/>
<path d="M0 87.3621H90" stroke="#3C3C3C" stroke-width="2" stroke-miterlimit="10"/>
</g>
</svg>
