<svg width="90" height="90" viewBox="0 0 90 90" fill="none" xmlns="http://www.w3.org/2000/svg">
<g clip-path="url(#clip0_4311_24956)">
<path d="M56.8104 49.1497H33.2461" stroke="#3C3C3C" stroke-width="2" stroke-miterlimit="10" stroke-linecap="round" stroke-linejoin="round"/>
<path d="M22.5742 88.2297H88.2293V61.0239" stroke="#3C3C3C" stroke-width="2" stroke-miterlimit="10" stroke-linecap="round" stroke-linejoin="round"/>
<path d="M1.76953 60.1465V88.2297H6.75836" stroke="#3C3C3C" stroke-width="2" stroke-miterlimit="10" stroke-linecap="round" stroke-linejoin="round"/>
<path d="M27.6055 88.2298L38.8867 49.1497" stroke="#3C3C3C" stroke-width="2" stroke-miterlimit="10" stroke-linecap="round" stroke-linejoin="round"/>
<path d="M62.3906 88.2298L51.1094 49.1497" stroke="#3C3C3C" stroke-width="2" stroke-miterlimit="10" stroke-linecap="round" stroke-linejoin="round"/>
<path d="M45 84.3533V88.0201" stroke="#3C3C3C" stroke-width="2" stroke-miterlimit="10" stroke-linecap="round" stroke-linejoin="round"/>
<path d="M45 72.6885V76.3553" stroke="#3C3C3C" stroke-width="2" stroke-miterlimit="10" stroke-linecap="round" stroke-linejoin="round"/>
<path d="M45 61.0239V64.6909" stroke="#3C3C3C" stroke-width="2" stroke-miterlimit="10" stroke-linecap="round" stroke-linejoin="round"/>
<path d="M58.2354 49.5186C54.2522 48.5745 51.2891 44.9951 51.2891 40.7234C51.2891 35.7316 55.3358 25.6479 60.3276 25.6479C63.2518 25.6479 65.8516 29.1081 67.5036 32.9779" stroke="#3C3C3C" stroke-width="2" stroke-miterlimit="10" stroke-linecap="round" stroke-linejoin="round"/>
<path d="M45 49.3591V53.0261" stroke="#3C3C3C" stroke-width="2" stroke-miterlimit="10" stroke-linecap="round" stroke-linejoin="round"/>
<path d="M65.2361 59.6113C61.263 58.2183 58.4141 54.4348 58.4141 49.986C58.4141 44.3542 62.9796 32.978 68.6112 32.978C71.8229 32.978 74.6878 36.6779 76.5571 40.9021" stroke="#22B148" stroke-width="2" stroke-miterlimit="10" stroke-linecap="round" stroke-linejoin="round"/>
<path d="M88.2435 60.1463C88.2435 66.4537 83.1305 71.5669 76.8229 71.5669C70.5154 71.5669 65.4023 66.4539 65.4023 60.1463C65.4023 53.8388 70.5154 41.0981 76.8229 41.0981C83.1305 41.0981 88.2435 53.839 88.2435 60.1463Z" stroke="#3C3C3C" stroke-width="2" stroke-miterlimit="10" stroke-linecap="round" stroke-linejoin="round"/>
<path d="M76.8203 57.188V80.95" stroke="#3C3C3C" stroke-width="2" stroke-miterlimit="10" stroke-linecap="round" stroke-linejoin="round"/>
<path d="M76.9102 64.5065L80.7077 60.709" stroke="#3C3C3C" stroke-width="2" stroke-miterlimit="10" stroke-linecap="round" stroke-linejoin="round"/>
<path d="M31.7383 49.5242C35.7334 48.5888 38.7083 45.0035 38.7083 40.7234C38.7083 35.7316 34.6616 25.6479 29.6698 25.6479C26.7263 25.6479 24.1112 29.1541 22.4609 33.055" stroke="#22B148" stroke-width="2" stroke-miterlimit="10" stroke-linecap="round" stroke-linejoin="round"/>
<path d="M24.701 59.6329C28.7065 58.2577 31.5851 54.458 31.5851 49.986C31.5851 44.3542 27.0196 32.978 21.3878 32.978C18.1464 32.978 15.2585 36.7462 13.3906 41.019" stroke="#3C3C3C" stroke-width="2" stroke-miterlimit="10" stroke-linecap="round" stroke-linejoin="round"/>
<path d="M1.75781 60.1463C1.75781 66.4537 6.87089 71.5669 13.1784 71.5669C19.4859 71.5669 24.599 66.4539 24.599 60.1463C24.599 53.8388 19.4857 41.0981 13.1784 41.0981C6.87106 41.0981 1.75781 53.839 1.75781 60.1463Z" stroke="#22B148" stroke-width="2" stroke-miterlimit="10" stroke-linecap="round" stroke-linejoin="round"/>
<path d="M13.1797 57.188V80.95" stroke="#3C3C3C" stroke-width="2" stroke-miterlimit="10" stroke-linecap="round" stroke-linejoin="round"/>
<path d="M13.0907 64.5065L9.29297 60.709" stroke="#3C3C3C" stroke-width="2" stroke-miterlimit="10" stroke-linecap="round" stroke-linejoin="round"/>
<path d="M67.4921 13.9886C70.8662 13.9886 73.6014 11.2534 73.6014 7.87931C73.6014 4.50524 70.8662 1.77002 67.4921 1.77002C64.118 1.77002 61.3828 4.50524 61.3828 7.87931C61.3828 11.2534 64.118 13.9886 67.4921 13.9886Z" stroke="#F47922" stroke-width="2" stroke-miterlimit="10" stroke-linecap="round" stroke-linejoin="round"/>
<path d="M25.2778 8.79422H20.8792C20.8792 5.64336 18.325 3.08911 15.1741 3.08911C12.6606 3.08911 10.5285 4.71515 9.76793 6.97224C9.30681 6.84431 8.82162 6.77437 8.31973 6.77437C5.33423 6.77437 2.91406 9.19454 2.91406 12.18C2.91406 15.1655 5.33423 17.5857 8.31973 17.5857C8.39266 17.5857 25.2778 17.5803 25.2778 17.5803C27.7039 17.5803 29.6709 15.6133 29.6709 13.1871C29.6709 10.761 27.7039 8.79422 25.2778 8.79422Z" stroke="#3C3C3C" stroke-width="2" stroke-miterlimit="10" stroke-linecap="round" stroke-linejoin="round"/>
<circle cx="14.6675" cy="88.2297" r="1.75731" fill="#3C3C3C"/>
</g>
<defs>
<clipPath id="clip0_4311_24956">
<rect width="90" height="90" fill="white"/>
</clipPath>
</defs>
</svg>
