<svg width="730" height="669" viewBox="0 0 730 669" fill="none" xmlns="http://www.w3.org/2000/svg">
<g opacity="0.9">
<mask id="path-1-inside-1_5282_33745" fill="white">
<path fill-rule="evenodd" clip-rule="evenodd" d="M402.862 667.719C412.905 682.688 419.983 699.449 423.713 717.092C431.688 686.57 446.384 658.217 466.724 634.111C492.198 604.689 527.588 585.665 566.155 580.661C606.341 575.556 647.374 580.895 686.354 571.454L691.844 570.006C701.511 566.575 697.074 576.333 696.369 577.604L695.275 581.689C686.097 604.196 674.263 625.525 660.027 645.222C636.326 678.696 601.415 702.553 561.641 712.453C539.906 716.919 517.546 717.417 495.638 713.924C484.536 711.333 473.265 709.532 461.908 708.535C451.067 708.184 437.523 711.123 433.086 735.841C431.05 749.265 429.976 762.818 429.874 776.395C429.229 814.17 433.109 852.063 435.923 889.853C457.683 838.18 495.676 795.006 544.143 766.876C595.98 737.38 649.755 711.438 705.097 689.226C731.375 678.449 755.229 662.507 775.249 642.343C792.891 622.854 805.159 599.103 810.845 573.431C813.89 560.664 815.078 547.525 814.372 534.421C814.667 533.528 814.91 532.618 815.102 531.697C814.699 526.284 813.687 520.933 812.086 515.747C802.893 496.091 786.876 480.453 767.016 471.742C748.09 462.781 731.292 449.883 717.741 433.909C706.533 419.814 698.482 403.471 694.132 385.986C689.856 368.584 689.669 350.423 693.586 332.932C696.55 322.569 700.467 312.502 705.288 302.863C709.771 292.935 714.378 283.223 718.906 273.124C723.435 263.026 726.545 268.421 727.881 270.238L729.884 272.964C743.705 286.945 758.495 299.932 774.145 311.826C802.606 333.53 822.37 364.71 829.868 399.734C831.823 416.891 829.906 434.271 824.259 450.592C817.929 465.981 814.98 482.551 815.615 499.177C818.699 507.211 821.114 515.486 822.836 523.918C834.846 493.252 852.236 464.979 874.183 440.434C894.924 415.822 909.092 386.349 915.361 354.773C915.645 353.999 915.858 353.201 915.999 352.39C917.478 346.069 916.747 339.434 913.929 333.59C904.526 319.631 891.926 308.123 877.178 300.026C858.203 289.408 841.048 275.819 826.365 259.773C814.6 245.051 806.126 227.974 801.512 209.693C793.275 167.909 797.095 124.636 812.525 84.9333C812.623 84.2326 812.807 83.5465 813.072 82.8906C815.307 74.5498 820.072 80.5702 820.367 80.8315L822.134 82.3996C831.276 89.9323 840.837 96.9408 850.771 103.391C859.668 109.589 868.222 116.266 876.394 123.393C906.392 147.696 928.167 180.67 938.752 217.823C943.101 235.218 943.65 253.349 940.364 270.981C937.69 285.042 932.884 298.897 929.19 312.685C927.386 319.634 926.872 326.855 927.673 333.989C927.893 338.609 928.407 343.491 928.797 348.156C929.819 357.097 929.665 366.133 928.338 375.035C927.746 377.248 927.107 379.631 926.468 382.014C926.495 381.659 926.587 381.313 926.742 380.993C926.742 380.993 933.323 370.715 935.301 367.413C941.783 355.224 946.506 342.177 949.329 328.663C952.887 311.388 957.456 294.336 963.013 277.596C964.655 271.468 967.657 265.705 970.443 260.066C974.402 231.361 980.539 202.998 988.803 175.224C1002.2 128.986 1032.3 89.3822 1073.25 64.1195C1094.14 52.8424 1115.87 43.1712 1138.22 35.1896C1161.25 28.0444 1183.07 17.4689 1202.94 3.81896L1205.28 1.89148C1206.5 0.757513 1211.91 -3.81189 1212.02 7.3462C1211.87 8.2152 1211.64 9.06941 1211.34 9.89952C1214.28 47.1539 1208.43 84.5829 1194.27 119.171C1182.85 146.166 1164.66 169.759 1141.47 187.67C1116.07 204.678 1087.41 216.199 1057.32 221.497C1041.66 224.994 1026.28 229.654 1011.3 235.438C1003.91 238.573 997.084 242.908 991.1 248.269C984.717 254.365 980.124 262.094 977.822 270.618C969.537 298.136 972.587 329.604 958.023 354.71C966.489 349.286 975.514 344.792 984.942 341.307C998.309 336.314 1013.14 335.363 1025.93 329.12C1038.08 321.931 1049.33 313.305 1059.42 303.43C1079.01 285.488 1102.49 272.355 1128.02 265.071C1188.7 250.133 1247.45 283.207 1304.2 301.33L1307.77 302.287C1312.7 303.609 1309.87 306.682 1309.12 308.123C1308.97 309.172 1308.69 310.201 1308.3 311.187C1296.57 330.878 1280.73 347.794 1261.85 360.77C1226.19 385.561 1182.36 395.644 1139.49 388.92C1114.6 383.829 1090.36 375.987 1067.2 365.538C1051.18 357.986 1034.1 352.918 1016.56 350.508L1012.99 349.551C1002.28 348.867 991.611 351.335 982.289 356.651C978.577 358.94 974.957 360.889 971.415 363.224C950.969 377.595 932.672 394.808 917.077 414.344C914.418 417.463 905.204 429.407 903.931 431.438C897.225 441.5 889.669 451.334 882.499 461.089C864.654 484.26 848.737 508.858 834.91 534.633C848.06 524.659 863.128 517.515 879.168 513.652C889.134 504.624 898.487 494.94 907.164 484.665C918.872 471.69 933.083 461.224 948.942 453.898C964.739 447.034 981.861 443.77 999.069 444.341C1020.44 445.691 1041.4 450.754 1061.03 459.303L1092.59 472.136C1102.38 476.499 1112.92 478.951 1123.64 479.361C1126.19 480.045 1129.15 479.196 1129.76 481.001C1130.37 482.807 1127.02 486.47 1126.02 487.479C1113.19 502.943 1098.53 516.782 1082.35 528.688C1053.98 550.135 1019.53 561.99 983.983 562.536C965.404 562.319 947.069 558.276 930.122 550.658C920.455 546.608 911.186 541.753 901.917 536.897L890.312 531.234L887.762 530.55C885.109 528.939 882.118 527.965 879.026 527.707C875.933 527.448 872.822 527.91 869.937 529.058C862.445 531.925 855.625 536.309 849.902 541.934C839.094 551.945 830.966 564.508 826.261 578.474C824.892 583.58 820.331 600.602 819.784 602.645C819.237 604.688 819.145 605.028 818.826 606.22C805.967 640.538 781.633 669.346 749.961 687.746C714.559 707.017 677.809 723.694 640 737.645C650.948 736.017 662.026 735.442 673.083 735.928C697.093 737.348 720.748 742.395 743.246 750.897C781.097 741.137 820.387 738.255 859.248 742.389C878.769 745.065 898.55 745.277 918.126 743.023C931.641 740.606 944.536 735.5 956.048 728.007C959.353 725.725 962.429 723.128 965.233 720.251C973.022 708.074 977.743 694.188 978.992 679.787C981.502 661.859 988.685 644.906 999.817 630.634C1010.43 617.82 1024.24 608.049 1039.84 602.316C1055.83 596.525 1073.01 594.854 1089.81 597.459C1109.33 601.44 1128.22 608.096 1145.92 617.239C1147.62 617.695 1149.15 618.105 1147.13 621.576L1146.67 623.278C1130.43 656.396 1105.21 684.283 1073.9 703.757C1057.81 711.652 1040.18 715.898 1022.27 716.195C1005.55 714.888 988.771 717.723 973.404 724.447C970.725 726.284 959.689 734.821 958.089 736.034C950.046 742.121 941.281 747.188 931.995 751.118L927.524 752.839C945.422 755.437 963.538 756.196 981.592 755.102C996.219 755.343 1010.8 753.409 1024.86 749.365C1046.63 740.236 1067.04 728.008 1087.96 717.925C1133.67 693.399 1186.48 685.611 1237.29 695.906C1292.04 710.577 1336.54 747.861 1390.1 764.949L1392.48 765.586C1402.01 768.138 1396.17 772.23 1394.18 773.522L1392.67 774.395C1366.47 791.027 1339.04 805.634 1310.62 818.088C1285.99 828.476 1259.72 834.409 1233.03 835.61C1205.97 836.339 1179.15 830.528 1154.82 818.67C1128.82 806.228 1105.14 789.849 1078.38 778.848C1057.22 770.092 1034.59 765.452 1011.7 765.176C1004.61 765.101 979.784 765.93 975.044 765.936C949.973 768.755 924.636 768.105 899.747 764.005L896.856 763.23C889.478 761.46 881.943 760.419 874.361 760.122C866.005 759.343 857.76 759.505 849.403 758.725C821.647 755.648 793.597 756.421 766.048 761.02C776.977 766.305 787.546 772.306 797.684 778.984C815.727 791.948 832.876 806.112 849.017 821.382C859.171 830.806 870.227 839.208 882.026 846.464L885.368 848.272C892.222 851.596 899.426 854.138 906.847 855.852C925.589 858.684 942.526 847.168 958.405 837.557C973.07 829.631 989.223 824.85 1005.83 823.521C1022.44 822.192 1039.15 824.343 1054.88 829.837C1086.18 840.876 1112.61 862.549 1129.59 891.088L1131.5 894.155C1131.5 894.155 1134.53 899.163 1128.64 899.407L1126.76 898.906C1109.93 901.597 1093.53 906.53 1078 913.572C1048.11 923.805 1017.87 933.947 985.905 922.646C969.973 916.93 955.503 907.757 943.532 895.785C933.987 885.506 923.178 876.479 911.364 868.921C899.715 862.28 887.081 857.54 873.939 854.879C893.776 876.067 913.784 897.301 933.19 918.738C950.045 935.967 963.157 956.5 971.704 979.047C978.702 999.906 980.678 1022.13 977.472 1043.9C973.355 1067.58 963.855 1090.01 949.705 1109.44C934.358 1128.77 922.665 1150.74 915.204 1174.27C914.9 1175.03 914.686 1175.83 914.565 1176.65C913.425 1180.9 909.51 1182.59 906.764 1175.84L905.532 1172.95C892.456 1150.25 876.843 1129.11 858.993 1109.94C844.327 1091.36 833.248 1070.2 826.322 1047.55C820.062 1025.86 818.644 1003.06 822.167 980.759C827.252 955.84 836.895 932.074 850.609 910.659C860.773 893.131 872.774 868.068 858.83 849.371C848.551 839.09 837.507 829.605 825.792 820.998C825.259 820.516 824.858 819.906 824.627 819.226L820.118 815.646C804.303 801.939 787.019 790.026 768.583 780.126C738.35 764.746 705.109 756.199 671.206 755.091C637.304 753.983 603.568 760.339 572.381 773.712C555.995 780.934 540.481 789.998 526.141 800.73L523.587 802.782C496.797 822.522 474.336 847.55 457.591 876.32C474.038 860.194 496.078 851.062 519.093 850.838C527.393 850.756 535.669 849.921 543.819 848.341C550.759 846.626 557.51 844.218 563.97 841.152C589.616 829.779 612.761 814.818 641.68 814.356C709.089 813.08 757.328 869.062 813.649 896.924L815.349 897.38C817.73 898.018 819.36 900.096 814.91 903.1L813.525 904.188C793.853 918.356 772.389 929.845 749.696 938.352C727.478 945.717 703.886 947.954 680.687 944.898C657.487 941.841 635.283 933.569 615.736 920.702C595.932 907.55 579.798 889.544 558.95 877.572C545.408 869.293 529.506 865.738 513.728 867.462C506.492 868.858 499.454 871.139 492.772 874.253C478.529 881.297 466.23 891.733 456.955 904.644C447.68 917.556 441.714 932.547 439.58 948.303L438.734 960.3C437.604 996.486 429.452 1033.71 395.504 1053.62C394.879 1053.92 394.176 1054.02 393.494 1053.9C392.811 1053.78 392.183 1053.45 391.694 1052.96C391.206 1052.47 390.882 1051.84 390.767 1051.16C390.652 1050.47 390.753 1049.77 391.054 1049.14C391.556 1047.27 393.463 1045.59 394.861 1043.78C403.376 1027.06 409.229 1009.12 412.21 990.594C415.837 962.461 409.164 933.971 393.423 910.393C387.355 898.815 379.99 887.966 371.47 878.056C365.718 873.092 358.964 869.428 351.667 867.316C344.37 865.203 336.703 864.691 329.188 865.815C315.137 868.156 300.968 869.719 286.746 870.498C239.046 871.066 192.461 856.105 154.009 827.868C115.557 799.631 87.3192 759.648 73.5495 713.94C73.3297 713.374 73.1819 712.783 73.1098 712.18C72.0936 709.171 72.7322 706.788 77.0163 708.484L78.5467 708.894C105.56 718.228 133.696 723.927 162.214 725.839C210.019 729.223 256.442 743.346 298.034 767.158C324.617 783.487 345.574 807.563 358.093 836.159C358.889 837.877 359.572 839.644 360.138 841.451C361.986 848.184 365.649 854.278 370.727 859.066L374.725 862.509C382.963 869.941 390.54 878.075 397.37 886.821C405.394 896.481 412.091 907.172 417.282 918.611C417.083 907.793 416.498 897.054 415.912 886.316L412.467 822.997C408.126 771.136 387.825 721.906 354.361 682.089C343.809 667.756 329.164 656.962 312.356 651.13C278.348 642.018 243.351 658.365 211.293 665.1C177.344 673.059 142.08 673.568 107.923 666.593C71.2 655.951 36.3336 639.716 4.54716 618.46L2.67674 617.959C-1.34619 615.969 0.665074 613.224 3.66336 610.196C3.9213 609.28 4.45758 608.467 5.19773 607.87C25.7764 588.334 49.1407 571.968 74.5245 559.307C98.0215 547.888 123.694 541.656 149.802 541.034C175.909 540.412 201.843 545.414 225.844 555.702C250.756 567.064 273.177 583.239 291.821 603.301C306.179 617.73 318.394 632.679 331.856 647.051L337.306 650.518C367.475 670.643 391.486 698.735 406.681 731.685C398.006 702.075 384.894 673.956 367.792 648.287C359.748 634.542 352.407 620.397 345.797 605.905C343.819 601.726 335.457 581.241 334.067 577.585C332.678 573.929 332.475 573.327 331.74 571.306C328.943 565.794 325.489 560.642 321.455 555.961C311.444 545.495 299.568 536.992 286.438 530.888C274.842 525.557 263.734 519.223 253.239 511.958C244.09 505.007 236.053 496.701 229.403 487.327C215.765 468.731 207.231 446.883 204.649 423.955C198.227 379.907 204.91 331.161 180.145 290.956L179.568 289.706C178.585 287.254 173.538 280.246 181.575 282.217L183.616 282.763C228.02 292.791 269.133 313.979 303.076 344.328C331.141 367.455 350.64 399.34 358.454 434.881C361.156 454.024 359.42 473.535 353.381 491.903C344.432 511.218 339.277 532.073 338.197 553.332C342.46 582.112 355.274 608.939 374.974 630.325C372.877 613.028 374.413 595.481 379.484 578.808C380.442 575.233 381.354 571.829 382.357 568.084C383.704 545.408 383.093 522.659 380.529 500.09C379.882 475.912 387.387 452.217 401.834 432.821C416.401 414.468 435.183 399.91 456.579 390.386C478.306 380.922 501.111 374.165 524.481 370.267C547.897 367.249 570.808 361.117 592.607 352.032L594.502 351.081C602.037 347.444 601.303 352.903 600.632 354.73C599.96 356.557 600.267 356.092 600.039 356.943C588.486 388.373 575.027 419.069 559.736 448.859C549.178 472.884 532.291 493.586 510.885 508.747C489.046 520.582 465.806 529.617 441.715 535.641C429.099 538.77 417.099 544.005 406.22 551.125C400.747 556.312 396.502 562.659 393.795 569.699C391.089 576.74 389.99 584.296 390.578 591.815C389.434 617.797 393.582 643.738 402.771 668.059L402.862 667.719Z"/>
</mask>
<path fill-rule="evenodd" clip-rule="evenodd" d="M402.862 667.719C412.905 682.688 419.983 699.449 423.713 717.092C431.688 686.57 446.384 658.217 466.724 634.111C492.198 604.689 527.588 585.665 566.155 580.661C606.341 575.556 647.374 580.895 686.354 571.454L691.844 570.006C701.511 566.575 697.074 576.333 696.369 577.604L695.275 581.689C686.097 604.196 674.263 625.525 660.027 645.222C636.326 678.696 601.415 702.553 561.641 712.453C539.906 716.919 517.546 717.417 495.638 713.924C484.536 711.333 473.265 709.532 461.908 708.535C451.067 708.184 437.523 711.123 433.086 735.841C431.05 749.265 429.976 762.818 429.874 776.395C429.229 814.17 433.109 852.063 435.923 889.853C457.683 838.18 495.676 795.006 544.143 766.876C595.98 737.38 649.755 711.438 705.097 689.226C731.375 678.449 755.229 662.507 775.249 642.343C792.891 622.854 805.159 599.103 810.845 573.431C813.89 560.664 815.078 547.525 814.372 534.421C814.667 533.528 814.91 532.618 815.102 531.697C814.699 526.284 813.687 520.933 812.086 515.747C802.893 496.091 786.876 480.453 767.016 471.742C748.09 462.781 731.292 449.883 717.741 433.909C706.533 419.814 698.482 403.471 694.132 385.986C689.856 368.584 689.669 350.423 693.586 332.932C696.55 322.569 700.467 312.502 705.288 302.863C709.771 292.935 714.378 283.223 718.906 273.124C723.435 263.026 726.545 268.421 727.881 270.238L729.884 272.964C743.705 286.945 758.495 299.932 774.145 311.826C802.606 333.53 822.37 364.71 829.868 399.734C831.823 416.891 829.906 434.271 824.259 450.592C817.929 465.981 814.98 482.551 815.615 499.177C818.699 507.211 821.114 515.486 822.836 523.918C834.846 493.252 852.236 464.979 874.183 440.434C894.924 415.822 909.092 386.349 915.361 354.773C915.645 353.999 915.858 353.201 915.999 352.39C917.478 346.069 916.747 339.434 913.929 333.59C904.526 319.631 891.926 308.123 877.178 300.026C858.203 289.408 841.048 275.819 826.365 259.773C814.6 245.051 806.126 227.974 801.512 209.693C793.275 167.909 797.095 124.636 812.525 84.9333C812.623 84.2326 812.807 83.5465 813.072 82.8906C815.307 74.5498 820.072 80.5702 820.367 80.8315L822.134 82.3996C831.276 89.9323 840.837 96.9408 850.771 103.391C859.668 109.589 868.222 116.266 876.394 123.393C906.392 147.696 928.167 180.67 938.752 217.823C943.101 235.218 943.65 253.349 940.364 270.981C937.69 285.042 932.884 298.897 929.19 312.685C927.386 319.634 926.872 326.855 927.673 333.989C927.893 338.609 928.407 343.491 928.797 348.156C929.819 357.097 929.665 366.133 928.338 375.035C927.746 377.248 927.107 379.631 926.468 382.014C926.495 381.659 926.587 381.313 926.742 380.993C926.742 380.993 933.323 370.715 935.301 367.413C941.783 355.224 946.506 342.177 949.329 328.663C952.887 311.388 957.456 294.336 963.013 277.596C964.655 271.468 967.657 265.705 970.443 260.066C974.402 231.361 980.539 202.998 988.803 175.224C1002.2 128.986 1032.3 89.3822 1073.25 64.1195C1094.14 52.8424 1115.87 43.1712 1138.22 35.1896C1161.25 28.0444 1183.07 17.4689 1202.94 3.81896L1205.28 1.89148C1206.5 0.757513 1211.91 -3.81189 1212.02 7.3462C1211.87 8.2152 1211.64 9.06941 1211.34 9.89952C1214.28 47.1539 1208.43 84.5829 1194.27 119.171C1182.85 146.166 1164.66 169.759 1141.47 187.67C1116.07 204.678 1087.41 216.199 1057.32 221.497C1041.66 224.994 1026.28 229.654 1011.3 235.438C1003.91 238.573 997.084 242.908 991.1 248.269C984.717 254.365 980.124 262.094 977.822 270.618C969.537 298.136 972.587 329.604 958.023 354.71C966.489 349.286 975.514 344.792 984.942 341.307C998.309 336.314 1013.14 335.363 1025.93 329.12C1038.08 321.931 1049.33 313.305 1059.42 303.43C1079.01 285.488 1102.49 272.355 1128.02 265.071C1188.7 250.133 1247.45 283.207 1304.2 301.33L1307.77 302.287C1312.7 303.609 1309.87 306.682 1309.12 308.123C1308.97 309.172 1308.69 310.201 1308.3 311.187C1296.57 330.878 1280.73 347.794 1261.85 360.77C1226.19 385.561 1182.36 395.644 1139.49 388.92C1114.6 383.829 1090.36 375.987 1067.2 365.538C1051.18 357.986 1034.1 352.918 1016.56 350.508L1012.99 349.551C1002.28 348.867 991.611 351.335 982.289 356.651C978.577 358.94 974.957 360.889 971.415 363.224C950.969 377.595 932.672 394.808 917.077 414.344C914.418 417.463 905.204 429.407 903.931 431.438C897.225 441.5 889.669 451.334 882.499 461.089C864.654 484.26 848.737 508.858 834.91 534.633C848.06 524.659 863.128 517.515 879.168 513.652C889.134 504.624 898.487 494.94 907.164 484.665C918.872 471.69 933.083 461.224 948.942 453.898C964.739 447.034 981.861 443.77 999.069 444.341C1020.44 445.691 1041.4 450.754 1061.03 459.303L1092.59 472.136C1102.38 476.499 1112.92 478.951 1123.64 479.361C1126.19 480.045 1129.15 479.196 1129.76 481.001C1130.37 482.807 1127.02 486.47 1126.02 487.479C1113.19 502.943 1098.53 516.782 1082.35 528.688C1053.98 550.135 1019.53 561.99 983.983 562.536C965.404 562.319 947.069 558.276 930.122 550.658C920.455 546.608 911.186 541.753 901.917 536.897L890.312 531.234L887.762 530.55C885.109 528.939 882.118 527.965 879.026 527.707C875.933 527.448 872.822 527.91 869.937 529.058C862.445 531.925 855.625 536.309 849.902 541.934C839.094 551.945 830.966 564.508 826.261 578.474C824.892 583.58 820.331 600.602 819.784 602.645C819.237 604.688 819.145 605.028 818.826 606.22C805.967 640.538 781.633 669.346 749.961 687.746C714.559 707.017 677.809 723.694 640 737.645C650.948 736.017 662.026 735.442 673.083 735.928C697.093 737.348 720.748 742.395 743.246 750.897C781.097 741.137 820.387 738.255 859.248 742.389C878.769 745.065 898.55 745.277 918.126 743.023C931.641 740.606 944.536 735.5 956.048 728.007C959.353 725.725 962.429 723.128 965.233 720.251C973.022 708.074 977.743 694.188 978.992 679.787C981.502 661.859 988.685 644.906 999.817 630.634C1010.43 617.82 1024.24 608.049 1039.84 602.316C1055.83 596.525 1073.01 594.854 1089.81 597.459C1109.33 601.44 1128.22 608.096 1145.92 617.239C1147.62 617.695 1149.15 618.105 1147.13 621.576L1146.67 623.278C1130.43 656.396 1105.21 684.283 1073.9 703.757C1057.81 711.652 1040.18 715.898 1022.27 716.195C1005.55 714.888 988.771 717.723 973.404 724.447C970.725 726.284 959.689 734.821 958.089 736.034C950.046 742.121 941.281 747.188 931.995 751.118L927.524 752.839C945.422 755.437 963.538 756.196 981.592 755.102C996.219 755.343 1010.8 753.409 1024.86 749.365C1046.63 740.236 1067.04 728.008 1087.96 717.925C1133.67 693.399 1186.48 685.611 1237.29 695.906C1292.04 710.577 1336.54 747.861 1390.1 764.949L1392.48 765.586C1402.01 768.138 1396.17 772.23 1394.18 773.522L1392.67 774.395C1366.47 791.027 1339.04 805.634 1310.62 818.088C1285.99 828.476 1259.72 834.409 1233.03 835.61C1205.97 836.339 1179.15 830.528 1154.82 818.67C1128.82 806.228 1105.14 789.849 1078.38 778.848C1057.22 770.092 1034.59 765.452 1011.7 765.176C1004.61 765.101 979.784 765.93 975.044 765.936C949.973 768.755 924.636 768.105 899.747 764.005L896.856 763.23C889.478 761.46 881.943 760.419 874.361 760.122C866.005 759.343 857.76 759.505 849.403 758.725C821.647 755.648 793.597 756.421 766.048 761.02C776.977 766.305 787.546 772.306 797.684 778.984C815.727 791.948 832.876 806.112 849.017 821.382C859.171 830.806 870.227 839.208 882.026 846.464L885.368 848.272C892.222 851.596 899.426 854.138 906.847 855.852C925.589 858.684 942.526 847.168 958.405 837.557C973.07 829.631 989.223 824.85 1005.83 823.521C1022.44 822.192 1039.15 824.343 1054.88 829.837C1086.18 840.876 1112.61 862.549 1129.59 891.088L1131.5 894.155C1131.5 894.155 1134.53 899.163 1128.64 899.407L1126.76 898.906C1109.93 901.597 1093.53 906.53 1078 913.572C1048.11 923.805 1017.87 933.947 985.905 922.646C969.973 916.93 955.503 907.757 943.532 895.785C933.987 885.506 923.178 876.479 911.364 868.921C899.715 862.28 887.081 857.54 873.939 854.879C893.776 876.067 913.784 897.301 933.19 918.738C950.045 935.967 963.157 956.5 971.704 979.047C978.702 999.906 980.678 1022.13 977.472 1043.9C973.355 1067.58 963.855 1090.01 949.705 1109.44C934.358 1128.77 922.665 1150.74 915.204 1174.27C914.9 1175.03 914.686 1175.83 914.565 1176.65C913.425 1180.9 909.51 1182.59 906.764 1175.84L905.532 1172.95C892.456 1150.25 876.843 1129.11 858.993 1109.94C844.327 1091.36 833.248 1070.2 826.322 1047.55C820.062 1025.86 818.644 1003.06 822.167 980.759C827.252 955.84 836.895 932.074 850.609 910.659C860.773 893.131 872.774 868.068 858.83 849.371C848.551 839.09 837.507 829.605 825.792 820.998C825.259 820.516 824.858 819.906 824.627 819.226L820.118 815.646C804.303 801.939 787.019 790.026 768.583 780.126C738.35 764.746 705.109 756.199 671.206 755.091C637.304 753.983 603.568 760.339 572.381 773.712C555.995 780.934 540.481 789.998 526.141 800.73L523.587 802.782C496.797 822.522 474.336 847.55 457.591 876.32C474.038 860.194 496.078 851.062 519.093 850.838C527.393 850.756 535.669 849.921 543.819 848.341C550.759 846.626 557.51 844.218 563.97 841.152C589.616 829.779 612.761 814.818 641.68 814.356C709.089 813.08 757.328 869.062 813.649 896.924L815.349 897.38C817.73 898.018 819.36 900.096 814.91 903.1L813.525 904.188C793.853 918.356 772.389 929.845 749.696 938.352C727.478 945.717 703.886 947.954 680.687 944.898C657.487 941.841 635.283 933.569 615.736 920.702C595.932 907.55 579.798 889.544 558.95 877.572C545.408 869.293 529.506 865.738 513.728 867.462C506.492 868.858 499.454 871.139 492.772 874.253C478.529 881.297 466.23 891.733 456.955 904.644C447.68 917.556 441.714 932.547 439.58 948.303L438.734 960.3C437.604 996.486 429.452 1033.71 395.504 1053.62C394.879 1053.92 394.176 1054.02 393.494 1053.9C392.811 1053.78 392.183 1053.45 391.694 1052.96C391.206 1052.47 390.882 1051.84 390.767 1051.16C390.652 1050.47 390.753 1049.77 391.054 1049.14C391.556 1047.27 393.463 1045.59 394.861 1043.78C403.376 1027.06 409.229 1009.12 412.21 990.594C415.837 962.461 409.164 933.971 393.423 910.393C387.355 898.815 379.99 887.966 371.47 878.056C365.718 873.092 358.964 869.428 351.667 867.316C344.37 865.203 336.703 864.691 329.188 865.815C315.137 868.156 300.968 869.719 286.746 870.498C239.046 871.066 192.461 856.105 154.009 827.868C115.557 799.631 87.3192 759.648 73.5495 713.94C73.3297 713.374 73.1819 712.783 73.1098 712.18C72.0936 709.171 72.7322 706.788 77.0163 708.484L78.5467 708.894C105.56 718.228 133.696 723.927 162.214 725.839C210.019 729.223 256.442 743.346 298.034 767.158C324.617 783.487 345.574 807.563 358.093 836.159C358.889 837.877 359.572 839.644 360.138 841.451C361.986 848.184 365.649 854.278 370.727 859.066L374.725 862.509C382.963 869.941 390.54 878.075 397.37 886.821C405.394 896.481 412.091 907.172 417.282 918.611C417.083 907.793 416.498 897.054 415.912 886.316L412.467 822.997C408.126 771.136 387.825 721.906 354.361 682.089C343.809 667.756 329.164 656.962 312.356 651.13C278.348 642.018 243.351 658.365 211.293 665.1C177.344 673.059 142.08 673.568 107.923 666.593C71.2 655.951 36.3336 639.716 4.54716 618.46L2.67674 617.959C-1.34619 615.969 0.665074 613.224 3.66336 610.196C3.9213 609.28 4.45758 608.467 5.19773 607.87C25.7764 588.334 49.1407 571.968 74.5245 559.307C98.0215 547.888 123.694 541.656 149.802 541.034C175.909 540.412 201.843 545.414 225.844 555.702C250.756 567.064 273.177 583.239 291.821 603.301C306.179 617.73 318.394 632.679 331.856 647.051L337.306 650.518C367.475 670.643 391.486 698.735 406.681 731.685C398.006 702.075 384.894 673.956 367.792 648.287C359.748 634.542 352.407 620.397 345.797 605.905C343.819 601.726 335.457 581.241 334.067 577.585C332.678 573.929 332.475 573.327 331.74 571.306C328.943 565.794 325.489 560.642 321.455 555.961C311.444 545.495 299.568 536.992 286.438 530.888C274.842 525.557 263.734 519.223 253.239 511.958C244.09 505.007 236.053 496.701 229.403 487.327C215.765 468.731 207.231 446.883 204.649 423.955C198.227 379.907 204.91 331.161 180.145 290.956L179.568 289.706C178.585 287.254 173.538 280.246 181.575 282.217L183.616 282.763C228.02 292.791 269.133 313.979 303.076 344.328C331.141 367.455 350.64 399.34 358.454 434.881C361.156 454.024 359.42 473.535 353.381 491.903C344.432 511.218 339.277 532.073 338.197 553.332C342.46 582.112 355.274 608.939 374.974 630.325C372.877 613.028 374.413 595.481 379.484 578.808C380.442 575.233 381.354 571.829 382.357 568.084C383.704 545.408 383.093 522.659 380.529 500.09C379.882 475.912 387.387 452.217 401.834 432.821C416.401 414.468 435.183 399.91 456.579 390.386C478.306 380.922 501.111 374.165 524.481 370.267C547.897 367.249 570.808 361.117 592.607 352.032L594.502 351.081C602.037 347.444 601.303 352.903 600.632 354.73C599.96 356.557 600.267 356.092 600.039 356.943C588.486 388.373 575.027 419.069 559.736 448.859C549.178 472.884 532.291 493.586 510.885 508.747C489.046 520.582 465.806 529.617 441.715 535.641C429.099 538.77 417.099 544.005 406.22 551.125C400.747 556.312 396.502 562.659 393.795 569.699C391.089 576.74 389.99 584.296 390.578 591.815C389.434 617.797 393.582 643.738 402.771 668.059L402.862 667.719Z" stroke="url(#paint0_linear_5282_33745)" stroke-width="2" mask="url(#path-1-inside-1_5282_33745)"/>
</g>
<defs>
<linearGradient id="paint0_linear_5282_33745" x1="503.033" y1="421.857" x2="47.4466" y2="1739.26" gradientUnits="userSpaceOnUse">
<stop stop-color="#22B148"/>
<stop offset="0.682692" stop-color="#8F4AFF"/>
</linearGradient>
</defs>
</svg>
