<svg width="786" height="691" viewBox="0 0 786 691" fill="none" xmlns="http://www.w3.org/2000/svg">
<g opacity="0.9">
<mask id="path-1-inside-1_5282_33744" fill="white">
<path fill-rule="evenodd" clip-rule="evenodd" d="M113.37 451.672C120.157 461.789 124.941 473.117 127.462 485.041C132.852 464.413 142.784 445.251 156.531 428.959C173.747 409.074 197.665 396.216 223.731 392.835C250.891 389.385 278.623 392.993 304.967 386.612L308.678 385.633C315.211 383.315 312.213 389.91 311.736 390.768L310.996 393.529C304.794 408.741 296.796 423.156 287.174 436.468C271.156 459.092 247.561 475.215 220.68 481.906C205.991 484.924 190.879 485.261 176.072 482.9C168.569 481.149 160.952 479.932 153.276 479.258C145.949 479.021 136.795 481.007 133.797 497.713C132.42 506.785 131.695 515.945 131.626 525.121C131.19 550.651 133.812 576.261 135.714 601.801C150.421 566.878 176.098 537.699 208.854 518.687C243.888 498.753 280.232 481.22 317.635 466.208C335.395 458.924 351.517 448.15 365.047 434.523C376.97 421.35 385.261 405.299 389.104 387.948C391.162 379.32 391.965 370.44 391.488 361.583C391.687 360.98 391.852 360.365 391.982 359.743C391.709 356.084 391.025 352.467 389.943 348.962C383.73 335.678 372.905 325.109 359.483 319.222C346.691 313.166 335.338 304.449 326.18 293.653C318.605 284.126 313.164 273.081 310.224 261.264C307.334 249.503 307.208 237.229 309.855 225.407C311.858 218.403 314.506 211.6 317.764 205.085C320.794 198.375 323.907 191.812 326.968 184.987C330.028 178.162 332.131 181.808 333.033 183.036L334.387 184.878C343.728 194.328 353.724 203.104 364.301 211.143C383.536 225.812 396.893 246.884 401.961 270.555C403.282 282.151 401.987 293.897 398.17 304.928C393.892 315.328 391.899 326.527 392.328 337.764C394.412 343.193 396.045 348.786 397.209 354.485C405.326 333.76 417.078 314.651 431.911 298.062C445.929 281.428 455.504 261.509 459.741 240.168C459.933 239.646 460.077 239.107 460.173 238.558C461.172 234.286 460.678 229.802 458.773 225.853C452.418 216.418 443.903 208.641 433.936 203.168C421.111 195.992 409.517 186.808 399.593 175.963C391.642 166.013 385.915 154.472 382.796 142.116C377.23 113.877 379.812 84.6313 390.239 57.7982C390.306 57.3246 390.43 56.861 390.609 56.4177C392.12 50.7805 395.341 54.8494 395.54 55.026L396.734 56.0858C402.912 61.1767 409.374 65.9134 416.088 70.2731C422.101 74.4616 427.882 78.9743 433.405 83.791C453.679 100.216 468.396 122.502 475.55 147.611C478.489 159.368 478.86 171.622 476.64 183.538C474.832 193.041 471.584 202.405 469.087 211.724C467.868 216.42 467.521 221.301 468.062 226.122C468.211 229.244 468.559 232.544 468.822 235.697C469.513 241.739 469.408 247.846 468.512 253.863C468.111 255.358 467.68 256.969 467.248 258.579C467.266 258.34 467.328 258.105 467.433 257.889C467.433 257.889 471.881 250.943 473.218 248.712C477.598 240.474 480.79 231.656 482.699 222.522C485.103 210.847 488.191 199.322 491.946 188.009C493.056 183.868 495.085 179.972 496.969 176.161C499.644 156.761 503.792 137.592 509.377 118.821C518.43 87.5712 538.773 60.805 566.448 43.7313C580.571 36.1096 595.252 29.5734 610.363 24.179C625.923 19.35 640.669 12.2025 654.104 2.97728L655.685 1.67459C656.506 0.9082 660.166 -2.18002 660.24 5.36114C660.135 5.94846 659.98 6.52577 659.777 7.0868C661.763 32.2651 657.812 57.5614 648.242 80.9374C640.521 99.182 628.231 115.127 612.557 127.232C595.392 138.727 576.022 146.513 555.685 150.094C545.099 152.458 534.704 155.607 524.585 159.517C519.587 161.635 514.973 164.565 510.929 168.188C506.615 172.308 503.511 177.532 501.955 183.293C496.356 201.891 498.417 223.158 488.574 240.126C494.296 236.46 500.395 233.423 506.767 231.068C515.801 227.693 525.827 227.05 534.471 222.831C542.683 217.972 550.283 212.143 557.106 205.469C570.342 193.343 586.215 184.467 603.468 179.544C644.479 169.448 684.186 191.801 722.536 204.05L724.949 204.696C728.282 205.589 726.37 207.667 725.863 208.64C725.759 209.35 725.572 210.045 725.308 210.711C717.384 224.019 706.672 235.452 693.912 244.222C669.814 260.977 640.195 267.791 611.216 263.247C594.397 259.806 578.012 254.506 562.364 247.444C551.536 242.34 539.994 238.915 528.134 237.286L525.721 236.64C518.487 236.177 511.274 237.845 504.974 241.438C502.466 242.985 500.019 244.302 497.625 245.881C483.807 255.593 471.441 267.226 460.901 280.43C459.104 282.538 452.877 290.61 452.016 291.982C447.484 298.783 442.378 305.429 437.532 312.022C425.471 327.683 414.713 344.306 405.368 361.727C414.256 354.986 424.44 350.158 435.28 347.547C442.016 341.445 448.337 334.9 454.201 327.956C462.114 319.187 471.719 312.113 482.437 307.162C493.113 302.523 504.685 300.317 516.315 300.703C530.756 301.616 544.927 305.037 558.194 310.815L579.518 319.488C586.139 322.437 593.261 324.094 600.504 324.371C602.228 324.833 604.229 324.26 604.641 325.48C605.053 326.7 602.789 329.176 602.113 329.858C593.445 340.309 583.535 349.662 572.603 357.709C553.426 372.204 530.141 380.216 506.119 380.585C493.562 380.438 481.171 377.705 469.718 372.557C463.184 369.82 456.919 366.539 450.655 363.257L442.812 359.429L441.088 358.967C439.295 357.878 437.274 357.22 435.184 357.045C433.094 356.87 430.991 357.183 429.041 357.959C423.978 359.897 419.369 362.859 415.501 366.661C408.196 373.427 402.703 381.918 399.523 391.356C398.598 394.808 395.516 406.312 395.146 407.693C394.776 409.073 394.714 409.303 394.498 410.108C385.807 433.302 369.361 452.772 347.956 465.208C324.03 478.232 299.192 489.503 273.639 498.932C281.038 497.832 288.525 497.443 295.998 497.771C312.225 498.731 328.212 502.142 343.418 507.888C368.999 501.292 395.553 499.344 421.817 502.138C435.011 503.946 448.379 504.09 461.61 502.566C470.744 500.933 479.459 497.482 487.239 492.418C489.473 490.876 491.552 489.121 493.447 487.176C498.711 478.946 501.902 469.562 502.746 459.828C504.443 447.712 509.297 436.254 516.82 426.608C523.99 417.948 533.325 411.345 543.873 407.47C554.676 403.556 566.288 402.427 577.639 404.187C590.836 406.878 603.598 411.376 615.566 417.556C616.715 417.864 617.749 418.141 616.382 420.487L616.073 421.638C605.092 444.02 588.049 462.867 566.888 476.029C556.015 481.364 544.101 484.234 531.995 484.435C520.698 483.552 509.355 485.467 498.969 490.012C497.159 491.253 489.7 497.023 488.618 497.843C483.183 501.957 477.259 505.381 470.983 508.037L467.962 509.201C480.057 510.957 492.302 511.469 504.503 510.73C514.389 510.893 524.244 509.586 533.748 506.853C548.458 500.683 562.25 492.418 576.393 485.604C607.282 469.028 642.977 463.765 677.316 470.723C714.321 480.638 744.397 505.836 780.594 517.385L782.203 517.816C788.639 519.54 784.695 522.306 783.353 523.179L782.332 523.769C764.624 535.01 746.084 544.882 726.876 553.299C710.231 560.32 692.475 564.329 674.434 565.141C656.151 565.634 638.021 561.706 621.582 553.692C604.005 545.283 588.003 534.214 569.918 526.779C555.619 520.861 540.324 517.725 524.85 517.539C520.06 517.488 503.281 518.048 500.078 518.053C483.134 519.957 466.01 519.518 449.188 516.747L447.235 516.224C442.248 515.027 437.156 514.324 432.032 514.123C426.384 513.596 420.812 513.706 415.164 513.179C396.405 511.099 377.448 511.621 358.828 514.73C366.215 518.302 373.357 522.357 380.21 526.871C392.403 535.632 403.994 545.205 414.902 555.525C421.765 561.895 429.238 567.573 437.212 572.477L439.471 573.699C444.103 575.945 448.972 577.663 453.987 578.822C466.654 580.736 478.1 572.952 488.832 566.457C498.744 561.1 509.661 557.869 520.887 556.971C532.113 556.073 543.402 557.527 554.033 561.24C575.186 568.7 593.053 583.348 604.526 602.636L605.819 604.708C605.819 604.708 607.868 608.093 603.882 608.259L602.618 607.92C591.241 609.739 580.157 613.072 569.662 617.831C549.456 624.748 529.021 631.602 507.418 623.964C496.651 620.101 486.871 613.902 478.78 605.81C472.329 598.863 465.024 592.763 457.04 587.655C449.167 583.166 440.628 579.963 431.746 578.164C445.153 592.484 458.675 606.835 471.791 621.323C483.182 632.967 492.044 646.844 497.82 662.083C502.55 676.18 503.886 691.198 501.719 705.914C498.937 721.921 492.516 737.076 482.953 750.207C472.58 763.27 464.678 778.118 459.635 794.021C459.43 794.539 459.285 795.079 459.203 795.631C458.433 798.507 455.787 799.648 453.931 795.082L453.098 793.132C444.261 777.79 433.709 763.503 421.645 750.549C411.733 737.988 404.245 723.689 399.564 708.381C395.334 693.724 394.375 678.313 396.756 663.24C400.193 646.398 406.71 630.336 415.979 615.863C422.848 604.017 430.959 587.078 421.535 574.442C414.588 567.493 407.123 561.083 399.206 555.265C398.846 554.94 398.575 554.528 398.419 554.068L395.372 551.649C384.683 542.384 373.002 534.334 360.542 527.643C340.109 517.248 317.643 511.472 294.73 510.723C271.817 509.974 249.016 514.27 227.939 523.308C216.864 528.188 206.38 534.314 196.688 541.568L194.961 542.955C176.856 556.296 161.675 573.211 150.359 592.655C161.474 581.756 176.37 575.584 191.925 575.433C197.534 575.378 203.127 574.813 208.636 573.745C213.326 572.587 217.889 570.959 222.254 568.887C239.587 561.201 255.23 551.089 274.774 550.777C320.332 549.914 352.935 587.75 390.999 606.58L392.148 606.888C393.757 607.319 394.859 608.724 391.851 610.754L390.915 611.49C377.621 621.065 363.114 628.829 347.777 634.579C332.761 639.557 316.816 641.069 301.137 639.003C285.458 636.937 270.451 631.347 257.24 622.65C243.856 613.762 232.952 601.593 218.861 593.501C209.71 587.906 198.962 585.503 188.298 586.668C183.408 587.612 178.651 589.153 174.136 591.258C164.509 596.019 156.197 603.072 149.929 611.798C143.66 620.524 139.628 630.656 138.185 641.304L137.614 649.413C136.85 673.869 131.341 699.026 108.397 712.484C107.974 712.685 107.5 712.751 107.039 712.671C106.577 712.591 106.152 712.37 105.822 712.038C105.492 711.706 105.273 711.279 105.196 710.817C105.118 710.355 105.186 709.88 105.389 709.458C105.728 708.193 107.018 707.059 107.962 705.832C113.717 694.534 117.673 682.406 119.688 669.887C122.139 650.873 117.629 631.618 106.991 615.683C102.89 607.858 97.9121 600.526 92.1538 593.829C88.2665 590.473 83.7013 587.997 78.7698 586.569C73.8382 585.142 68.6563 584.796 63.5778 585.555C54.0814 587.137 44.5053 588.194 34.8932 588.72C2.6553 589.104 -28.8288 578.993 -54.8167 559.909C-80.8046 540.825 -99.8889 513.802 -109.195 482.911C-109.344 482.529 -109.444 482.129 -109.492 481.722C-110.179 479.688 -109.748 478.077 -106.852 479.223L-105.818 479.5C-87.5607 485.809 -68.5454 489.66 -49.2716 490.953C-16.9628 493.24 14.412 502.785 42.5219 518.878C60.4885 529.914 74.6519 546.186 83.113 565.512C83.6506 566.673 84.1122 567.868 84.495 569.089C85.7437 573.64 88.2196 577.758 91.6514 580.994L94.3536 583.321C99.9211 588.344 105.042 593.841 109.658 599.752C115.081 606.281 119.607 613.506 123.116 621.237C122.981 613.926 122.586 606.668 122.19 599.411L119.861 556.617C116.928 521.566 103.207 488.295 80.5907 461.385C73.4594 451.698 63.5615 444.402 52.2018 440.461C29.2178 434.303 5.56473 445.351 -16.1014 449.903C-39.0458 455.282 -62.879 455.626 -85.9635 450.912C-110.783 443.719 -134.347 432.747 -155.83 418.381L-157.094 418.042C-159.813 416.697 -158.454 414.842 -156.428 412.796C-156.253 412.177 -155.891 411.627 -155.391 411.224C-141.482 398.021 -125.692 386.959 -108.536 378.403C-92.6558 370.685 -75.3053 366.473 -57.6604 366.053C-40.0155 365.632 -22.4885 369.013 -6.26707 375.966C10.5692 383.645 25.7225 394.577 38.323 408.136C48.0272 417.888 56.2822 427.991 65.3809 437.704L69.0641 440.047C89.4537 453.648 105.682 472.635 115.951 494.904C110.088 474.892 101.226 455.888 89.6681 438.54C84.2313 429.25 79.2698 419.69 74.8028 409.896C73.4657 407.071 67.8144 393.227 66.8753 390.756C65.9362 388.285 65.7988 387.878 65.3026 386.512C63.4119 382.787 61.0777 379.305 58.3509 376.141C51.5851 369.068 43.5591 363.321 34.6852 359.196C26.8482 355.592 19.3405 351.312 12.2473 346.402C6.06434 341.704 0.632431 336.091 -3.86174 329.755C-13.079 317.187 -18.8469 302.421 -20.5916 286.925C-24.9321 257.155 -20.4155 224.211 -37.153 197.038L-37.5426 196.194C-38.207 194.536 -41.6183 189.799 -36.1863 191.132L-34.8072 191.501C-4.79683 198.278 22.9894 212.598 45.9295 233.11C64.8973 248.74 78.0759 270.289 83.3569 294.309C85.1833 307.247 84.01 320.434 79.9282 332.848C73.88 345.902 70.3961 359.996 69.6661 374.364C72.5471 393.815 81.2077 411.946 94.5221 426.4C93.1045 414.71 94.1426 402.85 97.5698 391.582C98.2171 389.166 98.8337 386.865 99.5118 384.334C100.422 369.009 100.009 353.634 98.2762 338.381C97.8387 322.04 102.911 306.026 112.675 292.918C122.52 280.514 135.214 270.674 149.675 264.237C164.359 257.841 179.771 253.275 195.566 250.64C211.392 248.601 226.876 244.456 241.608 238.316L242.889 237.673C247.982 235.215 247.486 238.905 247.032 240.14C246.578 241.374 246.785 241.06 246.631 241.635C238.824 262.877 229.727 283.623 219.393 303.757C212.257 319.994 200.845 333.985 186.377 344.232C171.617 352.23 155.911 358.337 139.629 362.408C131.102 364.523 122.992 368.061 115.639 372.873C111.94 376.379 109.071 380.668 107.242 385.426C105.413 390.184 104.67 395.291 105.068 400.373C104.294 417.933 107.098 435.465 113.308 451.902L113.37 451.672Z"/>
</mask>
<path fill-rule="evenodd" clip-rule="evenodd" d="M113.37 451.672C120.157 461.789 124.941 473.117 127.462 485.041C132.852 464.413 142.784 445.251 156.531 428.959C173.747 409.074 197.665 396.216 223.731 392.835C250.891 389.385 278.623 392.993 304.967 386.612L308.678 385.633C315.211 383.315 312.213 389.91 311.736 390.768L310.996 393.529C304.794 408.741 296.796 423.156 287.174 436.468C271.156 459.092 247.561 475.215 220.68 481.906C205.991 484.924 190.879 485.261 176.072 482.9C168.569 481.149 160.952 479.932 153.276 479.258C145.949 479.021 136.795 481.007 133.797 497.713C132.42 506.785 131.695 515.945 131.626 525.121C131.19 550.651 133.812 576.261 135.714 601.801C150.421 566.878 176.098 537.699 208.854 518.687C243.888 498.753 280.232 481.22 317.635 466.208C335.395 458.924 351.517 448.15 365.047 434.523C376.97 421.35 385.261 405.299 389.104 387.948C391.162 379.32 391.965 370.44 391.488 361.583C391.687 360.98 391.852 360.365 391.982 359.743C391.709 356.084 391.025 352.467 389.943 348.962C383.73 335.678 372.905 325.109 359.483 319.222C346.691 313.166 335.338 304.449 326.18 293.653C318.605 284.126 313.164 273.081 310.224 261.264C307.334 249.503 307.208 237.229 309.855 225.407C311.858 218.403 314.506 211.6 317.764 205.085C320.794 198.375 323.907 191.812 326.968 184.987C330.028 178.162 332.131 181.808 333.033 183.036L334.387 184.878C343.728 194.328 353.724 203.104 364.301 211.143C383.536 225.812 396.893 246.884 401.961 270.555C403.282 282.151 401.987 293.897 398.17 304.928C393.892 315.328 391.899 326.527 392.328 337.764C394.412 343.193 396.045 348.786 397.209 354.485C405.326 333.76 417.078 314.651 431.911 298.062C445.929 281.428 455.504 261.509 459.741 240.168C459.933 239.646 460.077 239.107 460.173 238.558C461.172 234.286 460.678 229.802 458.773 225.853C452.418 216.418 443.903 208.641 433.936 203.168C421.111 195.992 409.517 186.808 399.593 175.963C391.642 166.013 385.915 154.472 382.796 142.116C377.23 113.877 379.812 84.6313 390.239 57.7982C390.306 57.3246 390.43 56.861 390.609 56.4177C392.12 50.7805 395.341 54.8494 395.54 55.026L396.734 56.0858C402.912 61.1767 409.374 65.9134 416.088 70.2731C422.101 74.4616 427.882 78.9743 433.405 83.791C453.679 100.216 468.396 122.502 475.55 147.611C478.489 159.368 478.86 171.622 476.64 183.538C474.832 193.041 471.584 202.405 469.087 211.724C467.868 216.42 467.521 221.301 468.062 226.122C468.211 229.244 468.559 232.544 468.822 235.697C469.513 241.739 469.408 247.846 468.512 253.863C468.111 255.358 467.68 256.969 467.248 258.579C467.266 258.34 467.328 258.105 467.433 257.889C467.433 257.889 471.881 250.943 473.218 248.712C477.598 240.474 480.79 231.656 482.699 222.522C485.103 210.847 488.191 199.322 491.946 188.009C493.056 183.868 495.085 179.972 496.969 176.161C499.644 156.761 503.792 137.592 509.377 118.821C518.43 87.5712 538.773 60.805 566.448 43.7313C580.571 36.1096 595.252 29.5734 610.363 24.179C625.923 19.35 640.669 12.2025 654.104 2.97728L655.685 1.67459C656.506 0.9082 660.166 -2.18002 660.24 5.36114C660.135 5.94846 659.98 6.52577 659.777 7.0868C661.763 32.2651 657.812 57.5614 648.242 80.9374C640.521 99.182 628.231 115.127 612.557 127.232C595.392 138.727 576.022 146.513 555.685 150.094C545.099 152.458 534.704 155.607 524.585 159.517C519.587 161.635 514.973 164.565 510.929 168.188C506.615 172.308 503.511 177.532 501.955 183.293C496.356 201.891 498.417 223.158 488.574 240.126C494.296 236.46 500.395 233.423 506.767 231.068C515.801 227.693 525.827 227.05 534.471 222.831C542.683 217.972 550.283 212.143 557.106 205.469C570.342 193.343 586.215 184.467 603.468 179.544C644.479 169.448 684.186 191.801 722.536 204.05L724.949 204.696C728.282 205.589 726.37 207.667 725.863 208.64C725.759 209.35 725.572 210.045 725.308 210.711C717.384 224.019 706.672 235.452 693.912 244.222C669.814 260.977 640.195 267.791 611.216 263.247C594.397 259.806 578.012 254.506 562.364 247.444C551.536 242.34 539.994 238.915 528.134 237.286L525.721 236.64C518.487 236.177 511.274 237.845 504.974 241.438C502.466 242.985 500.019 244.302 497.625 245.881C483.807 255.593 471.441 267.226 460.901 280.43C459.104 282.538 452.877 290.61 452.016 291.982C447.484 298.783 442.378 305.429 437.532 312.022C425.471 327.683 414.713 344.306 405.368 361.727C414.256 354.986 424.44 350.158 435.28 347.547C442.016 341.445 448.337 334.9 454.201 327.956C462.114 319.187 471.719 312.113 482.437 307.162C493.113 302.523 504.685 300.317 516.315 300.703C530.756 301.616 544.927 305.037 558.194 310.815L579.518 319.488C586.139 322.437 593.261 324.094 600.504 324.371C602.228 324.833 604.229 324.26 604.641 325.48C605.053 326.7 602.789 329.176 602.113 329.858C593.445 340.309 583.535 349.662 572.603 357.709C553.426 372.204 530.141 380.216 506.119 380.585C493.562 380.438 481.171 377.705 469.718 372.557C463.184 369.82 456.919 366.539 450.655 363.257L442.812 359.429L441.088 358.967C439.295 357.878 437.274 357.22 435.184 357.045C433.094 356.87 430.991 357.183 429.041 357.959C423.978 359.897 419.369 362.859 415.501 366.661C408.196 373.427 402.703 381.918 399.523 391.356C398.598 394.808 395.516 406.312 395.146 407.693C394.776 409.073 394.714 409.303 394.498 410.108C385.807 433.302 369.361 452.772 347.956 465.208C324.03 478.232 299.192 489.503 273.639 498.932C281.038 497.832 288.525 497.443 295.998 497.771C312.225 498.731 328.212 502.142 343.418 507.888C368.999 501.292 395.553 499.344 421.817 502.138C435.011 503.946 448.379 504.09 461.61 502.566C470.744 500.933 479.459 497.482 487.239 492.418C489.473 490.876 491.552 489.121 493.447 487.176C498.711 478.946 501.902 469.562 502.746 459.828C504.443 447.712 509.297 436.254 516.82 426.608C523.99 417.948 533.325 411.345 543.873 407.47C554.676 403.556 566.288 402.427 577.639 404.187C590.836 406.878 603.598 411.376 615.566 417.556C616.715 417.864 617.749 418.141 616.382 420.487L616.073 421.638C605.092 444.02 588.049 462.867 566.888 476.029C556.015 481.364 544.101 484.234 531.995 484.435C520.698 483.552 509.355 485.467 498.969 490.012C497.159 491.253 489.7 497.023 488.618 497.843C483.183 501.957 477.259 505.381 470.983 508.037L467.962 509.201C480.057 510.957 492.302 511.469 504.503 510.73C514.389 510.893 524.244 509.586 533.748 506.853C548.458 500.683 562.25 492.418 576.393 485.604C607.282 469.028 642.977 463.765 677.316 470.723C714.321 480.638 744.397 505.836 780.594 517.385L782.203 517.816C788.639 519.54 784.695 522.306 783.353 523.179L782.332 523.769C764.624 535.01 746.084 544.882 726.876 553.299C710.231 560.32 692.475 564.329 674.434 565.141C656.151 565.634 638.021 561.706 621.582 553.692C604.005 545.283 588.003 534.214 569.918 526.779C555.619 520.861 540.324 517.725 524.85 517.539C520.06 517.488 503.281 518.048 500.078 518.053C483.134 519.957 466.01 519.518 449.188 516.747L447.235 516.224C442.248 515.027 437.156 514.324 432.032 514.123C426.384 513.596 420.812 513.706 415.164 513.179C396.405 511.099 377.448 511.621 358.828 514.73C366.215 518.302 373.357 522.357 380.21 526.871C392.403 535.632 403.994 545.205 414.902 555.525C421.765 561.895 429.238 567.573 437.212 572.477L439.471 573.699C444.103 575.945 448.972 577.663 453.987 578.822C466.654 580.736 478.1 572.952 488.832 566.457C498.744 561.1 509.661 557.869 520.887 556.971C532.113 556.073 543.402 557.527 554.033 561.24C575.186 568.7 593.053 583.348 604.526 602.636L605.819 604.708C605.819 604.708 607.868 608.093 603.882 608.259L602.618 607.92C591.241 609.739 580.157 613.072 569.662 617.831C549.456 624.748 529.021 631.602 507.418 623.964C496.651 620.101 486.871 613.902 478.78 605.81C472.329 598.863 465.024 592.763 457.04 587.655C449.167 583.166 440.628 579.963 431.746 578.164C445.153 592.484 458.675 606.835 471.791 621.323C483.182 632.967 492.044 646.844 497.82 662.083C502.55 676.18 503.886 691.198 501.719 705.914C498.937 721.921 492.516 737.076 482.953 750.207C472.58 763.27 464.678 778.118 459.635 794.021C459.43 794.539 459.285 795.079 459.203 795.631C458.433 798.507 455.787 799.648 453.931 795.082L453.098 793.132C444.261 777.79 433.709 763.503 421.645 750.549C411.733 737.988 404.245 723.689 399.564 708.381C395.334 693.724 394.375 678.313 396.756 663.24C400.193 646.398 406.71 630.336 415.979 615.863C422.848 604.017 430.959 587.078 421.535 574.442C414.588 567.493 407.123 561.083 399.206 555.265C398.846 554.94 398.575 554.528 398.419 554.068L395.372 551.649C384.683 542.384 373.002 534.334 360.542 527.643C340.109 517.248 317.643 511.472 294.73 510.723C271.817 509.974 249.016 514.27 227.939 523.308C216.864 528.188 206.38 534.314 196.688 541.568L194.961 542.955C176.856 556.296 161.675 573.211 150.359 592.655C161.474 581.756 176.37 575.584 191.925 575.433C197.534 575.378 203.127 574.813 208.636 573.745C213.326 572.587 217.889 570.959 222.254 568.887C239.587 561.201 255.23 551.089 274.774 550.777C320.332 549.914 352.935 587.75 390.999 606.58L392.148 606.888C393.757 607.319 394.859 608.724 391.851 610.754L390.915 611.49C377.621 621.065 363.114 628.829 347.777 634.579C332.761 639.557 316.816 641.069 301.137 639.003C285.458 636.937 270.451 631.347 257.24 622.65C243.856 613.762 232.952 601.593 218.861 593.501C209.71 587.906 198.962 585.503 188.298 586.668C183.408 587.612 178.651 589.153 174.136 591.258C164.509 596.019 156.197 603.072 149.929 611.798C143.66 620.524 139.628 630.656 138.185 641.304L137.614 649.413C136.85 673.869 131.341 699.026 108.397 712.484C107.974 712.685 107.5 712.751 107.039 712.671C106.577 712.591 106.152 712.37 105.822 712.038C105.492 711.706 105.273 711.279 105.196 710.817C105.118 710.355 105.186 709.88 105.389 709.458C105.728 708.193 107.018 707.059 107.962 705.832C113.717 694.534 117.673 682.406 119.688 669.887C122.139 650.873 117.629 631.618 106.991 615.683C102.89 607.858 97.9121 600.526 92.1538 593.829C88.2665 590.473 83.7013 587.997 78.7698 586.569C73.8382 585.142 68.6563 584.796 63.5778 585.555C54.0814 587.137 44.5053 588.194 34.8932 588.72C2.6553 589.104 -28.8288 578.993 -54.8167 559.909C-80.8046 540.825 -99.8889 513.802 -109.195 482.911C-109.344 482.529 -109.444 482.129 -109.492 481.722C-110.179 479.688 -109.748 478.077 -106.852 479.223L-105.818 479.5C-87.5607 485.809 -68.5454 489.66 -49.2716 490.953C-16.9628 493.24 14.412 502.785 42.5219 518.878C60.4885 529.914 74.6519 546.186 83.113 565.512C83.6506 566.673 84.1122 567.868 84.495 569.089C85.7437 573.64 88.2196 577.758 91.6514 580.994L94.3536 583.321C99.9211 588.344 105.042 593.841 109.658 599.752C115.081 606.281 119.607 613.506 123.116 621.237C122.981 613.926 122.586 606.668 122.19 599.411L119.861 556.617C116.928 521.566 103.207 488.295 80.5907 461.385C73.4594 451.698 63.5615 444.402 52.2018 440.461C29.2178 434.303 5.56473 445.351 -16.1014 449.903C-39.0458 455.282 -62.879 455.626 -85.9635 450.912C-110.783 443.719 -134.347 432.747 -155.83 418.381L-157.094 418.042C-159.813 416.697 -158.454 414.842 -156.428 412.796C-156.253 412.177 -155.891 411.627 -155.391 411.224C-141.482 398.021 -125.692 386.959 -108.536 378.403C-92.6558 370.685 -75.3053 366.473 -57.6604 366.053C-40.0155 365.632 -22.4885 369.013 -6.26707 375.966C10.5692 383.645 25.7225 394.577 38.323 408.136C48.0272 417.888 56.2822 427.991 65.3809 437.704L69.0641 440.047C89.4537 453.648 105.682 472.635 115.951 494.904C110.088 474.892 101.226 455.888 89.6681 438.54C84.2313 429.25 79.2698 419.69 74.8028 409.896C73.4657 407.071 67.8144 393.227 66.8753 390.756C65.9362 388.285 65.7988 387.878 65.3026 386.512C63.4119 382.787 61.0777 379.305 58.3509 376.141C51.5851 369.068 43.5591 363.321 34.6852 359.196C26.8482 355.592 19.3405 351.312 12.2473 346.402C6.06434 341.704 0.632431 336.091 -3.86174 329.755C-13.079 317.187 -18.8469 302.421 -20.5916 286.925C-24.9321 257.155 -20.4155 224.211 -37.153 197.038L-37.5426 196.194C-38.207 194.536 -41.6183 189.799 -36.1863 191.132L-34.8072 191.501C-4.79683 198.278 22.9894 212.598 45.9295 233.11C64.8973 248.74 78.0759 270.289 83.3569 294.309C85.1833 307.247 84.01 320.434 79.9282 332.848C73.88 345.902 70.3961 359.996 69.6661 374.364C72.5471 393.815 81.2077 411.946 94.5221 426.4C93.1045 414.71 94.1426 402.85 97.5698 391.582C98.2171 389.166 98.8337 386.865 99.5118 384.334C100.422 369.009 100.009 353.634 98.2762 338.381C97.8387 322.04 102.911 306.026 112.675 292.918C122.52 280.514 135.214 270.674 149.675 264.237C164.359 257.841 179.771 253.275 195.566 250.64C211.392 248.601 226.876 244.456 241.608 238.316L242.889 237.673C247.982 235.215 247.486 238.905 247.032 240.14C246.578 241.374 246.785 241.06 246.631 241.635C238.824 262.877 229.727 283.623 219.393 303.757C212.257 319.994 200.845 333.985 186.377 344.232C171.617 352.23 155.911 358.337 139.629 362.408C131.102 364.523 122.992 368.061 115.639 372.873C111.94 376.379 109.071 380.668 107.242 385.426C105.413 390.184 104.67 395.291 105.068 400.373C104.294 417.933 107.098 435.465 113.308 451.902L113.37 451.672Z" stroke="url(#paint0_linear_5282_33744)" stroke-width="2" mask="url(#path-1-inside-1_5282_33744)"/>
</g>
<defs>
<linearGradient id="paint0_linear_5282_33744" x1="181.071" y1="285.507" x2="-126.837" y2="1175.87" gradientUnits="userSpaceOnUse">
<stop stop-color="#22B148"/>
<stop offset="0.682692" stop-color="#8F4AFF"/>
</linearGradient>
</defs>
</svg>
