<svg width="569" height="626" viewBox="0 0 569 626" fill="none" xmlns="http://www.w3.org/2000/svg">
<g opacity="0.9">
<mask id="path-1-inside-1_5282_33748" fill="white">
<path fill-rule="evenodd" clip-rule="evenodd" d="M303.469 11.7456C292.785 12.4657 282.06 11.1287 271.875 7.80732C285.209 20.9762 295.43 36.9582 301.791 54.5823C309.361 76.4272 308.636 100.284 299.755 121.612C290.445 143.803 275.51 163.327 268.79 186.185L267.904 189.44C266.797 195.432 263.095 190.251 262.651 189.511L260.874 187.734C252.021 176.327 244.563 163.904 238.659 150.73C228.477 128.593 226.573 103.547 233.294 80.1444C237.452 67.636 243.837 55.9844 252.142 45.7513C256.772 40.8094 261.046 35.5456 264.933 29.9993C268.333 24.5262 270.844 16.685 259.445 7.06078C253.144 2.02547 246.49 -2.55227 239.536 -6.63725C220.293 -18.1893 199.646 -27.4486 179.369 -37.2256C199.49 -10.6825 210.416 21.687 210.493 54.9771C210.27 90.4065 207.644 125.777 202.633 160.846C200.372 177.566 201.488 194.574 205.915 210.862C210.702 225.727 219.277 239.093 230.795 249.644C236.459 255.002 242.866 259.516 249.817 263.046C250.189 263.462 250.585 263.858 251.001 264.23C253.906 265.631 256.96 266.699 260.103 267.416C272.946 268.525 285.749 264.93 296.129 257.3C306.361 250.225 317.986 245.413 330.228 243.187C340.809 241.607 351.609 242.32 361.895 245.275C372.119 248.244 381.517 253.542 389.352 260.753C393.804 265.356 397.819 270.361 401.346 275.705C405.122 280.96 408.75 286.215 412.6 291.544C416.45 296.873 412.751 296.871 411.42 297.018L409.422 297.239C398.124 300.196 387.05 303.948 376.283 308.467C356.663 316.662 334.752 317.569 314.506 311.023C305.099 306.933 296.727 300.784 290.007 293.031C283.971 285.204 276.322 278.765 267.579 274.153C262.531 273.353 257.556 272.138 252.706 270.52C264.915 285.807 274.296 303.151 280.404 321.733C286.906 339.714 297.861 355.757 312.243 368.361C312.557 368.736 312.904 369.083 313.28 369.397C316.092 372.035 319.723 373.63 323.566 373.916C333.541 373.224 343.203 370.16 351.75 364.979C362.849 358.37 374.935 353.581 387.551 350.793C398.62 349.113 409.923 349.826 420.698 352.882C444.64 361.055 465.768 375.874 481.611 395.604C481.942 395.863 482.241 396.161 482.499 396.493C486.126 400.12 481.614 400.783 481.392 400.857L480.06 401.3C473.469 403.766 467.024 406.604 460.755 409.798C454.924 412.535 448.948 414.952 442.854 417.039C421.441 425.254 398.009 426.662 375.751 421.073C365.51 418.143 356.019 413.04 347.925 406.112C341.485 400.56 335.784 393.972 329.788 387.976C326.749 384.984 323.187 382.575 319.279 380.868C316.836 379.609 314.172 378.424 311.656 377.239C306.753 375.109 302.15 372.345 297.964 369.019C297.002 368.056 295.966 367.02 294.929 365.984C295.104 366.103 295.255 366.253 295.374 366.428C295.374 366.428 298.706 372.866 299.817 374.865C304.163 381.82 309.472 388.125 315.586 393.591C323.417 400.553 330.833 407.968 337.794 415.799C340.459 418.464 342.532 421.72 344.605 424.829C358.198 435.392 370.966 446.974 382.801 459.475C402.609 480.1 414.043 507.349 414.877 535.919C414.472 550.019 412.996 564.067 410.461 577.941C407.298 591.907 406.258 606.273 407.376 620.554L407.673 622.33C407.896 623.292 408.638 627.436 402.865 624.177C402.464 623.839 402.093 623.468 401.755 623.067C381.716 613.513 364.197 599.388 350.609 581.83C340.114 567.934 333.377 551.571 331.051 534.32C329.845 516.202 332.431 498.035 338.643 480.981C341.496 471.884 343.667 462.587 345.138 453.166C345.722 448.431 345.52 443.631 344.539 438.96C343.299 433.866 340.686 429.207 336.985 425.491C325.289 413.055 308.194 405.277 299.604 390.328C299.88 396.294 299.511 402.272 298.503 408.157C297.102 416.517 293.185 424.431 292.598 432.865C292.687 441.252 293.785 449.599 295.867 457.726C299.28 473.13 299.061 489.114 295.226 504.411C284.887 540.066 250.421 560.468 224.243 584.277L222.69 585.83C220.545 587.974 219.804 585.606 219.286 584.792C218.792 584.401 218.345 583.954 217.953 583.46C211.306 571.579 207.31 558.401 206.243 544.833C204.08 519.126 211.91 493.584 228.104 473.523C238.115 462.232 249.351 452.089 261.603 443.281C270.248 437.281 277.928 430.001 284.379 421.689L285.932 420.136C289.463 414.833 291.363 408.609 291.398 402.235C291.322 399.645 291.395 397.204 291.246 394.688C289.926 379.901 286.505 365.375 281.086 351.549C280.271 349.255 276.864 340.967 276.197 339.709C273.012 333.27 270.197 326.462 267.308 319.876C260.688 303.812 252.761 288.318 243.608 273.548C244.833 283.276 244.032 293.15 241.256 302.549C242.94 310.358 245.144 318.046 247.853 325.562C251.051 335.439 252.214 345.86 251.273 356.194C250.111 366.36 246.705 376.138 241.3 384.821C234.259 395.413 225.426 404.696 215.198 412.256L199.224 424.677C194.069 428.421 189.678 433.114 186.284 438.505C185.174 439.614 184.731 441.39 183.622 441.167C182.512 440.945 181.622 438.133 181.4 437.319C177.254 426.128 174.49 414.473 173.169 402.615C170.563 381.647 174.698 360.401 184.974 341.953C190.604 332.459 198.13 324.228 207.083 317.772C212.038 314.001 217.289 310.675 222.54 307.348L228.9 303.061L230.01 301.951C231.627 301.065 233.016 299.816 234.068 298.302C235.119 296.787 235.805 295.049 236.072 293.224C236.822 288.519 236.593 283.708 235.398 279.093C233.458 270.559 229.409 262.645 223.622 256.077C221.401 253.856 213.999 246.454 213.111 245.565C212.222 244.677 212.074 244.529 211.556 244.011C197.72 227.202 190.127 206.126 190.068 184.367C190.669 160.43 193.006 136.57 197.058 112.975C194.644 119.09 191.649 124.96 188.116 130.504C180.253 142.435 170.631 153.106 159.574 162.155C153.353 184.527 143.165 205.596 129.496 224.36C122.321 233.609 116.336 243.722 111.681 254.463C108.91 262.134 107.707 270.285 108.143 278.432C108.335 280.811 108.757 283.165 109.404 285.462C113.356 293.086 119.097 299.639 126.135 304.559C134.613 311.176 141.201 319.906 145.237 329.872C148.678 339.136 149.603 349.144 147.916 358.876C146.148 368.82 141.904 378.155 135.575 386.022C127.727 394.885 118.694 402.623 108.731 409.017C107.991 409.757 107.326 410.422 106.141 408.35L105.401 407.61C93.189 389.413 86.3328 368.157 85.6137 346.265C86.3309 335.643 89.3821 325.313 94.5497 316.01C100.187 307.798 103.714 298.322 104.819 288.419C104.67 286.495 103.556 278.282 103.407 277.098C102.664 271.152 102.661 265.138 103.397 259.194L103.84 256.382C97.187 264.818 91.4157 273.913 86.6158 283.526C82.1476 290.98 78.8109 299.056 76.7146 307.492C74.9464 321.4 75.1759 335.531 74.1475 349.292C73.1902 380.09 61.5091 409.574 41.1209 432.656C17.3103 456.467 -15.089 468.287 -39.788 490.765L-40.8233 491.801C-44.9642 495.942 -45.3365 491.724 -45.4112 490.318L-45.4118 489.283C-46.1855 470.862 -45.5523 452.411 -43.5178 434.09C-41.5469 418.335 -36.7956 403.057 -29.4848 388.967C-21.8247 374.833 -10.8674 362.758 2.45802 353.767C16.584 344.082 32.043 336.766 45.6507 326.267C56.439 317.984 65.5483 307.719 72.4912 296.022C74.6348 292.398 81.5825 279.38 82.9869 276.939C88.9835 263.204 96.8436 250.362 106.346 238.775L107.603 237.518C110.705 234.248 113.479 230.681 115.884 226.869C118.767 222.801 121.132 218.511 124.015 214.443C133.843 201.078 141.777 186.418 147.593 170.879C141.628 174.932 135.402 178.586 128.955 181.818C116.927 187.25 104.545 191.866 91.8954 195.634C84.031 198.059 76.4249 201.251 69.187 205.166L67.264 206.349C63.5187 208.887 60.0707 211.839 56.9848 215.147C49.9609 223.948 50.8552 236.082 51.0831 247.106C50.8049 257.005 48.4662 266.735 44.2162 275.675C39.9663 284.616 33.8985 292.57 26.3998 299.03C11.4242 311.854 -7.57845 319.017 -27.3027 319.274L-29.4483 319.346C-29.4483 319.346 -32.9255 319.418 -31.2995 316.312L-30.4862 315.499C-26.8708 306.039 -24.5371 296.137 -23.5473 286.056C-19.932 267.636 -16.1687 249.067 -0.860713 235.98C6.8122 229.481 15.8294 224.761 25.5447 222.159C33.6681 220.302 41.5222 217.422 48.9195 213.589C55.7963 209.568 61.9875 204.477 67.2599 198.506C50.4672 202.418 33.6006 206.404 16.8078 210.021C2.93774 213.574 -11.5204 214.222 -25.6589 211.921C-38.4686 209.326 -50.4874 203.743 -60.7367 195.626C-71.6987 186.473 -80.4129 174.925 -86.206 161.875C-91.5907 148.238 -99.4203 135.697 -109.309 124.869C-109.614 124.485 -109.962 124.138 -110.346 123.833C-112.196 121.982 -111.902 119.467 -107.61 120.061L-105.761 120.284C-90.1976 120.3 -74.6851 118.546 -59.5223 115.056C-45.6046 113.031 -31.4288 113.616 -17.7196 116.78C-4.70279 120.002 7.44964 126.045 17.877 134.482C29.1865 144.5 38.549 156.519 45.4927 169.936C51.4911 180.371 60.8206 193.989 74.5811 192.369C82.9237 190.135 91.0839 187.27 98.9917 183.8C99.3977 183.669 99.8306 183.644 100.249 183.727L103.43 182.471C115.18 178.405 126.442 173.052 137.011 166.508C153.904 155.523 168.174 140.96 178.814 123.847C189.454 106.735 196.204 87.4906 198.588 67.4743C199.74 56.899 199.684 46.2257 198.423 35.6604L198.126 33.7366C195.927 14.0913 189.723 -4.89849 179.895 -22.0583C183.307 -8.80743 181.458 5.24398 174.737 17.1513C172.314 21.4456 170.286 25.9514 168.678 30.6134C167.498 34.6932 166.732 38.8817 166.391 43.1157C164.624 59.6875 165.447 76.0387 157.094 91.0533C137.729 126.112 94.5999 134.301 63.5371 155L62.7976 155.74C61.7624 156.775 60.2089 156.996 59.9852 153.815L59.8366 152.779C58.3908 138.451 58.8558 123.996 61.2193 109.794C64.0299 96.1762 69.8862 83.3741 78.3495 72.3469C86.8129 61.3196 97.6638 52.353 110.09 46.1188C122.738 39.8369 136.793 36.885 149.145 29.715C157.426 25.2076 163.979 18.0826 167.778 9.45301C169.21 5.31549 170.127 1.01732 170.509 -3.34498C171.116 -12.7648 169.4 -22.1921 165.513 -30.7986C161.625 -39.4052 155.685 -46.9276 148.213 -52.7053L142.292 -56.7038C124.011 -68.0334 107.282 -83.2834 107.122 -106.663C107.154 -107.073 107.313 -107.463 107.576 -107.779C107.84 -108.095 108.195 -108.322 108.593 -108.427C108.991 -108.532 109.412 -108.512 109.797 -108.368C110.183 -108.223 110.515 -107.963 110.747 -107.623C111.561 -106.808 111.858 -105.329 112.376 -104.071C118.447 -94.7245 125.941 -86.3829 134.585 -79.3475C147.981 -69.1252 164.621 -64.0963 181.426 -65.1911C189.185 -64.8736 196.953 -65.4404 204.582 -66.8803C208.845 -68.3647 212.736 -70.7516 215.99 -73.878C219.244 -77.0045 221.785 -80.797 223.439 -84.9966C226.408 -92.9207 229.812 -100.674 233.636 -108.223C247.512 -132.931 269.046 -152.454 294.994 -163.849C320.942 -175.244 349.899 -177.895 377.504 -171.403C377.861 -171.348 378.209 -171.248 378.54 -171.106C380.39 -170.735 381.426 -169.699 379.282 -167.999L378.616 -167.333C365.79 -156.208 354.502 -143.426 345.047 -129.323C329.107 -105.734 308.052 -86.0458 283.448 -71.7209C267.151 -62.8947 248.54 -59.2646 230.11 -61.3176C228.99 -61.4185 227.878 -61.5921 226.781 -61.8373C222.768 -62.8869 218.544 -62.8124 214.573 -61.6219L211.614 -60.5877C205.344 -58.5571 198.908 -57.0752 192.38 -56.1589C185.027 -54.9002 177.538 -54.6306 170.111 -55.3571C175.736 -52.2467 181.434 -49.3581 187.133 -46.4696L220.731 -29.4349C248.701 -16.2639 280.058 -12.0854 310.482 -17.4749C320.99 -18.646 330.893 -22.9743 338.886 -29.8893C353.675 -44.6784 355.66 -67.5389 361.717 -86.032C367.706 -105.862 377.919 -124.155 391.653 -139.655C408.036 -155.387 426.744 -168.503 447.121 -178.542L447.934 -179.355C450.153 -180.834 450.968 -178.984 451.635 -176.542C452.029 -176.137 452.288 -175.62 452.376 -175.062C456.314 -158.672 457.794 -141.791 456.768 -124.971C455.663 -109.491 451.244 -94.4326 443.81 -80.8163C436.375 -67.2 426.098 -55.3441 413.677 -46.0519C400.432 -36.6106 385.451 -29.8803 369.592 -26.2475C357.904 -23.1464 346.585 -21.3028 335.193 -18.6454L331.79 -16.8716C312.476 -7.32829 290.891 -3.31962 269.427 -5.28944C287.236 -0.957525 305.597 0.648887 323.883 -0.525053C333.343 -0.58098 342.801 -0.156126 352.22 0.747915C354.957 0.971344 367.98 2.75403 370.274 3.12519C372.567 3.49635 372.937 3.57053 374.195 3.79316C377.862 3.99108 381.538 3.74463 385.145 3.05919C393.503 1.01771 401.404 -2.56613 408.444 -7.50824C414.632 -11.8902 421.19 -15.7237 428.044 -18.9654C434.338 -21.6073 440.998 -23.2752 447.796 -23.9118C461.414 -25.4046 475.189 -23.3056 487.751 -17.8235C512.32 -8.04423 535.413 9.87269 563.453 9.07393L564.267 9.14834C565.821 9.37114 570.925 8.85599 567.524 12.4055L566.637 13.2928C548.289 33.1586 525.176 48.0164 499.481 56.4643C479.247 64.0335 457.052 64.5947 436.446 58.058C425.795 53.7623 416.273 47.074 408.617 38.5109C401.339 28.1701 392.141 19.3236 381.524 12.4534C365.452 6.09795 347.844 4.7222 330.99 8.50498C340.512 12.5638 349.083 18.566 356.155 26.1271C357.709 27.6816 359.19 29.1621 360.818 30.7907C372.084 38.2192 383.969 44.6616 396.342 50.046C408.972 56.8944 418.934 67.7936 424.621 80.9872C429.736 93.9328 431.647 107.92 430.192 121.756C428.607 135.745 425.31 149.484 420.374 162.665C414.971 175.608 411.321 189.216 409.519 203.129L409.446 204.387C409.079 209.344 406.488 207.345 405.748 206.457C405.008 205.568 405.156 205.864 404.786 205.494C392.047 190.215 380.253 174.173 369.469 157.459C360.245 144.891 354.611 130.054 353.169 114.538C353.567 99.7876 355.821 85.1478 359.878 70.9643C362.015 63.5445 362.887 55.8163 362.455 48.1042C361.412 43.7478 359.408 39.6789 356.59 36.1953C353.772 32.7118 350.211 29.9019 346.168 27.9714C333.141 19.665 318.563 14.0941 303.321 11.5975L303.469 11.7456Z"/>
</mask>
<path fill-rule="evenodd" clip-rule="evenodd" d="M303.469 11.7456C292.785 12.4657 282.06 11.1287 271.875 7.80732C285.209 20.9762 295.43 36.9582 301.791 54.5823C309.361 76.4272 308.636 100.284 299.755 121.612C290.445 143.803 275.51 163.327 268.79 186.185L267.904 189.44C266.797 195.432 263.095 190.251 262.651 189.511L260.874 187.734C252.021 176.327 244.563 163.904 238.659 150.73C228.477 128.593 226.573 103.547 233.294 80.1444C237.452 67.636 243.837 55.9844 252.142 45.7513C256.772 40.8094 261.046 35.5456 264.933 29.9993C268.333 24.5262 270.844 16.685 259.445 7.06078C253.144 2.02547 246.49 -2.55227 239.536 -6.63725C220.293 -18.1893 199.646 -27.4486 179.369 -37.2256C199.49 -10.6825 210.416 21.687 210.493 54.9771C210.27 90.4065 207.644 125.777 202.633 160.846C200.372 177.566 201.488 194.574 205.915 210.862C210.702 225.727 219.277 239.093 230.795 249.644C236.459 255.002 242.866 259.516 249.817 263.046C250.189 263.462 250.585 263.858 251.001 264.23C253.906 265.631 256.96 266.699 260.103 267.416C272.946 268.525 285.749 264.93 296.129 257.3C306.361 250.225 317.986 245.413 330.228 243.187C340.809 241.607 351.609 242.32 361.895 245.275C372.119 248.244 381.517 253.542 389.352 260.753C393.804 265.356 397.819 270.361 401.346 275.705C405.122 280.96 408.75 286.215 412.6 291.544C416.45 296.873 412.751 296.871 411.42 297.018L409.422 297.239C398.124 300.196 387.05 303.948 376.283 308.467C356.663 316.662 334.752 317.569 314.506 311.023C305.099 306.933 296.727 300.784 290.007 293.031C283.971 285.204 276.322 278.765 267.579 274.153C262.531 273.353 257.556 272.138 252.706 270.52C264.915 285.807 274.296 303.151 280.404 321.733C286.906 339.714 297.861 355.757 312.243 368.361C312.557 368.736 312.904 369.083 313.28 369.397C316.092 372.035 319.723 373.63 323.566 373.916C333.541 373.224 343.203 370.16 351.75 364.979C362.849 358.37 374.935 353.581 387.551 350.793C398.62 349.113 409.923 349.826 420.698 352.882C444.64 361.055 465.768 375.874 481.611 395.604C481.942 395.863 482.241 396.161 482.499 396.493C486.126 400.12 481.614 400.783 481.392 400.857L480.06 401.3C473.469 403.766 467.024 406.604 460.755 409.798C454.924 412.535 448.948 414.952 442.854 417.039C421.441 425.254 398.009 426.662 375.751 421.073C365.51 418.143 356.019 413.04 347.925 406.112C341.485 400.56 335.784 393.972 329.788 387.976C326.749 384.984 323.187 382.575 319.279 380.868C316.836 379.609 314.172 378.424 311.656 377.239C306.753 375.109 302.15 372.345 297.964 369.019C297.002 368.056 295.966 367.02 294.929 365.984C295.104 366.103 295.255 366.253 295.374 366.428C295.374 366.428 298.706 372.866 299.817 374.865C304.163 381.82 309.472 388.125 315.586 393.591C323.417 400.553 330.833 407.968 337.794 415.799C340.459 418.464 342.532 421.72 344.605 424.829C358.198 435.392 370.966 446.974 382.801 459.475C402.609 480.1 414.043 507.349 414.877 535.919C414.472 550.019 412.996 564.067 410.461 577.941C407.298 591.907 406.258 606.273 407.376 620.554L407.673 622.33C407.896 623.292 408.638 627.436 402.865 624.177C402.464 623.839 402.093 623.468 401.755 623.067C381.716 613.513 364.197 599.388 350.609 581.83C340.114 567.934 333.377 551.571 331.051 534.32C329.845 516.202 332.431 498.035 338.643 480.981C341.496 471.884 343.667 462.587 345.138 453.166C345.722 448.431 345.52 443.631 344.539 438.96C343.299 433.866 340.686 429.207 336.985 425.491C325.289 413.055 308.194 405.277 299.604 390.328C299.88 396.294 299.511 402.272 298.503 408.157C297.102 416.517 293.185 424.431 292.598 432.865C292.687 441.252 293.785 449.599 295.867 457.726C299.28 473.13 299.061 489.114 295.226 504.411C284.887 540.066 250.421 560.468 224.243 584.277L222.69 585.83C220.545 587.974 219.804 585.606 219.286 584.792C218.792 584.401 218.345 583.954 217.953 583.46C211.306 571.579 207.31 558.401 206.243 544.833C204.08 519.126 211.91 493.584 228.104 473.523C238.115 462.232 249.351 452.089 261.603 443.281C270.248 437.281 277.928 430.001 284.379 421.689L285.932 420.136C289.463 414.833 291.363 408.609 291.398 402.235C291.322 399.645 291.395 397.204 291.246 394.688C289.926 379.901 286.505 365.375 281.086 351.549C280.271 349.255 276.864 340.967 276.197 339.709C273.012 333.27 270.197 326.462 267.308 319.876C260.688 303.812 252.761 288.318 243.608 273.548C244.833 283.276 244.032 293.15 241.256 302.549C242.94 310.358 245.144 318.046 247.853 325.562C251.051 335.439 252.214 345.86 251.273 356.194C250.111 366.36 246.705 376.138 241.3 384.821C234.259 395.413 225.426 404.696 215.198 412.256L199.224 424.677C194.069 428.421 189.678 433.114 186.284 438.505C185.174 439.614 184.731 441.39 183.622 441.167C182.512 440.945 181.622 438.133 181.4 437.319C177.254 426.128 174.49 414.473 173.169 402.615C170.563 381.647 174.698 360.401 184.974 341.953C190.604 332.459 198.13 324.228 207.083 317.772C212.038 314.001 217.289 310.675 222.54 307.348L228.9 303.061L230.01 301.951C231.627 301.065 233.016 299.816 234.068 298.302C235.119 296.787 235.805 295.049 236.072 293.224C236.822 288.519 236.593 283.708 235.398 279.093C233.458 270.559 229.409 262.645 223.622 256.077C221.401 253.856 213.999 246.454 213.111 245.565C212.222 244.677 212.074 244.529 211.556 244.011C197.72 227.202 190.127 206.126 190.068 184.367C190.669 160.43 193.006 136.57 197.058 112.975C194.644 119.09 191.649 124.96 188.116 130.504C180.253 142.435 170.631 153.106 159.574 162.155C153.353 184.527 143.165 205.596 129.496 224.36C122.321 233.609 116.336 243.722 111.681 254.463C108.91 262.134 107.707 270.285 108.143 278.432C108.335 280.811 108.757 283.165 109.404 285.462C113.356 293.086 119.097 299.639 126.135 304.559C134.613 311.176 141.201 319.906 145.237 329.872C148.678 339.136 149.603 349.144 147.916 358.876C146.148 368.82 141.904 378.155 135.575 386.022C127.727 394.885 118.694 402.623 108.731 409.017C107.991 409.757 107.326 410.422 106.141 408.35L105.401 407.61C93.189 389.413 86.3328 368.157 85.6137 346.265C86.3309 335.643 89.3821 325.313 94.5497 316.01C100.187 307.798 103.714 298.322 104.819 288.419C104.67 286.495 103.556 278.282 103.407 277.098C102.664 271.152 102.661 265.138 103.397 259.194L103.84 256.382C97.187 264.818 91.4157 273.913 86.6158 283.526C82.1476 290.98 78.8109 299.056 76.7146 307.492C74.9464 321.4 75.1759 335.531 74.1475 349.292C73.1902 380.09 61.5091 409.574 41.1209 432.656C17.3103 456.467 -15.089 468.287 -39.788 490.765L-40.8233 491.801C-44.9642 495.942 -45.3365 491.724 -45.4112 490.318L-45.4118 489.283C-46.1855 470.862 -45.5523 452.411 -43.5178 434.09C-41.5469 418.335 -36.7956 403.057 -29.4848 388.967C-21.8247 374.833 -10.8674 362.758 2.45802 353.767C16.584 344.082 32.043 336.766 45.6507 326.267C56.439 317.984 65.5483 307.719 72.4912 296.022C74.6348 292.398 81.5825 279.38 82.9869 276.939C88.9835 263.204 96.8436 250.362 106.346 238.775L107.603 237.518C110.705 234.248 113.479 230.681 115.884 226.869C118.767 222.801 121.132 218.511 124.015 214.443C133.843 201.078 141.777 186.418 147.593 170.879C141.628 174.932 135.402 178.586 128.955 181.818C116.927 187.25 104.545 191.866 91.8954 195.634C84.031 198.059 76.4249 201.251 69.187 205.166L67.264 206.349C63.5187 208.887 60.0707 211.839 56.9848 215.147C49.9609 223.948 50.8552 236.082 51.0831 247.106C50.8049 257.005 48.4662 266.735 44.2162 275.675C39.9663 284.616 33.8985 292.57 26.3998 299.03C11.4242 311.854 -7.57845 319.017 -27.3027 319.274L-29.4483 319.346C-29.4483 319.346 -32.9255 319.418 -31.2995 316.312L-30.4862 315.499C-26.8708 306.039 -24.5371 296.137 -23.5473 286.056C-19.932 267.636 -16.1687 249.067 -0.860713 235.98C6.8122 229.481 15.8294 224.761 25.5447 222.159C33.6681 220.302 41.5222 217.422 48.9195 213.589C55.7963 209.568 61.9875 204.477 67.2599 198.506C50.4672 202.418 33.6006 206.404 16.8078 210.021C2.93774 213.574 -11.5204 214.222 -25.6589 211.921C-38.4686 209.326 -50.4874 203.743 -60.7367 195.626C-71.6987 186.473 -80.4129 174.925 -86.206 161.875C-91.5907 148.238 -99.4203 135.697 -109.309 124.869C-109.614 124.485 -109.962 124.138 -110.346 123.833C-112.196 121.982 -111.902 119.467 -107.61 120.061L-105.761 120.284C-90.1976 120.3 -74.6851 118.546 -59.5223 115.056C-45.6046 113.031 -31.4288 113.616 -17.7196 116.78C-4.70279 120.002 7.44964 126.045 17.877 134.482C29.1865 144.5 38.549 156.519 45.4927 169.936C51.4911 180.371 60.8206 193.989 74.5811 192.369C82.9237 190.135 91.0839 187.27 98.9917 183.8C99.3977 183.669 99.8306 183.644 100.249 183.727L103.43 182.471C115.18 178.405 126.442 173.052 137.011 166.508C153.904 155.523 168.174 140.96 178.814 123.847C189.454 106.735 196.204 87.4906 198.588 67.4743C199.74 56.899 199.684 46.2257 198.423 35.6604L198.126 33.7366C195.927 14.0913 189.723 -4.89849 179.895 -22.0583C183.307 -8.80743 181.458 5.24398 174.737 17.1513C172.314 21.4456 170.286 25.9514 168.678 30.6134C167.498 34.6932 166.732 38.8817 166.391 43.1157C164.624 59.6875 165.447 76.0387 157.094 91.0533C137.729 126.112 94.5999 134.301 63.5371 155L62.7976 155.74C61.7624 156.775 60.2089 156.996 59.9852 153.815L59.8366 152.779C58.3908 138.451 58.8558 123.996 61.2193 109.794C64.0299 96.1762 69.8862 83.3741 78.3495 72.3469C86.8129 61.3196 97.6638 52.353 110.09 46.1188C122.738 39.8369 136.793 36.885 149.145 29.715C157.426 25.2076 163.979 18.0826 167.778 9.45301C169.21 5.31549 170.127 1.01732 170.509 -3.34498C171.116 -12.7648 169.4 -22.1921 165.513 -30.7986C161.625 -39.4052 155.685 -46.9276 148.213 -52.7053L142.292 -56.7038C124.011 -68.0334 107.282 -83.2834 107.122 -106.663C107.154 -107.073 107.313 -107.463 107.576 -107.779C107.84 -108.095 108.195 -108.322 108.593 -108.427C108.991 -108.532 109.412 -108.512 109.797 -108.368C110.183 -108.223 110.515 -107.963 110.747 -107.623C111.561 -106.808 111.858 -105.329 112.376 -104.071C118.447 -94.7245 125.941 -86.3829 134.585 -79.3475C147.981 -69.1252 164.621 -64.0963 181.426 -65.1911C189.185 -64.8736 196.953 -65.4404 204.582 -66.8803C208.845 -68.3647 212.736 -70.7516 215.99 -73.878C219.244 -77.0045 221.785 -80.797 223.439 -84.9966C226.408 -92.9207 229.812 -100.674 233.636 -108.223C247.512 -132.931 269.046 -152.454 294.994 -163.849C320.942 -175.244 349.899 -177.895 377.504 -171.403C377.861 -171.348 378.209 -171.248 378.54 -171.106C380.39 -170.735 381.426 -169.699 379.282 -167.999L378.616 -167.333C365.79 -156.208 354.502 -143.426 345.047 -129.323C329.107 -105.734 308.052 -86.0458 283.448 -71.7209C267.151 -62.8947 248.54 -59.2646 230.11 -61.3176C228.99 -61.4185 227.878 -61.5921 226.781 -61.8373C222.768 -62.8869 218.544 -62.8124 214.573 -61.6219L211.614 -60.5877C205.344 -58.5571 198.908 -57.0752 192.38 -56.1589C185.027 -54.9002 177.538 -54.6306 170.111 -55.3571C175.736 -52.2467 181.434 -49.3581 187.133 -46.4696L220.731 -29.4349C248.701 -16.2639 280.058 -12.0854 310.482 -17.4749C320.99 -18.646 330.893 -22.9743 338.886 -29.8893C353.675 -44.6784 355.66 -67.5389 361.717 -86.032C367.706 -105.862 377.919 -124.155 391.653 -139.655C408.036 -155.387 426.744 -168.503 447.121 -178.542L447.934 -179.355C450.153 -180.834 450.968 -178.984 451.635 -176.542C452.029 -176.137 452.288 -175.62 452.376 -175.062C456.314 -158.672 457.794 -141.791 456.768 -124.971C455.663 -109.491 451.244 -94.4326 443.81 -80.8163C436.375 -67.2 426.098 -55.3441 413.677 -46.0519C400.432 -36.6106 385.451 -29.8803 369.592 -26.2475C357.904 -23.1464 346.585 -21.3028 335.193 -18.6454L331.79 -16.8716C312.476 -7.32829 290.891 -3.31962 269.427 -5.28944C287.236 -0.957525 305.597 0.648887 323.883 -0.525053C333.343 -0.58098 342.801 -0.156126 352.22 0.747915C354.957 0.971344 367.98 2.75403 370.274 3.12519C372.567 3.49635 372.937 3.57053 374.195 3.79316C377.862 3.99108 381.538 3.74463 385.145 3.05919C393.503 1.01771 401.404 -2.56613 408.444 -7.50824C414.632 -11.8902 421.19 -15.7237 428.044 -18.9654C434.338 -21.6073 440.998 -23.2752 447.796 -23.9118C461.414 -25.4046 475.189 -23.3056 487.751 -17.8235C512.32 -8.04423 535.413 9.87269 563.453 9.07393L564.267 9.14834C565.821 9.37114 570.925 8.85599 567.524 12.4055L566.637 13.2928C548.289 33.1586 525.176 48.0164 499.481 56.4643C479.247 64.0335 457.052 64.5947 436.446 58.058C425.795 53.7623 416.273 47.074 408.617 38.5109C401.339 28.1701 392.141 19.3236 381.524 12.4534C365.452 6.09795 347.844 4.7222 330.99 8.50498C340.512 12.5638 349.083 18.566 356.155 26.1271C357.709 27.6816 359.19 29.1621 360.818 30.7907C372.084 38.2192 383.969 44.6616 396.342 50.046C408.972 56.8944 418.934 67.7936 424.621 80.9872C429.736 93.9328 431.647 107.92 430.192 121.756C428.607 135.745 425.31 149.484 420.374 162.665C414.971 175.608 411.321 189.216 409.519 203.129L409.446 204.387C409.079 209.344 406.488 207.345 405.748 206.457C405.008 205.568 405.156 205.864 404.786 205.494C392.047 190.215 380.253 174.173 369.469 157.459C360.245 144.891 354.611 130.054 353.169 114.538C353.567 99.7876 355.821 85.1478 359.878 70.9643C362.015 63.5445 362.887 55.8163 362.455 48.1042C361.412 43.7478 359.408 39.6789 356.59 36.1953C353.772 32.7118 350.211 29.9019 346.168 27.9714C333.141 19.665 318.563 14.0941 303.321 11.5975L303.469 11.7456Z" stroke="url(#paint0_linear_5282_33748)" stroke-width="2" mask="url(#path-1-inside-1_5282_33748)"/>
</g>
<defs>
<linearGradient id="paint0_linear_5282_33748" x1="400.203" y1="136.307" x2="-142.233" y2="-489.378" gradientUnits="userSpaceOnUse">
<stop stop-color="#22B148"/>
<stop offset="0.682692" stop-color="#8F4AFF"/>
</linearGradient>
</defs>
</svg>
