<svg width="596" height="579" viewBox="0 0 596 579" fill="none" xmlns="http://www.w3.org/2000/svg">
<g opacity="0.9">
<mask id="path-1-inside-1_5282_33747" fill="white">
<path fill-rule="evenodd" clip-rule="evenodd" d="M256.578 405.452C267.085 407.522 277.098 411.589 286.076 417.433C276.606 401.262 270.869 383.179 269.287 364.51C267.628 341.45 274.503 318.593 288.601 300.291C303.338 281.266 322.817 266.272 335.224 245.933L336.922 243.018C339.542 237.516 341.777 243.479 342.015 244.309L343.271 246.485C348.87 259.794 352.859 273.724 355.152 287.978C359.258 311.995 354.614 336.681 342.066 357.547C334.812 368.553 325.628 378.155 314.958 385.89C309.207 389.465 303.716 393.443 298.526 397.795C293.825 402.201 289.37 409.125 297.89 421.372C302.673 427.866 307.915 434.01 313.575 439.756C329.172 455.895 346.719 470.182 363.775 484.874C351.21 454.028 349.033 419.933 357.576 387.758C366.961 353.593 378.652 320.107 392.569 287.53C399.08 271.965 402.404 255.248 402.343 238.369C401.567 222.772 396.744 207.642 388.348 194.469C384.265 187.828 379.245 181.81 373.444 176.601C373.192 176.102 372.912 175.618 372.606 175.151C370.163 173.046 367.49 171.223 364.639 169.717C352.521 165.322 339.224 165.482 327.223 170.165C315.508 174.351 303.034 175.989 290.632 174.971C280.003 173.758 269.756 170.275 260.585 164.758C251.478 159.244 243.771 151.694 238.069 142.701C234.961 137.103 232.378 131.229 230.354 125.155C228.067 119.102 225.922 113.087 223.583 106.943C221.243 100.799 224.816 101.758 226.14 101.961L228.127 102.264C239.805 102.332 251.473 101.574 263.043 99.9961C284.115 97.1581 305.515 101.953 323.376 113.516C331.404 119.902 337.9 128.007 342.384 137.235C346.189 146.359 351.911 154.557 359.161 161.275C363.831 163.354 368.322 165.816 372.587 168.634C364.751 150.708 360.179 131.527 359.088 111.997C357.461 92.9463 351.032 74.6148 340.402 58.7177C340.196 58.2735 339.951 57.8487 339.669 57.4484C337.635 54.1725 334.541 51.6922 330.903 50.4214C321.089 48.5074 310.963 48.9662 301.366 51.7595C288.935 55.2703 276.021 56.768 263.113 56.196C251.987 54.9533 241.254 51.3398 231.637 45.5988C210.626 31.5072 194.053 11.7254 183.857 -11.4334C183.603 -11.7689 183.393 -12.1343 183.228 -12.5213C180.664 -16.9637 185.194 -16.4366 185.428 -16.4505L186.829 -16.534C193.833 -17.2101 200.793 -18.2824 207.676 -19.7457C214.016 -20.8795 220.414 -21.6678 226.841 -22.1069C249.65 -24.4991 272.648 -19.7948 292.701 -8.63517C301.834 -3.15461 309.681 4.23065 315.707 13.0172C320.49 20.0471 324.292 27.8858 328.531 35.2295C330.693 38.9061 333.51 42.1553 336.843 44.8156C338.877 46.6639 341.143 48.4982 343.267 50.2942C347.452 53.6205 351.183 57.4812 354.365 61.7776C355.045 62.9562 355.778 64.2254 356.511 65.4947C356.373 65.3348 356.266 65.1502 356.197 64.9507C356.197 64.9507 354.644 57.869 354.088 55.6514C351.69 47.8085 348.194 40.3442 343.703 33.4813C337.941 24.7304 332.697 15.6485 328 6.28265C326.116 3.01881 324.956 -0.663306 323.758 -4.2025C313.362 -17.9231 304.027 -32.4154 295.831 -47.5534C282.035 -72.6024 278.043 -101.883 284.632 -129.695C288.673 -143.21 293.735 -156.397 299.774 -169.142C306.444 -181.814 311.167 -195.421 313.783 -209.505L313.956 -211.297C313.99 -212.284 314.346 -216.479 319.078 -211.837C319.378 -211.407 319.641 -210.952 319.863 -210.477C336.746 -196.062 350.013 -177.884 358.594 -157.407C365.135 -141.269 367.406 -123.72 365.189 -106.455C361.664 -88.6419 354.465 -71.7635 344.05 -56.8977C338.94 -48.8494 334.436 -40.4308 330.577 -31.7117C328.787 -27.2891 327.741 -22.6004 327.479 -17.835C327.358 -12.5931 328.676 -7.41692 331.289 -2.86949C339.369 12.1699 353.868 24.107 358.296 40.7706C359.574 34.9362 361.477 29.2575 363.974 23.833C367.491 16.1209 373.323 9.49004 376.073 1.4954C378.157 -6.6289 379.258 -14.9754 379.35 -23.3644C380.04 -39.1271 384.389 -54.5093 392.052 -68.2923C411.267 -100.057 449.839 -110.843 481.287 -127.065L483.189 -128.163C485.816 -129.68 485.919 -127.201 486.209 -126.28C486.584 -125.774 486.901 -125.227 487.151 -124.648C490.497 -111.451 490.945 -97.6882 488.465 -84.3068C483.901 -58.9154 469.727 -36.271 448.892 -21.0844C436.3 -12.7693 422.822 -5.87999 408.707 -0.54307C398.804 3.01453 389.502 8.05926 381.119 14.4179L379.217 15.516C374.433 19.725 370.988 25.2444 369.305 31.393C368.707 33.9138 368.005 36.2533 367.498 38.7218C364.946 53.3467 364.491 68.2629 366.146 83.0203C366.34 85.4471 367.486 94.3349 367.804 95.7226C369.214 102.766 370.171 110.071 371.257 117.18C373.494 134.41 377.141 151.428 382.16 168.064C383.494 158.35 386.823 149.02 391.937 140.659C392.331 132.681 392.193 124.684 391.521 116.723C390.989 106.355 392.562 95.9887 396.146 86.2499C399.899 76.7312 405.72 68.1679 413.188 61.1794C422.731 52.7709 433.665 46.0898 445.501 41.4354L464.146 33.572C470.094 31.2899 475.551 27.8932 480.224 23.564C481.583 22.7797 482.47 21.1794 483.485 21.6817C484.499 22.1839 484.63 25.1302 484.635 25.9739C485.743 37.8568 485.397 49.8294 483.603 61.6255C480.693 82.5535 471.201 102.005 456.5 117.165C448.604 124.878 439.204 130.881 428.886 134.8C423.124 137.16 417.191 139.014 411.257 140.868L404.004 143.363L402.646 144.148C400.854 144.585 399.189 145.432 397.781 146.623C396.373 147.813 395.261 149.314 394.531 151.008C392.589 155.36 391.565 160.066 391.524 164.833C391.189 173.578 393.052 182.27 396.942 190.112C398.512 192.832 403.747 201.898 404.375 202.986C405.003 204.074 405.108 204.256 405.474 204.89C414.488 224.707 416.367 247.03 410.793 268.063C404.017 291.029 395.585 313.471 385.563 335.214C389.478 329.931 393.89 325.036 398.738 320.596C409.42 311.107 421.477 303.29 434.499 297.411C446.299 277.411 461.592 259.697 479.653 245.11C488.976 238.034 497.375 229.814 504.651 220.644C509.313 213.951 512.585 206.39 514.273 198.407C514.703 196.06 514.904 193.677 514.874 191.29C513.03 182.904 509.18 175.088 503.655 168.514C497.179 159.928 493.075 149.79 491.756 139.119C490.83 129.28 492.527 119.374 496.675 110.41C500.957 101.263 507.472 93.3437 515.621 87.383C525.496 80.8531 536.224 75.7168 547.502 72.1193C548.408 71.5964 549.223 71.1258 549.831 73.4341L550.355 74.3408C557.441 95.0776 558.562 117.384 553.591 138.716C550.149 148.791 544.528 157.979 537.128 165.628C529.558 172.101 523.698 180.341 520.068 189.621C519.714 191.518 518.665 199.739 518.502 200.921C517.681 206.857 516.127 212.667 513.877 218.218L512.722 220.819C521.331 214.393 529.26 207.101 536.385 199.058C542.63 193.015 547.943 186.077 552.151 178.472C557.459 165.495 560.895 151.786 565.45 138.76C574.345 109.26 593.26 83.8029 618.927 66.7846C648.089 49.948 682.443 46.916 712.119 31.5962L713.387 30.8642C718.458 27.9361 717.726 32.1061 717.435 33.4833L717.167 34.484C713.147 52.4769 707.76 70.1353 701.053 87.3053C695.071 102.014 686.528 115.542 675.819 127.259C664.762 138.929 651.053 147.756 635.854 152.993C619.703 158.691 602.877 161.757 587.016 168.376C574.451 173.585 562.996 181.142 553.262 190.644C550.253 193.59 540.173 204.366 538.185 206.36C528.838 218.075 517.922 228.445 505.744 237.178L504.205 238.067C500.362 240.422 496.76 243.15 493.45 246.21C489.612 249.393 486.217 252.924 482.38 256.107C469.428 266.474 457.97 278.581 448.33 292.085C455.14 289.714 462.1 287.796 469.164 286.342C482.189 284.209 495.342 282.955 508.537 282.589C516.761 282.282 524.934 281.167 532.938 279.259L535.102 278.615C539.377 277.132 543.471 275.174 547.308 272.776C556.37 266.093 558.647 254.141 561.28 243.434C564.111 233.944 568.888 225.151 575.307 217.615C581.726 210.08 589.646 203.967 598.562 199.667C616.346 191.157 636.555 189.156 655.673 194.013L657.765 194.498C657.765 194.498 661.142 195.328 658.768 197.908L657.771 198.483C651.831 206.685 647.014 215.645 643.449 225.127C635.189 241.984 626.748 258.945 608.575 267.625C599.481 271.916 589.55 274.141 579.492 274.141C571.164 273.832 562.833 274.581 554.695 276.369C547.012 278.472 539.714 281.788 533.076 286.191C550.309 286.758 567.633 287.273 584.789 288.127C599.107 288.284 613.24 291.401 626.301 297.282C638.002 303.104 648.167 311.608 655.966 322.101C664.185 333.779 669.614 347.189 671.832 361.294C673.504 375.86 677.821 390 684.57 403.018C684.765 403.468 685.011 403.894 685.303 404.287C686.612 406.554 685.676 408.907 681.685 407.223L679.956 406.528C664.927 402.485 649.489 400.164 633.94 399.611C619.972 397.965 606.431 393.731 594.008 387.126C582.268 380.646 572.094 371.663 564.206 360.815C555.874 348.211 549.942 334.178 546.707 319.421C543.614 307.789 538.127 292.22 524.416 290.224C515.779 290.223 507.156 290.878 498.619 292.183C498.193 292.205 497.769 292.117 497.385 291.928L493.988 292.318C481.587 293.204 469.323 295.46 457.42 299.046C438.26 305.285 420.706 315.658 406 329.434C391.293 343.209 379.792 360.05 372.31 378.768C368.46 388.684 365.751 399.008 364.235 409.54L364.024 411.475C361.063 431.02 362.141 450.969 367.193 470.088C367.327 456.405 372.749 443.311 382.323 433.549C385.775 430.028 388.9 426.201 391.66 422.114C393.855 418.478 395.679 414.631 397.105 410.63C403.101 395.08 406.538 379.073 418.492 366.731C446.271 337.879 490.05 341.132 525.412 329.178L526.318 328.655C527.586 327.923 529.143 328.111 528.536 331.242L528.411 332.281C526.099 346.496 521.909 360.337 515.951 373.444C509.711 385.87 500.741 396.72 489.712 405.181C478.683 413.642 465.881 419.495 452.265 422.301C438.422 425.095 424.081 424.308 410.295 428.037C401.129 430.248 392.956 435.434 387.052 442.786C384.599 446.412 382.601 450.327 381.102 454.441C378.078 463.383 377.295 472.933 378.823 482.253C380.35 491.572 384.142 500.376 389.863 507.89L394.548 513.285C409.273 528.96 421.485 548.02 415.589 570.645C415.452 571.033 415.197 571.368 414.861 571.605C414.525 571.842 414.123 571.969 413.711 571.968C413.3 571.967 412.899 571.838 412.563 571.599C412.228 571.36 411.975 571.022 411.839 570.633C411.263 569.636 411.36 568.13 411.185 566.781C407.739 556.182 402.66 546.185 396.131 537.152C385.837 523.811 371.066 514.647 354.551 511.355C347.138 509.04 339.487 507.576 331.746 506.993C327.244 507.323 322.868 508.622 318.915 510.8C314.963 512.977 311.527 515.983 308.843 519.611C303.924 526.497 298.629 533.105 292.982 539.407C273.184 559.682 247.331 572.966 219.318 577.257C191.304 581.548 162.648 576.614 137.664 563.198C137.334 563.053 137.023 562.867 136.74 562.644C135.049 561.807 134.316 560.538 136.828 559.45L137.643 558.979C152.911 551.553 167.123 542.128 179.906 530.952C201.408 512.293 226.841 498.725 254.314 491.257C272.34 486.949 291.257 488.259 308.527 495.013C309.583 495.4 310.612 495.855 311.609 496.376C315.214 498.429 319.312 499.45 323.456 499.328L326.582 499.095C333.164 498.756 339.764 498.99 346.307 499.795C353.735 500.482 361.039 502.16 368.025 504.784C363.397 500.324 358.64 496.059 353.884 491.794L325.839 466.644C302.231 446.682 273.024 434.53 242.241 431.862C231.788 430.274 221.102 431.891 211.592 436.502C193.48 446.959 185.645 468.527 175.008 484.822C164.091 502.426 149.492 517.453 132.214 528.871C112.318 539.826 90.8524 547.653 68.5714 552.076L67.5752 552.651C65.0494 553.505 64.7412 551.507 64.7287 548.976C64.4524 548.483 64.3363 547.916 64.3964 547.355C64.8345 530.504 67.7739 513.815 73.1183 497.834C78.1916 483.167 86.3577 469.765 97.0632 458.537C107.769 447.309 120.763 438.517 135.167 432.757C150.404 427.065 166.617 424.441 182.875 425.037C194.968 425.067 206.378 426.215 218.07 426.597L221.816 425.764C242.942 421.545 264.828 423.26 285.052 430.718C268.97 421.924 251.651 415.62 233.685 412.021C224.532 409.627 215.506 406.769 206.642 403.458C204.056 402.533 191.939 397.441 189.819 396.489C187.7 395.536 187.361 395.369 186.204 394.828C182.714 393.688 179.099 392.975 175.438 392.704C166.836 392.512 158.276 393.929 150.197 396.88C143.086 399.512 135.759 401.517 128.299 402.874C121.536 403.797 114.672 403.685 107.941 402.54C94.4004 400.458 81.6378 394.865 70.9224 386.318C49.7221 370.513 32.0531 347.23 4.76174 340.744L3.99486 340.462C2.55165 339.844 -2.51247 339.021 1.69173 336.472L2.77851 335.845C25.643 321.405 51.8132 313.035 78.8195 311.526C100.323 309.451 121.907 314.654 140.119 326.301C149.295 333.207 156.762 342.132 161.941 352.385C166.295 364.257 172.89 375.183 181.366 384.566C195.246 394.865 211.898 400.751 229.156 401.459C221.009 395.075 214.284 387.058 209.41 377.925C208.311 376.021 207.264 374.208 206.113 372.213C197.153 362.122 187.34 352.823 176.783 344.42C166.355 334.536 159.554 321.43 157.476 307.214C155.886 293.385 157.66 279.38 162.647 266.392C167.798 253.29 174.539 240.873 182.718 229.418C191.287 218.314 198.335 206.115 203.675 193.142L204.072 191.946C205.709 187.253 207.694 189.855 208.179 190.904C208.665 191.954 208.598 191.63 208.86 192.083C217.21 210.138 224.45 228.686 230.541 247.622C236.198 262.149 237.8 277.938 235.177 293.299C230.974 307.444 225.008 321.001 217.418 333.652C213.434 340.265 210.592 347.505 209.012 355.066C208.893 359.544 209.775 363.993 211.596 368.087C213.416 372.181 216.129 375.817 219.534 378.728C229.967 390.123 242.607 399.277 256.683 405.634L256.578 405.452Z"/>
</mask>
<path fill-rule="evenodd" clip-rule="evenodd" d="M256.578 405.452C267.085 407.522 277.098 411.589 286.076 417.433C276.606 401.262 270.869 383.179 269.287 364.51C267.628 341.45 274.503 318.593 288.601 300.291C303.338 281.266 322.817 266.272 335.224 245.933L336.922 243.018C339.542 237.516 341.777 243.479 342.015 244.309L343.271 246.485C348.87 259.794 352.859 273.724 355.152 287.978C359.258 311.995 354.614 336.681 342.066 357.547C334.812 368.553 325.628 378.155 314.958 385.89C309.207 389.465 303.716 393.443 298.526 397.795C293.825 402.201 289.37 409.125 297.89 421.372C302.673 427.866 307.915 434.01 313.575 439.756C329.172 455.895 346.719 470.182 363.775 484.874C351.21 454.028 349.033 419.933 357.576 387.758C366.961 353.593 378.652 320.107 392.569 287.53C399.08 271.965 402.404 255.248 402.343 238.369C401.567 222.772 396.744 207.642 388.348 194.469C384.265 187.828 379.245 181.81 373.444 176.601C373.192 176.102 372.912 175.618 372.606 175.151C370.163 173.046 367.49 171.223 364.639 169.717C352.521 165.322 339.224 165.482 327.223 170.165C315.508 174.351 303.034 175.989 290.632 174.971C280.003 173.758 269.756 170.275 260.585 164.758C251.478 159.244 243.771 151.694 238.069 142.701C234.961 137.103 232.378 131.229 230.354 125.155C228.067 119.102 225.922 113.087 223.583 106.943C221.243 100.799 224.816 101.758 226.14 101.961L228.127 102.264C239.805 102.332 251.473 101.574 263.043 99.9961C284.115 97.1581 305.515 101.953 323.376 113.516C331.404 119.902 337.9 128.007 342.384 137.235C346.189 146.359 351.911 154.557 359.161 161.275C363.831 163.354 368.322 165.816 372.587 168.634C364.751 150.708 360.179 131.527 359.088 111.997C357.461 92.9463 351.032 74.6148 340.402 58.7177C340.196 58.2735 339.951 57.8487 339.669 57.4484C337.635 54.1725 334.541 51.6922 330.903 50.4214C321.089 48.5074 310.963 48.9662 301.366 51.7595C288.935 55.2703 276.021 56.768 263.113 56.196C251.987 54.9533 241.254 51.3398 231.637 45.5988C210.626 31.5072 194.053 11.7254 183.857 -11.4334C183.603 -11.7689 183.393 -12.1343 183.228 -12.5213C180.664 -16.9637 185.194 -16.4366 185.428 -16.4505L186.829 -16.534C193.833 -17.2101 200.793 -18.2824 207.676 -19.7457C214.016 -20.8795 220.414 -21.6678 226.841 -22.1069C249.65 -24.4991 272.648 -19.7948 292.701 -8.63517C301.834 -3.15461 309.681 4.23065 315.707 13.0172C320.49 20.0471 324.292 27.8858 328.531 35.2295C330.693 38.9061 333.51 42.1553 336.843 44.8156C338.877 46.6639 341.143 48.4982 343.267 50.2942C347.452 53.6205 351.183 57.4812 354.365 61.7776C355.045 62.9562 355.778 64.2254 356.511 65.4947C356.373 65.3348 356.266 65.1502 356.197 64.9507C356.197 64.9507 354.644 57.869 354.088 55.6514C351.69 47.8085 348.194 40.3442 343.703 33.4813C337.941 24.7304 332.697 15.6485 328 6.28265C326.116 3.01881 324.956 -0.663306 323.758 -4.2025C313.362 -17.9231 304.027 -32.4154 295.831 -47.5534C282.035 -72.6024 278.043 -101.883 284.632 -129.695C288.673 -143.21 293.735 -156.397 299.774 -169.142C306.444 -181.814 311.167 -195.421 313.783 -209.505L313.956 -211.297C313.99 -212.284 314.346 -216.479 319.078 -211.837C319.378 -211.407 319.641 -210.952 319.863 -210.477C336.746 -196.062 350.013 -177.884 358.594 -157.407C365.135 -141.269 367.406 -123.72 365.189 -106.455C361.664 -88.6419 354.465 -71.7635 344.05 -56.8977C338.94 -48.8494 334.436 -40.4308 330.577 -31.7117C328.787 -27.2891 327.741 -22.6004 327.479 -17.835C327.358 -12.5931 328.676 -7.41692 331.289 -2.86949C339.369 12.1699 353.868 24.107 358.296 40.7706C359.574 34.9362 361.477 29.2575 363.974 23.833C367.491 16.1209 373.323 9.49004 376.073 1.4954C378.157 -6.6289 379.258 -14.9754 379.35 -23.3644C380.04 -39.1271 384.389 -54.5093 392.052 -68.2923C411.267 -100.057 449.839 -110.843 481.287 -127.065L483.189 -128.163C485.816 -129.68 485.919 -127.201 486.209 -126.28C486.584 -125.774 486.901 -125.227 487.151 -124.648C490.497 -111.451 490.945 -97.6882 488.465 -84.3068C483.901 -58.9154 469.727 -36.271 448.892 -21.0844C436.3 -12.7693 422.822 -5.87999 408.707 -0.54307C398.804 3.01453 389.502 8.05926 381.119 14.4179L379.217 15.516C374.433 19.725 370.988 25.2444 369.305 31.393C368.707 33.9138 368.005 36.2533 367.498 38.7218C364.946 53.3467 364.491 68.2629 366.146 83.0203C366.34 85.4471 367.486 94.3349 367.804 95.7226C369.214 102.766 370.171 110.071 371.257 117.18C373.494 134.41 377.141 151.428 382.16 168.064C383.494 158.35 386.823 149.02 391.937 140.659C392.331 132.681 392.193 124.684 391.521 116.723C390.989 106.355 392.562 95.9887 396.146 86.2499C399.899 76.7312 405.72 68.1679 413.188 61.1794C422.731 52.7709 433.665 46.0898 445.501 41.4354L464.146 33.572C470.094 31.2899 475.551 27.8932 480.224 23.564C481.583 22.7797 482.47 21.1794 483.485 21.6817C484.499 22.1839 484.63 25.1302 484.635 25.9739C485.743 37.8568 485.397 49.8294 483.603 61.6255C480.693 82.5535 471.201 102.005 456.5 117.165C448.604 124.878 439.204 130.881 428.886 134.8C423.124 137.16 417.191 139.014 411.257 140.868L404.004 143.363L402.646 144.148C400.854 144.585 399.189 145.432 397.781 146.623C396.373 147.813 395.261 149.314 394.531 151.008C392.589 155.36 391.565 160.066 391.524 164.833C391.189 173.578 393.052 182.27 396.942 190.112C398.512 192.832 403.747 201.898 404.375 202.986C405.003 204.074 405.108 204.256 405.474 204.89C414.488 224.707 416.367 247.03 410.793 268.063C404.017 291.029 395.585 313.471 385.563 335.214C389.478 329.931 393.89 325.036 398.738 320.596C409.42 311.107 421.477 303.29 434.499 297.411C446.299 277.411 461.592 259.697 479.653 245.11C488.976 238.034 497.375 229.814 504.651 220.644C509.313 213.951 512.585 206.39 514.273 198.407C514.703 196.06 514.904 193.677 514.874 191.29C513.03 182.904 509.18 175.088 503.655 168.514C497.179 159.928 493.075 149.79 491.756 139.119C490.83 129.28 492.527 119.374 496.675 110.41C500.957 101.263 507.472 93.3437 515.621 87.383C525.496 80.8531 536.224 75.7168 547.502 72.1193C548.408 71.5964 549.223 71.1258 549.831 73.4341L550.355 74.3408C557.441 95.0776 558.562 117.384 553.591 138.716C550.149 148.791 544.528 157.979 537.128 165.628C529.558 172.101 523.698 180.341 520.068 189.621C519.714 191.518 518.665 199.739 518.502 200.921C517.681 206.857 516.127 212.667 513.877 218.218L512.722 220.819C521.331 214.393 529.26 207.101 536.385 199.058C542.63 193.015 547.943 186.077 552.151 178.472C557.459 165.495 560.895 151.786 565.45 138.76C574.345 109.26 593.26 83.8029 618.927 66.7846C648.089 49.948 682.443 46.916 712.119 31.5962L713.387 30.8642C718.458 27.9361 717.726 32.1061 717.435 33.4833L717.167 34.484C713.147 52.4769 707.76 70.1353 701.053 87.3053C695.071 102.014 686.528 115.542 675.819 127.259C664.762 138.929 651.053 147.756 635.854 152.993C619.703 158.691 602.877 161.757 587.016 168.376C574.451 173.585 562.996 181.142 553.262 190.644C550.253 193.59 540.173 204.366 538.185 206.36C528.838 218.075 517.922 228.445 505.744 237.178L504.205 238.067C500.362 240.422 496.76 243.15 493.45 246.21C489.612 249.393 486.217 252.924 482.38 256.107C469.428 266.474 457.97 278.581 448.33 292.085C455.14 289.714 462.1 287.796 469.164 286.342C482.189 284.209 495.342 282.955 508.537 282.589C516.761 282.282 524.934 281.167 532.938 279.259L535.102 278.615C539.377 277.132 543.471 275.174 547.308 272.776C556.37 266.093 558.647 254.141 561.28 243.434C564.111 233.944 568.888 225.151 575.307 217.615C581.726 210.08 589.646 203.967 598.562 199.667C616.346 191.157 636.555 189.156 655.673 194.013L657.765 194.498C657.765 194.498 661.142 195.328 658.768 197.908L657.771 198.483C651.831 206.685 647.014 215.645 643.449 225.127C635.189 241.984 626.748 258.945 608.575 267.625C599.481 271.916 589.55 274.141 579.492 274.141C571.164 273.832 562.833 274.581 554.695 276.369C547.012 278.472 539.714 281.788 533.076 286.191C550.309 286.758 567.633 287.273 584.789 288.127C599.107 288.284 613.24 291.401 626.301 297.282C638.002 303.104 648.167 311.608 655.966 322.101C664.185 333.779 669.614 347.189 671.832 361.294C673.504 375.86 677.821 390 684.57 403.018C684.765 403.468 685.011 403.894 685.303 404.287C686.612 406.554 685.676 408.907 681.685 407.223L679.956 406.528C664.927 402.485 649.489 400.164 633.94 399.611C619.972 397.965 606.431 393.731 594.008 387.126C582.268 380.646 572.094 371.663 564.206 360.815C555.874 348.211 549.942 334.178 546.707 319.421C543.614 307.789 538.127 292.22 524.416 290.224C515.779 290.223 507.156 290.878 498.619 292.183C498.193 292.205 497.769 292.117 497.385 291.928L493.988 292.318C481.587 293.204 469.323 295.46 457.42 299.046C438.26 305.285 420.706 315.658 406 329.434C391.293 343.209 379.792 360.05 372.31 378.768C368.46 388.684 365.751 399.008 364.235 409.54L364.024 411.475C361.063 431.02 362.141 450.969 367.193 470.088C367.327 456.405 372.749 443.311 382.323 433.549C385.775 430.028 388.9 426.201 391.66 422.114C393.855 418.478 395.679 414.631 397.105 410.63C403.101 395.08 406.538 379.073 418.492 366.731C446.271 337.879 490.05 341.132 525.412 329.178L526.318 328.655C527.586 327.923 529.143 328.111 528.536 331.242L528.411 332.281C526.099 346.496 521.909 360.337 515.951 373.444C509.711 385.87 500.741 396.72 489.712 405.181C478.683 413.642 465.881 419.495 452.265 422.301C438.422 425.095 424.081 424.308 410.295 428.037C401.129 430.248 392.956 435.434 387.052 442.786C384.599 446.412 382.601 450.327 381.102 454.441C378.078 463.383 377.295 472.933 378.823 482.253C380.35 491.572 384.142 500.376 389.863 507.89L394.548 513.285C409.273 528.96 421.485 548.02 415.589 570.645C415.452 571.033 415.197 571.368 414.861 571.605C414.525 571.842 414.123 571.969 413.711 571.968C413.3 571.967 412.899 571.838 412.563 571.599C412.228 571.36 411.975 571.022 411.839 570.633C411.263 569.636 411.36 568.13 411.185 566.781C407.739 556.182 402.66 546.185 396.131 537.152C385.837 523.811 371.066 514.647 354.551 511.355C347.138 509.04 339.487 507.576 331.746 506.993C327.244 507.323 322.868 508.622 318.915 510.8C314.963 512.977 311.527 515.983 308.843 519.611C303.924 526.497 298.629 533.105 292.982 539.407C273.184 559.682 247.331 572.966 219.318 577.257C191.304 581.548 162.648 576.614 137.664 563.198C137.334 563.053 137.023 562.867 136.74 562.644C135.049 561.807 134.316 560.538 136.828 559.45L137.643 558.979C152.911 551.553 167.123 542.128 179.906 530.952C201.408 512.293 226.841 498.725 254.314 491.257C272.34 486.949 291.257 488.259 308.527 495.013C309.583 495.4 310.612 495.855 311.609 496.376C315.214 498.429 319.312 499.45 323.456 499.328L326.582 499.095C333.164 498.756 339.764 498.99 346.307 499.795C353.735 500.482 361.039 502.16 368.025 504.784C363.397 500.324 358.64 496.059 353.884 491.794L325.839 466.644C302.231 446.682 273.024 434.53 242.241 431.862C231.788 430.274 221.102 431.891 211.592 436.502C193.48 446.959 185.645 468.527 175.008 484.822C164.091 502.426 149.492 517.453 132.214 528.871C112.318 539.826 90.8524 547.653 68.5714 552.076L67.5752 552.651C65.0494 553.505 64.7412 551.507 64.7287 548.976C64.4524 548.483 64.3363 547.916 64.3964 547.355C64.8345 530.504 67.7739 513.815 73.1183 497.834C78.1916 483.167 86.3577 469.765 97.0632 458.537C107.769 447.309 120.763 438.517 135.167 432.757C150.404 427.065 166.617 424.441 182.875 425.037C194.968 425.067 206.378 426.215 218.07 426.597L221.816 425.764C242.942 421.545 264.828 423.26 285.052 430.718C268.97 421.924 251.651 415.62 233.685 412.021C224.532 409.627 215.506 406.769 206.642 403.458C204.056 402.533 191.939 397.441 189.819 396.489C187.7 395.536 187.361 395.369 186.204 394.828C182.714 393.688 179.099 392.975 175.438 392.704C166.836 392.512 158.276 393.929 150.197 396.88C143.086 399.512 135.759 401.517 128.299 402.874C121.536 403.797 114.672 403.685 107.941 402.54C94.4004 400.458 81.6378 394.865 70.9224 386.318C49.7221 370.513 32.0531 347.23 4.76174 340.744L3.99486 340.462C2.55165 339.844 -2.51247 339.021 1.69173 336.472L2.77851 335.845C25.643 321.405 51.8132 313.035 78.8195 311.526C100.323 309.451 121.907 314.654 140.119 326.301C149.295 333.207 156.762 342.132 161.941 352.385C166.295 364.257 172.89 375.183 181.366 384.566C195.246 394.865 211.898 400.751 229.156 401.459C221.009 395.075 214.284 387.058 209.41 377.925C208.311 376.021 207.264 374.208 206.113 372.213C197.153 362.122 187.34 352.823 176.783 344.42C166.355 334.536 159.554 321.43 157.476 307.214C155.886 293.385 157.66 279.38 162.647 266.392C167.798 253.29 174.539 240.873 182.718 229.418C191.287 218.314 198.335 206.115 203.675 193.142L204.072 191.946C205.709 187.253 207.694 189.855 208.179 190.904C208.665 191.954 208.598 191.63 208.86 192.083C217.21 210.138 224.45 228.686 230.541 247.622C236.198 262.149 237.8 277.938 235.177 293.299C230.974 307.444 225.008 321.001 217.418 333.652C213.434 340.265 210.592 347.505 209.012 355.066C208.893 359.544 209.775 363.993 211.596 368.087C213.416 372.181 216.129 375.817 219.534 378.728C229.967 390.123 242.607 399.277 256.683 405.634L256.578 405.452Z" stroke="url(#paint0_linear_5282_33747)" stroke-width="2" mask="url(#path-1-inside-1_5282_33747)"/>
</g>
<defs>
<linearGradient id="paint0_linear_5282_33747" x1="195.38" y1="260.098" x2="557.393" y2="1004.86" gradientUnits="userSpaceOnUse">
<stop stop-color="#22B148"/>
<stop offset="0.682692" stop-color="#8F4AFF"/>
</linearGradient>
</defs>
</svg>
